<?xml version="1.0" standalone="no"?>
<!DOCTYPE svg PUBLIC "-//W3C//DTD SVG 1.1//EN" "http://www.w3.org/Graphics/SVG/1.1/DTD/svg11.dtd" >
<svg xmlns="http://www.w3.org/2000/svg" xmlns:xlink="http://www.w3.org/1999/xlink" version="1.1">
<metadata>
Created by FontForge 20190801 at Wed Jun 11 13:39:47 2014
 By Jimmy Wärting
2013 Iconian Fonts - www.iconian.com
</metadata>
<defs>
<font id="GhostClanGradient" horiz-adv-x="688" >
  <font-face 
    font-family="Ghost Clan Gradient"
    font-weight="400"
    font-stretch="normal"
    units-per-em="1000"
    panose-1="0 0 0 0 0 0 0 0 0 0"
    ascent="800"
    descent="-200"
    x-height="483"
    cap-height="483"
    bbox="-63 -170 1181 633"
    underline-thickness="50"
    underline-position="-125"
    unicode-range="U+0020-2122"
  />
<missing-glyph horiz-adv-x="500" 
 />
    <glyph glyph-name=".notdef" horiz-adv-x="500" 
 />
    <glyph glyph-name=".null" horiz-adv-x="0" 
 />
    <glyph glyph-name="nonmarkingreturn" horiz-adv-x="500" 
 />
    <glyph glyph-name="FL0020h" unicode=" " horiz-adv-x="490" 
 />
    <glyph glyph-name="FL0021h" unicode="!" horiz-adv-x="188" 
d="M30 49v50h128v-50h-128zM30 190v43h128v-43h-128zM30 261v38h128v-38h-128zM30 332v34h128v-34h-128zM158 0h-128v33h128v-33zM30 403v30h128v-30h-128zM30 483h128v-10h-128v10zM158 157h-128v9h128v-9zM30 125h128v-6h-128v6z" />
    <glyph glyph-name="FL0022h" unicode="&#x22;" horiz-adv-x="454" 
d="M30 403v16l12 14h160l-26 -30h-146zM224 403v16l12 14h160l-26 -30h-146zM321 344h-97v22h115zM127 344h-97v22h115zM438 483l-9 -10h-160l9 10h160zM244 483l-9 -10h-160l9 10h160z" />
    <glyph glyph-name="FL0023h" unicode="#" horiz-adv-x="689" 
d="M654 166q-2 -13 -3.5 -24.5t-3.5 -22.5h-617v47h624zM657 366q-1 -8 -2 -16.5t-3 -17.5h-622v34h627zM415 268h-145v-7h-128v7h-112v31h618q-2 -13 -4 -22l-2 -9h-99v-7h-128v7zM543 216h116q0 -5 -0.5 -11.5t-1.5 -14.5h-627v26h112v17h128v-17h145v17h128v-17zM644 99
l-2 -8h-99v-42h-128v42h-145v-42h-128v42h-112v8h614zM543 0h-128v33h128v-33zM270 0h-128v33h128v-33zM142 403v30h128v-30h-128zM415 403v30h128v-30h-128zM142 483h128v-10h-128v10zM415 473v10h128v-10h-128z" />
    <glyph glyph-name="FL0024h" unicode="$" horiz-adv-x="689" 
d="M658 99q-2 -25 -21 -50h-582q2 14 3.5 26.5t3.5 23.5h596zM649 233q9 -15 9 -31v-12h-564q-25 17 -43 43h598zM569 299q32 -10 59 -38h-592q-5 11 -6 20v18h539zM623 33q-15 -15 -32.5 -24t-33.5 -9h-147v-22h-128v22h-232q0 10 3 33h570zM653 433q-2 -8 -2.5 -15
t-1.5 -15h-607q3 8 6 15t8 15h597zM530 125v41h128v-47h-593l2 6h215v41h128v-41h120zM158 351v-19h-128v16q0 5 0.5 9t1.5 9h611q0 -3 -0.5 -5.5l-0.5 -2.5h-232v-26h-128v26h-113zM410 483h249l-1 -10h-558q21 10 47 10h135v17h128v-17zM282 -93v59h128v-59h-128zM282 544
v22h128v-22h-128zM410 -114h-128v13h128v-13z" />
    <glyph glyph-name="FL0025h" unicode="%" horiz-adv-x="794" 
d="M545 82h123v17h96v-50h-314v50h95v-17zM764 191v-1h-314q1 13 9.5 24t20.5 19h254q12 -7 21 -18t9 -24zM344 288q0 -14 -13 -27h-301v38h314v-11zM545 152v-33h-95v47h314v-47h-96v37h-119zM450 0v33h310q-6 -13 -20.5 -23t-25.5 -10h-264zM344 432v-29h-314v26v4h314v-1
zM140 49l47 50h154l-47 -50h-154zM206 119l44 47h154l-44 -47h-154zM273 190l40 43h154l-40 -43h-154zM340 261l36 38h154l-36 -38h-154zM407 332l32 34h154l-32 -34h-154zM248 0h-154l31 33h154zM474 403l28 30h154l-28 -30h-154zM248 332v34h96v-34h-96zM30 332v34h95v-34
h-95zM286 482q15 0 30 -9h-257q7 4 14.5 6.5t15.5 2.5h197zM550 483h154l-10 -10h-154z" />
    <glyph glyph-name="FL002Ah" unicode="&#x26;" horiz-adv-x="738" 
d="M621 99q-1 -13 -3.5 -25.5t-8.5 -24.5h-567q-12 24 -12 50h591zM700 233q-2 -13 -3.5 -24.5t-3.5 -18.5h-663q2 10 8.5 21.5t12.5 21.5h649zM708 299q-1 -7 -1.5 -17t-2.5 -21h-662q-5 11 -8.5 21.5t-3.5 12.5v4h678zM598 33q-12 -15 -31 -24t-47 -9h-389q-29 0 -48 9
t-31 24h546zM553 433q-2 -10 -2 -15t-2 -15h-519v30h523zM483 125l12 7v34h126v-47h-591v47h126v-34l12 -7h315zM543 366l-2 -8h-385v-26h-126v34h513zM30 473v10h528q0 -7 -1 -10h-527z" />
    <glyph glyph-name="quotesingle" unicode="'" horiz-adv-x="260" 
d="M30 403v16l2.5 3.5t8.5 10.5h161l-26 -30h-146zM127 344h-97v22h115zM244 483l-9 -10h-160q7 7 9 10h160z" />
    <glyph glyph-name="FL0028h" unicode="(" horiz-adv-x="405" 
d="M369 33q2 -17 3.5 -31.5t2.5 -23.5h-345v55h339zM357 99q1 0 4 -15t6 -35h-337v50h327zM368 433q-2 -8 -3 -16t-2 -14h-332q1 8 3.5 15t5.5 15h328zM375 500q-2 -11 -3 -27h-302q16 16 42 27h263zM30 119v47h128v-47h-128zM30 190v43h128v-43h-128zM30 261v38h128v-38
h-128zM30 332v34h128v-34h-128z" />
    <glyph glyph-name="FL0029h" unicode=")" horiz-adv-x="405" 
d="M29 -22q0 9 2 23.5t4 31.5h339v-55h-345zM37 49q3 20 5.5 35t4.5 15h327v-50h-337zM41 403q-2 7 -3 14.5t-2 15.5h327q7 -12 10 -30h-332zM31 473q-1 8 -1.5 15t-0.5 12h263q22 -9 42 -27h-303zM246 119v47h128v-47h-128zM246 190v43h128v-43h-128zM246 261v38h128v-38
h-128zM246 332v34h128v-34h-128z" />
    <glyph glyph-name="FL0F98h" unicode="*" horiz-adv-x="238" 
d="M176 433l16 -21l-12 -9h-132l-11 8l21 22h118zM72 500l10 -5l-1 5h70v-5l9 5h25l12 -27h-159l10 27h24z" />
    <glyph glyph-name="FL002Bh" unicode="+" horiz-adv-x="416" 
d="M30 190v43h356v-43h-356zM30 261v38h356v-38h-356zM146 119v47h125v-47h-125zM271 62h-125v37h125v-37zM146 332v34h125v-34h-125zM271 418v-15h-125v15h125z" />
    <glyph glyph-name="FL002Ch" unicode="," horiz-adv-x="186" 
d="M156 0l-22 -22h-104v55h126v-33zM30 49v50h126v-50h-126zM103 -54h-73v20h92zM156 125v-6h-126v6h126z" />
    <glyph glyph-name="FL002Dh" unicode="-" horiz-adv-x="416" 
d="M378 233q-2 -13 -3 -24t-3 -19h-342v43h348zM386 299q-1 -7 -1.5 -17t-2.5 -21h-352v38h356z" />
    <glyph glyph-name="FL002Eh" unicode="." horiz-adv-x="186" 
d="M30 49v50h126v-50h-126zM156 0h-126v33h126v-33zM30 125h126v-6h-126v6z" />
    <glyph glyph-name="FL002Fh" unicode="/" horiz-adv-x="642" 
d="M62 49l47 50h154l-47 -50h-154zM128 119l44 47h154l-44 -47h-154zM195 190l40 43h154l-40 -43h-154zM262 261l36 38h154l-36 -38h-154zM329 332l32 34h154l-32 -34h-154zM170 0h-154l31 33h154zM396 403l28 30h154l-28 -30h-154zM472 483h154l-10 -10h-154z" />
    <glyph glyph-name="FL0030h" unicode="0" 
d="M658 95q0 -11 -5.5 -23t-14.5 -23h-608v50h628v-4zM30 0v33h594q-16 -14 -34 -23.5t-33 -9.5h-527zM638 433q5 -8 9.5 -15t6.5 -15h-620q6 15 18 30h586zM158 128h372v38h128v-47h-628v47h128v-38zM158 347v-15h-128v34h628v-34h-128v26h-361zM530 190v43h128v-43h-128z
M30 190v43h128v-43h-128zM30 261v38h128v-38h-128zM530 261v38h128v-38h-128zM541 483q22 0 43 -10h-480q21 10 43 10h394z" />
    <glyph glyph-name="FL0031h" unicode="1" horiz-adv-x="272" 
d="M114 49v50h128v-50h-128zM30 403v30h212v-30h-212zM114 119v47h128v-47h-128zM114 190v43h128v-43h-128zM114 358h-84v8h212v-34h-128v26zM114 261v38h128v-38h-128zM242 0h-128v33h128v-33zM30 473v10h212v-10h-212z" />
    <glyph glyph-name="FL0032h" unicode="2" horiz-adv-x="689" 
d="M626 99q2 -11 3.5 -23.5t3.5 -26.5h-603v50h596zM636 233q-17 -26 -43 -43h-563v12q0 13 8 31h598zM658 281q-1 -9 -6 -20h-593q28 28 60 38h539v-18zM638 0h-608v33h605q1 -11 2 -19.5t1 -13.5zM631 433q9 -15 15 -30h-607q-2 8 -2.5 15t-2.5 15h597zM158 125h463
l0.5 -2t0.5 -4h-592v47h128v-41zM655 366q3 -18 3 -34h-128v19l-11 7h-473l-2 8h611zM541 483q25 0 46 -10h-558v10h512z" />
    <glyph glyph-name="FL0033h" unicode="3" 
d="M658 99q-1 -13 -3.5 -25.5t-8.5 -24.5h-616v50h628zM637 233q6 -10 12.5 -21.5t8.5 -21.5h-628v43h607zM658 295q0 -4 -4 -14t-9 -20h-615v38h628v-4zM635 33q-12 -15 -31 -24t-47 -9h-527v33h605zM637 433q4 -7 7.5 -14.5t5.5 -15.5h-620v30h607zM30 125h490l12 7v34
h126v-47h-628v6zM532 332v19l-12 7h-490v8h627q1 -5 1 -15v-13v-6h-126zM30 473v10h513q30 0 51 -10h-564z" />
    <glyph glyph-name="FL0034h" unicode="4" horiz-adv-x="736" 
d="M697 166q-3 -18 -5 -32t-3 -14h-90v-1h-125v2h-458l37 45h644zM705 233q-1 -9 -2 -20t-3 -23h-628l36 43h597zM474 356h-99l-20 -24h-166l28 34h382v-34h-125v24zM248 404l9 13.5t13 15.5h329v-30h-352zM131 261l31 38h165l-31 -38h-165zM474 49v50h125v-50h-125z
M474 261v38h125v-38h-125zM599 0h-125v33h125v-33zM322 473q21 10 42 10h235v-10h-277z" />
    <glyph glyph-name="FL0035h" unicode="5" horiz-adv-x="689" 
d="M658 99q-2 -25 -21 -50h-582q2 14 3.5 26.5t3.5 23.5h596zM94 190q-25 17 -43 43h598q9 -15 9 -31v-12h-564zM36 261q-5 11 -6 20v18h539q32 -10 59 -38h-592zM653 433q-2 -8 -2.5 -15t-1.5 -15h-619v30h623zM623 33q-15 -15 -32.5 -24t-33.5 -9h-507q0 10 3 33h570z
M530 125v41h128v-47h-593l2 6h463zM643 366q0 -3 -0.5 -5.5l-0.5 -2.5h-484v-26h-128v34h613zM30 473v10h629l-1 -10h-628z" />
    <glyph glyph-name="FL0037h" unicode="6" horiz-adv-x="690" 
d="M56 49q-9 11 -15.5 23.5t-8.5 26.5h628v-50h-604zM30 190v43h630v-43h-630zM660 283v-22h-630v38h615zM655 433q-2 -8 -2.5 -15t-1.5 -15h-621v30h625zM660 0h-513q-20 0 -39.5 9t-36.5 24h589v-33zM158 139l8 -14h366v41h128v-47h-630v47h128v-27zM644 366l-2 -8h-484
v-26h-128v34h614zM30 473v10h630q0 -7 -1 -10h-629z" />
    <glyph glyph-name="FL0038h" unicode="7" horiz-adv-x="646" 
d="M30 403v30h586v-30h-586zM395 358h-365v8h570l-49 -34h-194zM151 190l62 43h194l-62 -43h-194zM254 261l55 38h194l-55 -38h-194zM251 125v-6h-126v47h185zM125 49v50h126v-50h-126zM616 483v-10h-586v10h586zM251 0h-126v33h126v-33z" />
    <glyph glyph-name="FL0039h" unicode="8" 
d="M658 99q-1 -13 -3.5 -25.5t-8.5 -24.5h-604q-12 24 -12 50h628zM637 233q6 -10 12.5 -21.5t8.5 -21.5h-628q2 10 8.5 21.5t12.5 21.5h586zM30 295v4h628v-4q0 -4 -4 -14t-9 -20h-603q-5 11 -8.5 21.5t-3.5 12.5zM637 433q4 -7 7.5 -14.5t5.5 -15.5h-620v30h607zM635 33
q-12 -15 -31 -24t-47 -9h-426q-29 0 -48 9t-31 24h583zM168 125h352l12 7v34h126v-47h-628v47h126v-34zM156 358v-26h-126v34h627q1 -5 1 -15v-13v-6h-126v19l-12 7h-364zM30 473v10h513q30 0 51 -10h-564z" />
    <glyph glyph-name="FL003Ah" unicode="9" horiz-adv-x="690" 
d="M35 49q2 14 3.5 26.5t3.5 23.5h618v-50h-625zM30 200v33h630v-43h-621zM30 261v38h630v-38h-630zM660 0h-630q0 10 3 33h627v-33zM634 433q6 -8 10 -15t8 -15h-622v30h604zM660 366v-34h-128v12l-8 14h-366v-26h-128v34h630zM46 119q0 6 2 6h484v41h128v-47h-614zM30 473
v10h513q21 0 42 -10h-555z" />
    <glyph glyph-name="FL003Bh" unicode=":" horiz-adv-x="186" 
d="M30 49v50h126v-50h-126zM30 261v38h126v-38h-126zM156 0h-126v33h126v-33zM30 359h126v-27h-126v27zM30 125h126v-6h-126v6z" />
    <glyph glyph-name="FL003Dh" unicode=";" horiz-adv-x="186" 
d="M156 0l-22 -22h-104v55h126v-33zM30 49v50h126v-50h-126zM30 261v38h126v-38h-126zM30 359h126v-27h-126v27zM103 -54h-73v20h92zM156 125v-6h-126v6h126z" />
    <glyph glyph-name="FL003Ch" unicode="&#x3c;" horiz-adv-x="414" 
d="M197 49l-47 50h154l47 -50h-154zM131 119l-45 47h154l45 -47h-154zM64 190l-41 43h154l41 -43h-154zM35 261l36 38h154l-36 -38h-154zM102 332l32 34h154l-32 -34h-154zM244 0l-32 33h154l32 -33h-154zM169 403l28 30h154l-28 -30h-154zM234 473l10 10h154l-10 -10h-154z
" />
    <glyph glyph-name="FL003Fh" unicode="=" horiz-adv-x="416" 
d="M382 166q-2 -13 -3.5 -24.5t-3.5 -22.5h-344v47h351zM385 366q-1 -8 -2 -16.5t-3 -17.5h-349v34h354zM370 268h-339v31h345q-2 -14 -4 -22.5zM31 216h356q0 -5 -0.5 -11.5t-1.5 -14.5h-354v26zM370 91h-339v8h341l-1.5 -6z" />
    <glyph glyph-name="FL003Eh" unicode="&#x3e;" horiz-adv-x="414" 
d="M62 49l47 50h154l-47 -50h-154zM128 119l45 47h154l-45 -47h-154zM195 190l41 43h154l-41 -43h-154zM225 261l-36 38h154l36 -38h-154zM158 332l-32 34h154l32 -34h-154zM170 0h-154l31 33h154zM91 403l-28 30h154l28 -30h-154zM16 483h154l9 -10h-154z" />
    <glyph glyph-name="FL0040h" unicode="?" horiz-adv-x="689" 
d="M88 190v12q0 16 9 31h539q-17 -26 -43 -43h-505zM118 261q28 28 60 38h480v-18q-1 -9 -6 -20h-534zM39 403q-2 8 -2.5 15t-2.5 15h597q9 -15 15 -30h-607zM530 332v19l-11 7h-473l-0.5 2l-1.5 6h611q3 -18 3 -34h-128zM88 49v50h128v-50h-128zM29 483h512q25 0 46 -10
h-558v10zM216 0h-128v33h128v-33zM216 156h-128v10h128v-10zM88 125h128v-6h-128v6z" />
    <glyph glyph-name="FL0CA8h" unicode="@" horiz-adv-x="750" 
d="M563 33q2 -17 3.5 -31.5t2.5 -23.5h-539v55h533zM551 99q1 0 3.5 -15t5.5 -35h-530v50h521zM720 120h-539v46h539v-46zM31 403q1 8 3.5 15t5.5 15h669q7 -12 10 -30h-688zM276 202h197v31h247v-43h-539v43h95v-31zM70 473q16 16 42 27h526q22 -9 42 -27h-610zM280 276
l-4 -4v-11h-95v38h388v-38h-96v15h-193zM188 332q8 13 23 21t29 8h271q13 0 28 -8t23 -21h-374zM30 119v47h128v-47h-128zM30 190v43h128v-43h-128zM30 261v38h128v-38h-128zM592 261v38h128v-38h-128zM30 332v34h128v-34h-128zM592 332v34h128v-34h-128z" />
    <glyph glyph-name="FL0041h" unicode="A" horiz-adv-x="708" 
d="M553 119v2h-307l-2 -2h-152l30 47h556v-47h-125zM138 190l27 43h513v-43h-540zM274 403l1 1l9 13.5t13 15.5h381v-30h-404zM553 356h-151q-5 0 -23 -24h-150l21 34h428v-34h-125v24zM47 49l32 50h152l-34 -50h-150zM553 49v50h125v-50h-125zM356 299q-7 -11 -13 -20.5
t-11 -17.5h-149l25 38h148zM16 0l21 33h149l-22 -33h-148zM553 261v38h125v-38h-125zM678 0h-125v33h125v-33zM349 473q21 10 42 10h287v-10h-329z" />
    <glyph glyph-name="FL0042h" unicode="B" 
d="M658 99q-1 -13 -3.5 -25.5t-8.5 -24.5h-616v50h628zM637 233q6 -10 12.5 -21.5t8.5 -21.5h-628v43h607zM658 295q0 -4 -4 -14t-9 -20h-615v38h628v-4zM635 33q-12 -15 -31 -24t-47 -9h-527v33h605zM637 433q4 -7 7.5 -14.5t5.5 -15.5h-620v30h607zM158 125h362l12 7v34
h126v-47h-628v47h128v-41zM532 332v19l-12 7h-362v-26h-128v34h627q1 -5 1 -15v-13v-6h-126zM543 483q30 0 51 -10h-564v10h513z" />
    <glyph glyph-name="FL0043h" unicode="C" horiz-adv-x="690" 
d="M649 99q2 -11 3.5 -24t3.5 -26h-600q-9 11 -15.5 23.5t-8.5 26.5h617zM655 433q-2 -8 -2.5 -15t-1.5 -15h-621v30h625zM657 33q3 -21 3 -33h-513q-20 0 -39.5 9t-36.5 24h586zM158 139l8 -14h476l2 -6h-614v47h128v-27zM644 366l-2 -8h-484v-26h-128v34h614zM30 483h630
q0 -7 -1 -10h-629v10zM30 190v43h128v-43h-128zM30 261v38h128v-38h-128z" />
    <glyph glyph-name="FL0044h" unicode="D" 
d="M658 99q-2 -26 -21 -50h-607v50h628zM621 33q-17 -15 -39 -24t-41 -9h-511v33h591zM639 433q7 -8 11 -15.5t6 -14.5h-626v30h609zM158 125h372v41h128v-47h-628v47h128v-41zM530 332v23h-372v-23h-128v34h628v-34h-128zM530 190v43h128v-43h-128zM30 190v43h128v-43h-128
zM30 483h527q16 0 35 -10h-562v10zM530 261v38h128v-38h-128zM30 261v38h128v-38h-128z" />
    <glyph glyph-name="FL0045h" unicode="E" horiz-adv-x="690" 
d="M56 49q-9 11 -15.5 23.5t-8.5 26.5h617q2 -11 3.5 -24t3.5 -26h-600zM613 233q-2 -13 -3 -24t-3 -19h-577v43h583zM621 299q-1 -7 -1.5 -17t-2.5 -21h-587v38h591zM655 433q-2 -8 -2.5 -15t-1.5 -15h-621v30h625zM147 0q-20 0 -39.5 9t-36.5 24h586q3 -21 3 -33h-513z
M642 125l2 -6h-614v47h128v-27l8 -14h476zM158 358v-26h-128v34h614l-1.5 -6l-0.5 -2h-484zM30 483h630q0 -7 -1 -10h-629v10z" />
    <glyph glyph-name="FL0046h" unicode="F" horiz-adv-x="690" 
d="M613 233q-2 -13 -3 -24t-3 -19h-577v43h583zM621 299q-1 -7 -1.5 -17t-2.5 -21h-587v38h591zM655 433q-2 -8 -2.5 -15t-1.5 -15h-621v30h625zM158 358v-26h-128v34h614l-1.5 -6l-0.5 -2h-484zM30 49v50h128v-50h-128zM30 483h630q0 -7 -1 -10h-629v10zM30 119v47h128v-47
h-128zM158 0h-128v33h128v-33z" />
    <glyph glyph-name="FL0047h" unicode="G" horiz-adv-x="690" 
d="M56 49q-9 11 -15.5 23.5t-8.5 26.5h628v-50h-604zM655 433q-2 -8 -2.5 -15t-1.5 -15h-621v30h625zM147 0q-20 0 -39.5 9t-36.5 24h589v-33h-513zM166 125h366v41h128v-47h-630v47h128v-27zM336 190v43h324v-43h-324zM660 283v-22h-324v38h309zM158 358v-26h-128v34h614
l-1.5 -6l-0.5 -2h-484zM660 483q0 -7 -1 -10h-629v10h630zM30 190v43h128v-43h-128zM30 261v38h128v-38h-128z" />
    <glyph glyph-name="FL0048h" unicode="H" horiz-adv-x="684" 
d="M30 190v43h624v-43h-624zM30 261v38h624v-38h-624zM526 49v50h128v-50h-128zM30 49v50h128v-50h-128zM526 119v47h128v-47h-128zM30 119v47h128v-47h-128zM30 332v34h128v-34h-128zM526 332v34h128v-34h-128zM158 0h-128v33h128v-33zM654 0h-128v33h128v-33zM526 403v30
h128v-30h-128zM30 403v30h128v-30h-128zM526 483h128v-10h-128v10zM158 483v-10h-128v10h128z" />
    <glyph glyph-name="FL0049h" unicode="I" horiz-adv-x="644" 
d="M30 49v50h584v-50h-584zM614 0h-584v33h584v-33zM30 403v30h584v-30h-584zM614 125v-6h-584v6h228v41h128v-41h228zM258 332v26h-228v8h584v-8h-228v-26h-128zM30 473v10h584v-10h-584zM258 190v43h128v-43h-128zM258 261v38h128v-38h-128z" />
    <glyph glyph-name="FL006Ah" unicode="J" horiz-adv-x="528" 
d="M498 99q-2 -26 -21 -50h-424q-13 20 -27 50h472zM93 0q-17 17 -29 33h397q-17 -15 -39 -24t-41 -9h-288zM16 125h354v41h128v-47h-480zM370 190v43h128v-43h-128zM370 261v38h128v-38h-128zM370 332v34h128v-34h-128zM370 403v30h128v-30h-128zM498 483v-10h-128v10h128z
" />
    <glyph glyph-name="FL004Bh" unicode="K" horiz-adv-x="667" 
d="M30 190v43h395l41 -43h-436zM30 261v38h447l-36 -38h-411zM441 49l-48 50h162l48 -50h-162zM374 119l-45 47h161l45 -47h-161zM30 49v50h128v-50h-128zM30 119v47h128v-47h-128zM488 0l-32 33h163l32 -33h-163zM351 332l32 34h157l-32 -34h-157zM419 403l29 30h155
l-28 -30h-156zM30 332v34h128v-34h-128zM158 0h-128v33h128v-33zM30 403v30h128v-30h-128zM496 483h154l-10 -10h-154zM158 483v-10h-128v10h128z" />
    <glyph glyph-name="l" unicode="L" horiz-adv-x="562" 
d="M537 99q-5 -14 -11 -26.5t-14 -23.5h-482v50h507zM501 33q-7 -9 -15 -17l-16 -16h-440v33h471zM156 125h390q-1 -1 -1 -3t-1 -3h-514v47h126v-41zM30 190v43h126v-43h-126zM30 261v38h126v-38h-126zM30 332v34h126v-34h-126zM30 403v30h126v-30h-126zM30 483h126v-10
h-126v10z" />
    <glyph glyph-name="FL004Dh" unicode="M" horiz-adv-x="794" 
d="M369 166l29 -46l29 46h151l-30 -47h-301l-30 47h152zM292 49l-32 50h275l-32 -50h-211zM30 261v38h253l25 -38h-278zM487 261l24 38h253v-38h-277zM30 332v34h210l22 -34h-232zM532 332l22 34h210v-34h-232zM201 190l-28 43h153l27 -43h-152zM442 190l27 43h152l-27 -43
h-152zM30 49v50h126v-50h-126zM639 49v50h125v-50h-125zM30 119v47h126v-47h-126zM639 119v47h125v-47h-125zM471 0h-147l-21 33h189zM30 190v43h126v-43h-126zM639 190v43h125v-43h-125zM30 403v30h168l19 -30h-187zM577 403l19 30h168v-30h-187zM156 0h-126v33h126v-33z
M764 0h-125v33h125v-33zM30 483h136l6 -10h-142v10zM621 473l7 10h136v-10h-143z" />
    <glyph glyph-name="FL004Eh" unicode="N" 
d="M388 119l-56 47h326v-47h-270zM472 49l-60 50h246v-50h-186zM30 332v34h267l41 -34h-308zM304 190l-51 43h205l52 -43h-206zM219 261l-45 38h204l46 -38h-205zM30 49v50h128v-50h-128zM30 403v30h186l36 -30h-222zM30 119v47h128v-47h-128zM30 190v43h128v-43h-128z
M534 190v43h124v-43h-124zM658 0h-128l-39 33h167v-33zM30 261v38h128v-38h-128zM534 261v38h124v-38h-124zM158 0h-128v33h128v-33zM534 332v34h124v-34h-124zM534 403v30h124v-30h-124zM30 483h126l12 -10h-138v10zM534 473v10h124v-10h-124z" />
    <glyph glyph-name="FL004Fh" unicode="O" 
d="M658 99q-2 -26 -21 -50h-585q-19 23 -22 50h628zM639 433q7 -8 11 -15.5t6 -14.5h-626v30h609zM621 33q-17 -15 -39 -24t-41 -9h-394q-20 0 -41 9t-38 24h553zM158 136l11 -11h361v41h128v-47h-628v47h128v-30zM530 332v23h-372v-23h-128v34h628v-34h-128zM530 190v43
h128v-43h-128zM30 190v43h128v-43h-128zM30 483h527q16 0 35 -10h-562v10zM30 261v38h128v-38h-128zM530 261v38h128v-38h-128z" />
    <glyph glyph-name="FL0050h" unicode="P" 
d="M658 224q0 -8 -2 -16.5t-5 -17.5h-621v43h628v-9zM158 121v-2h-128v47h608q-13 -19 -33 -32t-48 -13h-399zM632 433q5 -8 8.5 -15.5t5.5 -14.5h-616v30h602zM158 358v-26h-128v34h625q3 -18 3 -34h-126v19l-12 7h-362zM30 49v50h128v-50h-128zM30 483h513q25 0 46 -10
h-559v10zM30 261v38h128v-38h-128zM532 261v38h126v-38h-126zM158 0h-128v33h128v-33z" />
    <glyph glyph-name="FL0071h" unicode="Q" 
d="M52 49q-19 23 -22 50h628v-50h-606zM375 125l-39 41h161l33 -33v33h128v-47h-628v47h128v-30l11 -11h206zM147 0q-20 0 -41 9t-38 24h590v-33h-511zM639 433q7 -8 11 -15.5t6 -14.5h-626v30h609zM158 355v-23h-128v34h628v-34h-128v23h-372zM313 190l-41 43h160l42 -43
h-161zM530 190v43h128v-43h-128zM30 190v43h128v-43h-128zM557 483q16 0 35 -10h-562v10h527zM30 261v38h128v-38h-128zM530 261v38h128v-38h-128z" />
    <glyph glyph-name="FL0052h" unicode="R" 
d="M641 233q-8 -13 -19.5 -24t-24.5 -19h-567v43h611zM658 281q0 -12 -4 -20h-624v38h628v-18zM636 433q4 -7 7.5 -14.5t5.5 -15.5h-619v30h606zM158 358v-26h-128v34h626q1 -9 1.5 -17.5t0.5 -16.5h-126v19l-12 7h-362zM446 49l-48 50h163l49 -50h-164zM379 119l-45 47h162
l46 -47h-163zM30 49v50h128v-50h-128zM30 119v47h128v-47h-128zM30 483h513q29 0 50 -10h-563v10zM625 33l33 -33h-165l-32 33h164zM158 0h-128v33h128v-33z" />
    <glyph glyph-name="FL0053h" unicode="S" horiz-adv-x="689" 
d="M658 99q-2 -25 -21 -50h-582q2 14 3.5 26.5t3.5 23.5h596zM94 190q-25 17 -43 43h598q9 -15 9 -31v-12h-564zM36 261q-5 11 -6 20v18h539q32 -10 59 -38h-592zM623 33q-15 -15 -32.5 -24t-33.5 -9h-507q0 10 3 33h570zM42 403q3 8 6 15t8 15h597q-2 -8 -2.5 -15t-1.5 -15
h-607zM530 125v41h128v-47h-593l2 6h463zM30 332v16q0 5 0.5 9t1.5 9h611q0 -3 -0.5 -5.5l-0.5 -2.5h-473l-11 -7v-19h-128zM100 473q21 10 47 10h512l-1 -10h-558z" />
    <glyph glyph-name="T" unicode="T" 
d="M30 403v30h628v-30h-628zM278 358h-248v8h628v-8h-252v-26h-128v26zM278 49v50h128v-50h-128zM30 473v10h628v-10h-628zM278 119v47h128v-47h-128zM278 190v43h128v-43h-128zM278 261v38h128v-38h-128zM406 0h-128v33h128v-33z" />
    <glyph glyph-name="FL0075h" unicode="U" 
d="M52 49q-19 23 -22 50h628q-2 -26 -21 -50h-585zM147 0q-20 0 -41 9t-38 24h553q-17 -15 -39 -24t-41 -9h-394zM158 136l11 -11h361v41h128v-47h-628v47h128v-30zM530 190v43h128v-43h-128zM30 190v43h128v-43h-128zM30 261v38h128v-38h-128zM530 261v38h128v-38h-128z
M30 332v34h128v-34h-128zM530 332v34h128v-34h-128zM30 403v30h128v-30h-128zM530 403v30h128v-30h-128zM658 483v-10h-128v10h128zM158 483v-10h-128v10h128z" />
    <glyph glyph-name="FL0036h" unicode="V" horiz-adv-x="653" 
d="M212 119l-26 47h283l-25 -47h-232zM250 49l-27 50h210l-26 -50h-157zM173 190l-23 43h145l21 -43h-143zM339 190l21 43h144l-23 -43h-142zM135 261l-20 38h148l18 -38h-146zM373 261l19 38h147l-20 -38h-146zM408 332l16 34h151l-18 -34h-149zM97 332l-18 34h150l17 -34
h-149zM442 403l15 30h153l-16 -30h-152zM59 403l-16 30h153l15 -30h-152zM276 0l-18 33h140l-17 -33h-105zM16 483h155l5 -10h-155zM482 483h155l-6 -10h-154z" />
    <glyph glyph-name="FL0057h" unicode="W" horiz-adv-x="794" 
d="M30 190v43h126v-11l7 11h152l-28 -43h-257zM632 233l7 -11v11h125v-43h-257l-27 43h152zM30 119v47h242l-30 -47h-212zM552 119l-30 47h242v-47h-212zM398 364l-21 -32h-151l22 34h298l22 -34h-150zM30 49v50h199l-31 -50h-168zM597 49l-32 50h199v-50h-167zM271 403
l20 30h212l19 -30h-251zM181 261l24 38h151l-24 -38h-151zM463 261l-24 38h150l25 -38h-151zM167 0h-137v33h158zM764 0h-136l-21 33h157v-33zM30 261v38h126v-38h-126zM639 261v38h125v-38h-125zM30 332v34h126v-34h-126zM639 332v34h125v-34h-125zM30 403v30h126v-30h-126
zM639 403v30h125v-30h-125zM316 473l7 10h148l6 -10h-161zM30 473v10h126v-10h-126zM639 473v10h125v-10h-125z" />
    <glyph glyph-name="FL0079h" unicode="X" horiz-adv-x="654" 
d="M327 155l-34 -36h-162l46 47h300l45 -47h-161zM200 190l42 43h170l41 -43h-253zM225 261l-35 38h274l-36 -38h-203zM63 49l49 50h162l-47 -50h-164zM427 49l-47 50h162l48 -50h-163zM181 0h-165l32 33h164zM474 0l-32 33h164l32 -33h-164zM159 332l-32 34h157l33 -34
h-158zM336 332l33 34h158l-32 -34h-159zM92 403l-28 30h156l29 -30h-157zM405 403l29 30h156l-28 -30h-157zM17 483h155l9 -10h-155zM483 483h154l-10 -10h-154z" />
    <glyph glyph-name="FL0059h" unicode="Y" horiz-adv-x="654" 
d="M198 261l-31 38h317l-32 -38h-254zM256 190l-35 43h207l-36 -43h-136zM264 49v50h122v-50h-122zM264 119v47h122v-47h-122zM350 332l28 34h162l-29 -34h-161zM140 332l-28 34h160l29 -34h-161zM408 403l25 30h163l-25 -30h-163zM81 403l-24 30h157l26 -30h-159zM386 0
h-122v33h122v-33zM466 473l8 10h164l-9 -10h-163zM16 483h155l8 -10h-155z" />
    <glyph glyph-name="FL005Ah" unicode="Z" horiz-adv-x="646" 
d="M30 49v50h586v-50h-586zM616 0h-586v33h586v-33zM30 403v30h586v-30h-586zM616 125v-6h-567l68 47h193l-59 -41h365zM395 358h-365v8h570l-49 -34h-194zM151 190l63 43h193l-62 -43h-194zM254 261l55 38h194l-55 -38h-194zM616 483v-10h-586v10h586z" />
    <glyph glyph-name="FL005Bh" unicode="[" horiz-adv-x="405" 
d="M369 33q2 -17 3.5 -31.5t2.5 -23.5h-345v55h339zM357 99q1 0 4 -15t6 -35h-337v50h327zM368 433q-2 -8 -3 -16t-2 -14h-333v30h338zM375 500q-2 -11 -3 -27h-342v27h345zM30 119v47h128v-47h-128zM30 190v43h128v-43h-128zM30 261v38h128v-38h-128zM30 332v34h128v-34
h-128z" />
    <glyph glyph-name="FL005Ch" unicode="\" horiz-adv-x="642" 
d="M426 49l-47 50h154l47 -50h-154zM360 119l-45 47h154l45 -47h-154zM293 190l-41 43h154l41 -43h-154zM226 261l-36 38h154l36 -38h-154zM159 332l-32 34h154l32 -34h-154zM595 33l31 -33h-154l-31 33h154zM92 403l-29 30h154l29 -30h-154zM170 483l9 -10h-154l-9 10h154z
" />
    <glyph glyph-name="FL005Dh" unicode="]" horiz-adv-x="405" 
d="M29 -22q0 9 2 23.5t4 31.5h339v-55h-345zM37 49q3 20 5.5 35t4.5 15h327v-50h-337zM41 403q-2 7 -3 14.5t-2 15.5h338v-30h-333zM31 473q-1 8 -1.5 15t-0.5 12h345v-27h-343zM246 119v47h128v-47h-128zM246 190v43h128v-43h-128zM246 261v38h128v-38h-128zM246 332v34
h128v-34h-128z" />
    <glyph glyph-name="FL005Eh" unicode="^" horiz-adv-x="708" 
d="M155 121v-2h-125v47h555l30 -47h-152l-1 2h-307zM30 190v43h512l28 -43h-540zM410 433q7 -8 12.5 -15t10.5 -14v-1h-403v30h380zM155 356v-24h-125v34h427l22 -34h-151q-18 24 -22 24h-151zM511 49l-34 50h151l32 -50h-149zM30 49v50h125v-50h-125zM376 261
q-5 8 -11 17.5t-14 20.5h149l24 -38h-148zM692 0h-148l-22 33h149zM30 261v38h125v-38h-125zM155 0h-125v33h125v-33zM317 483q20 0 41 -10h-328v10h287z" />
    <glyph glyph-name="FL005Fh" unicode="_" horiz-adv-x="536" 
d="M30 49v50h476v-50h-476zM506 0h-476v33h476v-33zM506 125v-6h-476v6h476z" />
    <glyph glyph-name="FL0060h" unicode="`" horiz-adv-x="220" 
d="M56 403l-15 30h130l13 -30h-128zM16 483h134l4 -10h-133zM200 366l4 -8h-126l-4 8h126z" />
    <glyph glyph-name="a" unicode="a" horiz-adv-x="708" 
d="M553 119v2h-307l-2 -2h-152l30 47h556v-47h-125zM138 190l27 43h513v-43h-540zM274 403l1 1q5 7 10.5 14t12.5 15h380v-30h-404zM553 356h-151q-5 0 -23 -24h-150l21 34h428v-34h-125v24zM47 49l32 50h152l-34 -50h-150zM553 49v50h125v-50h-125zM356 299
q-7 -11 -13 -20.5t-11 -17.5h-149l25 38h148zM16 0l21 33h149l-22 -33h-148zM553 261v38h125v-38h-125zM678 0h-125v33h125v-33zM349 473q21 10 42 10h287v-10h-329z" />
    <glyph glyph-name="FL00B5h" unicode="b" 
d="M658 99q-1 -13 -3.5 -25.5t-8.5 -24.5h-616v50h628zM637 233q6 -10 12.5 -21.5t8.5 -21.5h-628v43h607zM658 295q0 -4 -4 -14t-9 -20h-615v38h628v-4zM635 33q-12 -15 -31 -24t-47 -9h-527v33h605zM637 433q4 -7 7.5 -14.5t5.5 -15.5h-620v30h607zM158 125h362l12 7v34
h126v-47h-628v47h128v-41zM532 332v19l-12 7h-362v-26h-128v34h627q1 -5 1 -15v-13v-6h-126zM543 483q30 0 51 -10h-564v10h513z" />
    <glyph glyph-name="c" unicode="c" horiz-adv-x="690" 
d="M649 99q2 -11 3.5 -24t3.5 -26h-600q-9 11 -15.5 23.5t-8.5 26.5h617zM655 433q-2 -8 -2.5 -15t-1.5 -15h-621v30h625zM657 33q3 -21 3 -33h-513q-20 0 -39.5 9t-36.5 24h586zM158 139l8 -14h476l2 -6h-614v47h128v-27zM644 366l-2 -8h-484v-26h-128v34h614zM30 483h630
q0 -7 -1 -10h-629v10zM30 190v43h128v-43h-128zM30 261v38h128v-38h-128z" />
    <glyph glyph-name="FL0064h" unicode="d" 
d="M658 99q-2 -26 -21 -50h-607v50h628zM621 33q-17 -15 -39 -24t-41 -9h-511v33h591zM639 433q7 -8 11 -15.5t6 -14.5h-626v30h609zM158 125h372v41h128v-47h-628v47h128v-41zM530 332v23h-372v-23h-128v34h628v-34h-128zM530 190v43h128v-43h-128zM30 190v43h128v-43h-128
zM30 483h527q16 0 35 -10h-562v10zM530 261v38h128v-38h-128zM30 261v38h128v-38h-128z" />
    <glyph glyph-name="FL0065h" unicode="e" horiz-adv-x="690" 
d="M56 49q-9 11 -15.5 23.5t-8.5 26.5h617q2 -11 3.5 -24t3.5 -26h-600zM613 233q-2 -13 -3 -24t-3 -19h-577v43h583zM621 299q-1 -7 -1.5 -17t-2.5 -21h-587v38h591zM655 433q-2 -8 -2.5 -15t-1.5 -15h-621v30h625zM147 0q-20 0 -39.5 9t-36.5 24h586q3 -21 3 -33h-513z
M642 125l2 -6h-614v47h128v-27l8 -14h476zM158 358v-26h-128v34h614l-1.5 -6l-0.5 -2h-484zM30 483h630q0 -7 -1 -10h-629v10z" />
    <glyph glyph-name="FL0066h" unicode="f" horiz-adv-x="690" 
d="M158 121v-2h-128v47h582q-3 -19 -5 -32t-3 -13h-446zM620 233q-1 -9 -2 -20.5t-3 -22.5h-585v43h590zM655 433q-2 -8 -2.5 -15t-1.5 -15h-621v30h625zM158 358v-26h-128v34h614l-1.5 -6l-0.5 -2h-484zM30 49v50h128v-50h-128zM30 483h630q0 -7 -1 -10h-629v10zM30 261v38
h128v-38h-128zM158 0h-128v33h128v-33z" />
    <glyph glyph-name="FL0067h" unicode="g" horiz-adv-x="690" 
d="M56 49q-9 11 -15.5 23.5t-8.5 26.5h628v-50h-604zM655 433q-2 -8 -2.5 -15t-1.5 -15h-621v30h625zM147 0q-20 0 -39.5 9t-36.5 24h589v-33h-513zM166 125h366v41h128v-47h-630v47h128v-27zM336 190v43h324v-43h-324zM660 283v-22h-324v38h309zM158 358v-26h-128v34h614
l-1.5 -6l-0.5 -2h-484zM660 483q0 -7 -1 -10h-629v10h630zM30 190v43h128v-43h-128zM30 261v38h128v-38h-128z" />
    <glyph glyph-name="FL0068h" unicode="h" horiz-adv-x="684" 
d="M30 190v43h624v-43h-624zM30 261v38h624v-38h-624zM526 49v50h128v-50h-128zM30 49v50h128v-50h-128zM526 119v47h128v-47h-128zM30 119v47h128v-47h-128zM30 332v34h128v-34h-128zM526 332v34h128v-34h-128zM158 0h-128v33h128v-33zM654 0h-128v33h128v-33zM526 403v30
h128v-30h-128zM30 403v30h128v-30h-128zM526 483h128v-10h-128v10zM158 483v-10h-128v10h128z" />
    <glyph glyph-name="FL0069h" unicode="i" horiz-adv-x="188" 
d="M30 49v50h128v-50h-128zM30 119v47h128v-47h-128zM30 190v43h128v-43h-128zM30 261v38h128v-38h-128zM30 332v34h128v-34h-128zM158 0h-128v33h128v-33zM30 403v30h128v-30h-128zM30 483h128v-10h-128v10z" />
    <glyph glyph-name="FL004Ah" unicode="j" horiz-adv-x="587" 
d="M51 49q-15 21 -26 50h532q-2 -26 -21 -50h-485zM440 0h-347q-8 7 -16 15t-15 18h458q-17 -15 -39 -24t-41 -9zM226 403v30h331v-30h-331zM18 119l-2 6h413v41h128v-47h-539zM429 332v26h-203v8h331v-34h-128zM429 190v43h128v-43h-128zM429 261v38h128v-38h-128zM226 473
v10h331v-10h-331z" />
    <glyph glyph-name="FL006Bh" unicode="k" horiz-adv-x="667" 
d="M30 190v43h430l35 -43h-465zM30 261v38h472l-30 -38h-442zM453 49l-43 50h160l41 -50h-158zM393 119l-41 47h163l38 -47h-160zM30 49v50h128v-50h-128zM30 119v47h128v-47h-128zM366 332l29 34h161l-27 -34h-163zM495 0l-29 33h158l27 -33h-156zM427 403l25 30h158
l-24 -30h-159zM30 332v34h128v-34h-128zM158 0h-128v33h128v-33zM30 403v30h128v-30h-128zM651 483l-8 -10h-157l9 10h156zM158 483v-10h-128v10h128z" />
    <glyph glyph-name="FL004Ch" unicode="l" horiz-adv-x="562" 
d="M534 99q2 -11 3.5 -24t3.5 -26h-511v50h504zM545 0h-515v33h512q3 -21 3 -33zM527 125l2 -6h-499v47h126v-41h371zM30 190v43h126v-43h-126zM30 261v38h126v-38h-126zM30 332v34h126v-34h-126zM30 403v30h126v-30h-126zM30 483h126v-10h-126v10z" />
    <glyph glyph-name="m" unicode="m" horiz-adv-x="794" 
d="M369 166l29 -46l29 46h151l-30 -47h-301l-30 47h152zM292 49l-32 50h275l-32 -50h-211zM30 261v38h253l25 -38h-278zM487 261l24 38h253v-38h-277zM30 332v34h210l22 -34h-232zM532 332l22 34h210v-34h-232zM201 190l-28 43h153l27 -43h-152zM442 190l27 43h152l-27 -43
h-152zM30 49v50h126v-50h-126zM639 49v50h125v-50h-125zM30 119v47h126v-47h-126zM639 119v47h125v-47h-125zM471 0h-147l-21 33h189zM30 190v43h126v-43h-126zM639 190v43h125v-43h-125zM30 403v30h168l19 -30h-187zM577 403l19 30h168v-30h-187zM156 0h-126v33h126v-33z
M764 0h-125v33h125v-33zM30 483h136l6 -10h-142v10zM621 473l7 10h136v-10h-143z" />
    <glyph glyph-name="n" unicode="n" 
d="M388 119l-56 47h326v-47h-270zM472 49l-60 50h246v-50h-186zM30 332v34h267l41 -34h-308zM304 190l-51 43h205l52 -43h-206zM219 261l-45 38h204l46 -38h-205zM30 49v50h128v-50h-128zM30 403v30h186l36 -30h-222zM30 119v47h128v-47h-128zM30 190v43h128v-43h-128z
M534 190v43h124v-43h-124zM658 0h-128l-39 33h167v-33zM30 261v38h128v-38h-128zM534 261v38h124v-38h-124zM158 0h-128v33h128v-33zM534 332v34h124v-34h-124zM534 403v30h124v-30h-124zM30 483h126l12 -10h-138v10zM534 473v10h124v-10h-124z" />
    <glyph glyph-name="o" unicode="o" 
d="M658 99q-2 -26 -21 -50h-585q-19 23 -22 50h628zM639 433q7 -8 11 -15.5t6 -14.5h-626v30h609zM621 33q-17 -15 -39 -24t-41 -9h-394q-20 0 -41 9t-38 24h553zM158 136l11 -11h361v41h128v-47h-628v47h128v-30zM530 332v23h-372v-23h-128v34h628v-34h-128zM530 190v43
h128v-43h-128zM30 190v43h128v-43h-128zM30 483h527q16 0 35 -10h-562v10zM30 261v38h128v-38h-128zM530 261v38h128v-38h-128z" />
    <glyph glyph-name="FL0070h" unicode="p" 
d="M641 233q-8 -13 -19.5 -24t-24.5 -19h-567v43h611zM658 281q0 -12 -4 -20h-624v38h628v-18zM636 433q4 -7 7.5 -14.5t5.5 -15.5h-619v30h606zM158 358v-26h-128v34h626q1 -9 1.5 -17.5t0.5 -16.5h-126v19l-12 7h-362zM30 49v50h128v-50h-128zM30 119v47h128v-47h-128z
M30 483h513q29 0 50 -10h-563v10zM158 0h-128v33h128v-33z" />
    <glyph glyph-name="FL0051h" unicode="q" 
d="M52 49q-19 23 -22 50h628v-50h-606zM658 0h-2l21 -22h-160l-21 22h-349q-20 0 -41 9t-38 24h590v-33zM375 125l-39 41h161l33 -33v33h128v-47h-628v47h128v-30l11 -11h206zM639 433q7 -8 11 -15.5t6 -14.5h-626v30h609zM530 332v23h-372v-23h-128v34h628v-34h-128z
M313 190l-41 43h160l42 -43h-161zM30 190v43h128v-43h-128zM530 190v43h128v-43h-128zM30 473v10h527q16 0 35 -10h-562zM30 261v38h128v-38h-128zM530 261v38h128v-38h-128zM689 -34l24 -25h-159l-25 25h160z" />
    <glyph glyph-name="FL0073h" unicode="r" 
d="M641 233q-8 -13 -19.5 -24t-24.5 -19h-567v43h611zM658 281q0 -12 -4 -20h-624v38h628v-18zM636 433q4 -7 7.5 -14.5t5.5 -15.5h-619v30h606zM158 358v-26h-128v34h626q1 -9 1.5 -17.5t0.5 -16.5h-126v19l-12 7h-362zM446 49l-48 50h163l49 -50h-164zM379 119l-45 47h162
l46 -47h-163zM30 49v50h128v-50h-128zM30 119v47h128v-47h-128zM30 483h513q29 0 50 -10h-563v10zM625 33l33 -33h-165l-32 33h164zM158 0h-128v33h128v-33z" />
    <glyph glyph-name="s" unicode="s" horiz-adv-x="689" 
d="M658 99q-2 -25 -21 -50h-582q2 14 3.5 26.5t3.5 23.5h596zM94 190q-25 17 -43 43h598q9 -15 9 -31v-12h-564zM36 261q-5 11 -6 20v18h539q32 -10 59 -38h-592zM623 33q-15 -15 -32.5 -24t-33.5 -9h-507q0 10 3 33h570zM42 403q3 8 6 15t8 15h597q-2 -8 -2.5 -15t-1.5 -15
h-607zM530 125v41h128v-47h-593l2 6h463zM30 332v16q0 5 0.5 9t1.5 9h611q0 -3 -0.5 -5.5l-0.5 -2.5h-473l-11 -7v-19h-128zM100 473q21 10 47 10h512l-1 -10h-558z" />
    <glyph glyph-name="t" unicode="t" 
d="M30 403v30h628v-30h-628zM278 358h-248v8h628v-8h-252v-26h-128v26zM278 49v50h128v-50h-128zM30 473v10h628v-10h-628zM278 119v47h128v-47h-128zM278 190v43h128v-43h-128zM278 261v38h128v-38h-128zM406 0h-128v33h128v-33z" />
    <glyph glyph-name="FL0055h" unicode="u" 
d="M52 49q-19 23 -22 50h628v-50h-606zM147 0q-20 0 -41 9t-38 24h590v-33h-511zM158 136l11 -11h361v41h128v-47h-628v47h128v-30zM530 190v43h128v-43h-128zM30 190v43h128v-43h-128zM530 261v38h128v-38h-128zM30 261v38h128v-38h-128zM30 332v34h128v-34h-128zM530 332
v34h128v-34h-128zM30 403v30h128v-30h-128zM530 403v30h128v-30h-128zM158 483v-10h-128v10h128zM658 483v-10h-128v10h128z" />
    <glyph glyph-name="FL0076h" unicode="v" horiz-adv-x="708" 
d="M289 79l-14 20h403v-50h-365q-7 8 -13 15t-11 15zM553 127v39h125v-47h-416l-32 47h158l28 -39h137zM405 0q-20 0 -39 9.5t-36 23.5h348v-33h-273zM214 190l-29 43h156l30 -43h-157zM166 261l-26 38h154l27 -38h-155zM553 190v43h125v-43h-125zM118 332l-23 34h151
l24 -34h-152zM553 261v38h125v-38h-125zM70 403l-20 30h149l21 -30h-150zM553 332v34h125v-34h-125zM553 403v30h125v-30h-125zM16 483h148l7 -10h-148zM678 483v-10h-125v10h125z" />
    <glyph glyph-name="FL007Ch" unicode="w" horiz-adv-x="833" 
d="M571 233l3 -7l2 7h143l-17 -43h-257l-17 43h143zM253 233l3 -8l3 8h141l-17 -43h-256l-16 43h142zM415 269l-3 -8h-141l15 38h260l14 -38h-142zM472 119l-18 47h238l-18 -47h-202zM154 119l-18 47h238l-19 -47h-201zM498 49l-19 50h187l-20 -50h-148zM180 49l-19 50h186
l-20 -50h-147zM300 332l14 34h206l13 -34h-233zM587 261l14 38h144l-15 -38h-143zM100 261l-14 38h143l14 -38h-143zM329 403l12 30h154l11 -30h-177zM613 332l12 34h146l-13 -34h-145zM73 332l-13 34h146l12 -34h-145zM46 403l-11 30h147l11 -30h-147zM639 403l11 30h147
l-11 -30h-147zM517 0l-13 33h136l-13 -33h-110zM199 0l-13 33h135l-13 -33h-109zM16 483h149l3 -10h-148zM669 483h148l-4 -10h-148zM362 483h114l4 -10h-122z" />
    <glyph glyph-name="FL007Ah" unicode="x" horiz-adv-x="655" 
d="M171 190l35 43h237l36 -43h-308zM198 261l-31 38h318l-32 -38h-255zM434 49l-41 50h162l42 -50h-163zM56 49l41 50h160l-44 -50h-157zM113 119l39 47h163l-41 -47h-161zM377 119l-39 47h161l39 -47h-161zM351 332l28 34h162l-28 -34h-162zM140 332l-28 34h161l29 -34
h-162zM474 0l-27 33h163l28 -33h-164zM171 0h-155l27 33h156zM409 403l25 30h163l-25 -30h-163zM82 403l-25 30h158l26 -30h-159zM639 483l-9 -10h-163l8 10h164zM17 483h155l8 -10h-155z" />
    <glyph glyph-name="y" unicode="y" horiz-adv-x="654" 
d="M198 261l-31 38h317l-32 -38h-254zM256 190l-35 43h207l-36 -43h-136zM264 49v50h122v-50h-122zM264 119v47h122v-47h-122zM350 332l28 34h162l-29 -34h-161zM140 332l-28 34h160l29 -34h-161zM408 403l25 30h163l-25 -30h-163zM81 403l-24 30h157l26 -30h-159zM386 0
h-122v33h122v-33zM466 473l8 10h164l-9 -10h-163zM16 483h155l8 -10h-155z" />
    <glyph glyph-name="FL007Bh" unicode="z" horiz-adv-x="646" 
d="M30 49v50h586v-50h-586zM616 0h-586v33h586v-33zM30 403v30h586v-30h-586zM616 125v-6h-567l68 47h193l-59 -41h365zM395 358h-365v8h570l-49 -34h-194zM151 190l63 43h193l-62 -43h-194zM254 261l55 38h194l-55 -38h-194zM616 483v-10h-586v10h586z" />
    <glyph glyph-name="braceleft" unicode="{" horiz-adv-x="642" 
d="M147 403l3 6q12 17 19 24h333q11 -2 23 -3.5t15 -3.5h1q2 0 6 0.5t5 0.5v6h16l-4 -7v-2q1 -2 2.5 -3t2.5 -2l-1 -16h-421zM169 190l4 4q-1 0 -2.5 3l-1.5 3v4q1 6 7 12q1 2 3.5 6.5t6.5 10.5h223q4 -5 7 -10.5t8 -10.5q5 -6 10 -11.5t10 -10.5h-275zM244 332
q-2 8 -3.5 17t-4.5 17h217v-28q0 -2 -8 -4t-12 -2h-7v4q-2 10 -6 18q-6 -4 -13 -9.5t-12 -12.5h-151zM205 261l28 38h157v-34l1 -4h-186zM391 119q-3 5 -11.5 10.5t-13.5 8.5l-17 19q-2 1 -5 3t-8 6h128q5 -8 9.5 -15.5t6.5 -16.5v-15h-89zM270 166l-13 -13
q-11 -9 -22 -17.5t-22 -16.5h-109q6 2 7 2q0 1 3.5 3t8 4.5t8 5t4.5 4.5l7 15q1 2 8 13h120zM420 -43l1 9h60q6 -7 13.5 -12.5t14.5 -12t11.5 -14t4.5 -19.5v-1h-54q-5 6 -10.5 13.5t-14.5 12.5q-8 6 -17 9t-9 15zM408 49v4q0 5 1.5 11t1.5 12v5q-2 2 -8 7.5t-7 7.5
q-1 0 -2 3h87q1 -11 1.5 -20t0.5 -13v-17h-75zM124 33q0 -5 -0.5 -8l-0.5 -3q-2 -9 -7 -11.5t-13 -7.5q-11 -8 -12 -14.5t-9 -10.5h-49q-3 1 -3 5t2.5 10.5t5.5 9.5l29 30h57zM186 99q-6 -5 -12.5 -9t-13.5 -9q-5 -4 -6 -7t-7 -8q0 -2 -5.5 -7.5t-10.5 -9.5h-49q1 1 1 6v15
q0 5 1 6q1 0 8.5 8.5t7.5 9.5l0.5 1.5t1.5 3.5h84zM222 473q3 1 12 3.5t19 6t19.5 8t13.5 9.5h35q5 -17 24 -17h4l13 9q7 0 12.5 -6t7.5 -6t5.5 3.5t4.5 3.5l1 7q0 2 2 2q3 0 7.5 -3t9.5 -7l10 -8t9 -5h-209zM422 -22l2 17q0 6 -1 7t-3 1q-1 0 -3 1.5t-3 7.5v21h69v-8
q-8 -5 -10 -13.5t-2 -16.5q0 -10 3 -17h-52zM276 544v2q8 2 12.5 8t9.5 12h79q8 -10 11 -22h-112zM521 -101q-5 -3 -10.5 -3.5t-10.5 -0.5q-12 0 -19 4h40zM377 500q-3 -1 -8 -1h-7h-2q-9 0 -12 1h29z" />
    <glyph glyph-name="FL007Eh" unicode="|" horiz-adv-x="188" 
d="M30 -93v59h128v-59h-128zM30 -22v55h128v-55h-128zM30 49v50h128v-50h-128zM30 119v47h128v-47h-128zM30 190v43h128v-43h-128zM30 261v38h128v-38h-128zM30 332v34h128v-34h-128zM30 403v30h128v-30h-128zM30 473v27h128v-27h-128zM30 544v22h128v-22h-128zM158 -114
h-128v13h128v-13z" />
    <glyph glyph-name="FL007Dh" unicode="}" horiz-adv-x="642" 
d="M492 409l2 -6h-420l-1 16q1 1 2.5 2t2.5 3v2l-5 7h17v-6q1 0 5 -0.5t6 -0.5h1q2 2 14 3.5t23 3.5h334q5 -5 9.5 -11t9.5 -13zM469 194q0 -2 2 -4h-274l10.5 10.5t10.5 11.5q4 5 7.5 10.5t6.5 10.5h223q8 -12 11 -17t7 -12v-4l-1.5 -3t-2.5 -3zM405 366q-2 -8 -4 -17
t-4 -17h-150q-5 7 -12 12.5t-13 9.5q-5 -8 -6 -18v-4h-7q-4 0 -12 2t-8 4v28h216zM250 261l2 4v34h157l27 -38h-186zM276 138q-5 -3 -14 -8.5t-12 -10.5h-89q1 3 1 9v6q4 15 15 32h128q-11 -8 -12 -9zM385 153q-2 1 -14 13h119q5 -5 7 -8.5t3 -4.5l7 -15q1 -2 4.5 -4.5t8 -5
t8 -4.5t3.5 -3q4 0 6 -2h-108q-11 8 -22 16.5t-22 17.5zM222 -43q0 -12 -9 -15t-17 -9q-9 -5 -14.5 -12.5t-11.5 -13.5h-53v1q0 11 4.5 19t11.5 14.5t14 12t13 12.5h61zM234 53v-4h-75v17q0 4 0.5 13t0.5 20h87q0 -2 -0.5 -2.5l-0.5 -0.5q-1 -2 -7 -7.5t-8 -7.5v-5
q0 -6 1.5 -12t1.5 -11zM519 22l-0.5 3t-1.5 8h57l30 -30q3 -3 5.5 -9.5t2.5 -10.5t-3 -5h-50q-8 4 -9.5 10.5t-10.5 14.5q-8 5 -13 7.5t-7 11.5zM482 81l-27 18h84q2 -5 3 -5q0 -1 7.5 -9.5t8.5 -8.5q1 -1 1 -6v-15q0 -2 -0.5 -3t0.5 -3h-48q-5 4 -10.5 9.5t-5.5 7.5
q-6 5 -7 8t-6 7zM355 500q4 -5 13.5 -9.5t20 -8t19.5 -6t12 -3.5h-209q4 1 9 5l10 8t9.5 7t7.5 3q2 0 2 -2l1 -7q1 0 4.5 -3.5t5.5 -3.5t7.5 6t12.5 6l13 -9h4q7 0 14 4.5t9 12.5h35zM221 3q-1 0 -2 -1t-1 -7l2 -17h-53q4 9 4 17t-2 16.5t-10 13.5v8h69v-21q-1 -6 -3 -7.5
t-4 -1.5zM343 566l10 -12t13 -8v-2h-112q3 12 11 22h78zM142 -105q-5 0 -11 0.5t-10 3.5h39q-9 -4 -18 -4zM280 499h-8q-5 0 -8 1h30q-3 -1 -12 -1h-2z" />
    <glyph glyph-name="FL00BBh" unicode="~" horiz-adv-x="707" 
d="M434 79q-5 -8 -11 -15t-14 -15h-379v50h416zM156 127h151l26 39h156l-30 -47h-429v47h126v-39zM392 33q-17 -14 -35.5 -23.5t-38.5 -9.5h-288v33h362zM349 190l28 43h155l-28 -43h-155zM396 261l25 38h153l-24 -38h-154zM30 190v43h126v-43h-126zM443 332l23 34h150
l-21 -34h-152zM30 261v38h126v-38h-126zM490 403l20 30h149l-19 -30h-150zM30 332v34h126v-34h-126zM30 403v30h126v-30h-126zM537 473l7 10h147l-7 -10h-147zM30 473v10h126v-10h-126z" />
    <glyph glyph-name="FL007Fh" horiz-adv-x="146" 
 />
    <glyph glyph-name="FL20ACh" horiz-adv-x="771" 
d="M730 99q2 -11 3.5 -24t3.5 -26h-569q-9 11 -15.5 23.5t-8.5 26.5h586zM270 232h228q0 -6 -2.5 -17.5t-5.5 -24.5h-459v42h111v1h128v-1zM736 433q-2 -8 -2.5 -15t-1.5 -15h-590v30h594zM738 33q3 -21 3 -33h-482q-20 0 -39.5 9t-36.5 24h555zM491 299q-3 -11 -5.5 -21
t-4.5 -17h-451v38h461zM483 166q-2 -7 -4 -12l-2 -5h-207v-10l8 -14h445l1 -2l2 -4h-584v30h-111v17h452zM725 366l-2 -8h-453v-26h-128v34h583zM142 473v10h599q0 -7 -1 -10h-598z" />
    <glyph glyph-name="FL20ACh" unicode="&#x20ac;" horiz-adv-x="771" 
d="M730 99q2 -11 3.5 -24t3.5 -26h-569q-9 11 -15.5 23.5t-8.5 26.5h586zM270 232h228q0 -6 -2.5 -17.5t-5.5 -24.5h-459v42h111v1h128v-1zM736 433q-2 -8 -2.5 -15t-1.5 -15h-590v30h594zM738 33q3 -21 3 -33h-482q-20 0 -39.5 9t-36.5 24h555zM491 299q-3 -11 -5.5 -21
t-4.5 -17h-451v38h461zM483 166q-2 -7 -4 -12l-2 -5h-207v-10l8 -14h445l1 -2l2 -4h-584v30h-111v17h452zM725 366l-2 -8h-453v-26h-128v34h583zM142 473v10h599q0 -7 -1 -10h-598z" />
    <glyph glyph-name="FL201Ah" unicode="&#x201a;" horiz-adv-x="186" 
d="M156 0l-22 -22h-104v55h126v-33zM30 49v50h126v-50h-126zM103 -54h-73v20h92zM156 125v-6h-126v6h126z" />
    <glyph glyph-name="FL0077h" unicode="&#x192;" horiz-adv-x="794" 
d="M30 190v43h126v-11l7 11h152l-28 -43h-257zM632 233l7 -11v11h125v-43h-257l-27 43h152zM30 119v47h242l-30 -47h-212zM552 119l-30 47h242v-47h-212zM398 364l-21 -32h-151l22 34h298l22 -34h-150zM30 49v50h199l-31 -50h-168zM597 49l-32 50h199v-50h-167zM271 403
l20 30h212l19 -30h-251zM181 261l24 38h151l-24 -38h-151zM463 261l-24 38h150l25 -38h-151zM167 0h-137v33h158zM764 0h-136l-21 33h157v-33zM30 261v38h126v-38h-126zM639 261v38h125v-38h-125zM30 332v34h126v-34h-126zM639 332v34h125v-34h-125zM30 403v30h126v-30h-126
zM639 403v30h125v-30h-125zM316 473l7 10h148l6 -10h-161zM30 473v10h126v-10h-126zM639 473v10h125v-10h-125z" />
    <glyph glyph-name="FL201Eh" unicode="&#x201e;" horiz-adv-x="344" 
d="M314 0l-22 -22h-104v55h126v-33zM156 0l-22 -22h-104v55h126v-33zM188 49v50h126v-50h-126zM30 49v50h126v-50h-126zM261 -54h-73v20h92zM103 -54h-73v20h92zM314 125v-6h-126v6h126zM156 125v-6h-126v6h126z" />
    <glyph glyph-name="FL2026h" unicode="&#x2026;" horiz-adv-x="488" 
d="M332 49v50h126v-50h-126zM30 49v50h126v-50h-126zM181 49v50h126v-50h-126zM156 0h-126v33h126v-33zM307 0h-126v33h126v-33zM458 0h-126v33h126v-33zM332 125h126v-6h-126v6zM30 125h126v-6h-126v6zM181 125h126v-6h-126v6z" />
    <glyph glyph-name="FL2020h" unicode="&#x2020;" horiz-adv-x="416" 
d="M385 366q-1 -8 -2 -16.5t-3 -17.5h-349v34h354zM376 299q-2 -13 -4 -22l-2 -9h-99v-7h-128v7h-112v31h345zM143 49v50h128v-50h-128zM143 119v47h128v-47h-128zM143 190v43h128v-43h-128zM271 0h-128v33h128v-33zM143 403v30h128v-30h-128zM143 483h128v-10h-128v10z" />
    <glyph glyph-name="FL2021h" unicode="&#x2021;" horiz-adv-x="416" 
d="M382 166q-2 -13 -3.5 -24.5t-3.5 -22.5h-344v47h351zM385 366q-1 -8 -2 -16.5t-3 -17.5h-349v34h354zM376 299q-2 -13 -4 -22l-2 -9h-99v-7h-128v7h-112v31h345zM271 216h116q0 -5 -0.5 -11.5t-1.5 -14.5h-354v26h112v17h128v-17zM372 99l-2 -8h-99v-42h-128v42h-112v8
h341zM271 0h-128v33h128v-33zM143 403v30h128v-30h-128zM143 483h128v-10h-128v10z" />
    <glyph glyph-name="FL02C6h" unicode="&#x2c6;" horiz-adv-x="348" 
d="M35 403l13 30h122l-11 -30h-124zM190 403l-11 30h120l13 -30h-122zM278 483l4 -10h-217l5 10h208zM206 358l-3 8h125l4 -8h-126zM142 358h-126l3 8h126z" />
    <glyph glyph-name="FL2030h" unicode="&#x2030;" horiz-adv-x="1125" 
d="M876 82h123v17h96v-50h-314v50h95v-17zM545 82h123v17h96v-50h-314v50h95v-17zM764 191v-1h-314q1 13 9.5 24t20.5 19h254q12 -7 21 -18t9 -24zM1095 191v-1h-314q1 13 9.5 24t20.5 19h254q12 -7 21 -18t9 -24zM344 288q0 -14 -13 -27h-301v38h314v-11zM876 152v-33h-95
v47h314v-47h-96v37h-119zM545 152v-33h-95v47h314v-47h-96v37h-119zM781 0v33h310q-7 -13 -21 -23t-25 -10h-264zM450 0v33h310q-7 -13 -21 -23t-25 -10h-264zM344 432v-29h-314v26v4h314v-1zM140 49l47 50h154l-47 -50h-154zM206 119l44 47h154l-44 -47h-154zM273 190
l40 43h154l-40 -43h-154zM340 261l36 38h154l-36 -38h-154zM407 332l32 34h154l-32 -34h-154zM248 0h-154l31 33h154zM474 403l28 30h154l-28 -30h-154zM248 332v34h96v-34h-96zM30 332v34h95v-34h-95zM286 482q15 0 30 -9h-257q7 4 14.5 6.5t15.5 2.5h197zM550 483h154
l-10 -10h-154z" />
    <glyph glyph-name="FL0160h" unicode="&#x160;" horiz-adv-x="689" 
d="M658 99q-2 -25 -21 -50h-582q2 14 3.5 26.5t3.5 23.5h596zM94 190q-25 17 -43 43h598q9 -15 9 -31v-12h-564zM36 261q-5 11 -6 20v18h539q32 -10 59 -38h-592zM623 33q-15 -15 -32.5 -24t-33.5 -9h-507q0 10 3 33h570zM42 403q3 8 6 15t8 15h597q-2 -8 -2.5 -15t-1.5 -15
h-607zM530 125v41h128v-47h-593l2 6h463zM30 332v16q0 5 0.5 9t1.5 9h611q0 -3 -0.5 -5.5l-0.5 -2.5h-473l-11 -7v-19h-128zM100 473q21 10 47 10h512l-1 -10h-558zM349 615l7 18h124l-8 -18h-123zM216 615l-8 18h122l7 -18h-121zM448 559h-208l-3 7h214z" />
    <glyph glyph-name="FL2039h" unicode="&#x2039;" horiz-adv-x="185" 
d="M30 137v29h125v-47h-84zM92 233l63 -24v-19h-125v43h62zM155 273l-34 -12h-91v38h125v-26zM30 332v13l48 21h77v-34h-125zM155 83l-37 16h37v-16z" />
    <glyph glyph-name="FL0152h" unicode="&#x152;" horiz-adv-x="1159" 
d="M1118 99q2 -11 3.5 -24t3.5 -26h-1069q-9 11 -15.5 23.5t-8.5 26.5h1086zM1126 33q3 -21 3 -33h-982q-20 0 -39.5 9t-36.5 24h1055zM1124 433q-2 -8 -2.5 -15t-1.5 -15h-1090v30h1094zM1082 233q-2 -13 -3 -24t-3 -19h-577v43h583zM1090 299q-1 -7 -1.5 -16.5t-2.5 -21.5
h-587v38h591zM158 139l8 -14h333v41h128v-27l8 -14h476l2 -6h-1083v47h128v-27zM1113 366l-2 -8h-484v-26h-128v26h-341v-26h-128v34h1083zM30 483h1099q0 -7 -1 -10h-1098v10zM30 190v43h128v-43h-128zM30 261v38h128v-38h-128z" />
    <glyph glyph-name="FL017Dh" horiz-adv-x="646" 
d="M30 49v50h586v-50h-586zM616 0h-586v33h586v-33zM30 403v30h586v-30h-586zM251 125h365v-6h-567l68 47h193zM357 332l38 26h-365v8h570l-49 -34h-194zM151 190l63 43h193l-62 -43h-194zM254 261l55 38h194l-55 -38h-194zM30 473v10h586v-10h-586zM322 615l7 18h124
l-8 -18h-123zM189 615l-8 18h122l7 -18h-121zM421 559h-208l-3 7h214z" />
    <glyph glyph-name="FL017Dh" unicode="&#x17d;" horiz-adv-x="646" 
d="M30 49v50h586v-50h-586zM616 0h-586v33h586v-33zM30 403v30h586v-30h-586zM251 125h365v-6h-567l68 47h193zM357 332l38 26h-365v8h570l-49 -34h-194zM151 190l63 43h193l-62 -43h-194zM254 261l55 38h194l-55 -38h-194zM30 473v10h586v-10h-586zM322 615l7 18h124
l-8 -18h-123zM189 615l-8 18h122l7 -18h-121zM421 559h-208l-3 7h214z" />
    <glyph glyph-name="FL2018h" unicode="&#x2018;" horiz-adv-x="260" 
d="M230 419v-16h-147l-25 30h161q5 -7 8 -10.5zM133 344l-19 22h116v-22h-97zM16 483h160q2 -3 9 -10h-161z" />
    <glyph glyph-name="FL2019h" unicode="&#x2019;" horiz-adv-x="260" 
d="M30 403v16l2.5 3.5t8.5 10.5h161l-26 -30h-146zM127 344h-97v22h115zM244 483l-9 -10h-160q7 7 9 10h160z" />
    <glyph glyph-name="FL201Ch" unicode="&#x201c;" horiz-adv-x="454" 
d="M230 419v-16h-147l-25 30h160zM424 419v-16h-147l-25 30h160zM133 344l-19 22h116v-22h-97zM327 344l-19 22h116v-22h-97zM210 483h160l8 -10h-160zM16 483h160l8 -10h-160z" />
    <glyph glyph-name="FL201Dh" unicode="&#x201d;" horiz-adv-x="454" 
d="M30 403v16l12 14h160l-26 -30h-146zM224 403v16l12 14h160l-26 -30h-146zM321 344h-97v22h115zM127 344h-97v22h115zM438 483l-9 -10h-160l9 10h160zM244 483l-9 -10h-160l9 10h160z" />
    <glyph glyph-name="FL2022h" unicode="&#x2022;" horiz-adv-x="432" 
d="M30 190v43h372v-43h-372zM30 136v30h372v-41h-361zM30 261v38h372v-38h-372zM402 355v-23h-372v23h372z" />
    <glyph glyph-name="FL2013h" unicode="&#x2013;" horiz-adv-x="416" 
d="M378 233q-2 -13 -3 -24t-3 -19h-342v43h348zM386 299q-1 -7 -1.5 -17t-2.5 -21h-352v38h356z" />
    <glyph glyph-name="FL2014h" unicode="&#x2014;" horiz-adv-x="482" 
d="M444 233q-2 -13 -3 -24t-3 -19h-408v43h414zM452 299q-1 -7 -1.5 -17t-2.5 -21h-418v38h422z" />
    <glyph glyph-name="FL02DCh" unicode="&#x2dc;" horiz-adv-x="447" 
d="M173 403l-11 30h112l11 -30h-112zM34 403l12 30h112l-11 -30h-113zM288 403l11 30h113l-12 -30h-112zM382 357h-192l-4 9h199zM62 473l4 9h190l3 -9h-197zM130 356h-114l4 10h113zM314 473l3 9h114l-4 -9h-113z" />
    <glyph glyph-name="FL2122h" unicode="&#x2122;" horiz-adv-x="638" 
d="M129 479h-99v21h251v-21h-101v-6h-51v6zM490 336h-58l-20 30h97zM517 473l17 27h74v-27h-91zM314 473v27h72l18 -27h-90zM388 403l-20 30h61l20 -30h-61zM473 403l19 30h61l-20 -30h-60zM129 403v30h51v-30h-51zM180 336h-51v30h51v-30zM364 336h-50v30h50v-30zM314 403
v30h50v-30h-50zM558 403v30h50v-30h-50zM608 336h-50v30h50v-30z" />
    <glyph glyph-name="FL0161h" unicode="&#x161;" horiz-adv-x="689" 
d="M658 99q-2 -25 -21 -50h-582q2 14 3.5 26.5t3.5 23.5h596zM94 190q-25 17 -43 43h598q9 -15 9 -31v-12h-564zM36 261q-5 11 -6 20v18h539q32 -10 59 -38h-592zM623 33q-15 -15 -32.5 -24t-33.5 -9h-507q0 10 3 33h570zM42 403q3 8 6 15t8 15h597q-2 -8 -2.5 -15t-1.5 -15
h-607zM530 125v41h128v-47h-593l2 6h463zM30 332v16q0 5 0.5 9t1.5 9h611q0 -3 -0.5 -5.5l-0.5 -2.5h-473l-11 -7v-19h-128zM100 473q21 10 47 10h512l-1 -10h-558zM349 615l7 18h124l-8 -18h-123zM216 615l-8 18h122l7 -18h-121zM448 559h-208l-3 7h214z" />
    <glyph glyph-name="FL203Ah" unicode="&#x203a;" horiz-adv-x="185" 
d="M154 137l-42 -18h-83v47h125v-29zM29 190v19l62 24h63v-43h-125zM29 273v26h125v-38h-92zM154 345v-13h-125v34h76zM29 83v16h37z" />
    <glyph glyph-name="FL0153h" unicode="&#x153;" horiz-adv-x="1159" 
d="M1118 99q2 -11 3.5 -24t3.5 -26h-1069q-9 11 -15.5 23.5t-8.5 26.5h1086zM1126 33q3 -21 3 -33h-982q-20 0 -39.5 9t-36.5 24h1055zM1124 433q-2 -8 -2.5 -15t-1.5 -15h-1090v30h1094zM1082 233q-2 -13 -3 -24t-3 -19h-577v43h583zM1090 299q-1 -7 -1.5 -16.5t-2.5 -21.5
h-587v38h591zM158 139l8 -14h333v41h128v-27l8 -14h476l2 -6h-1083v47h128v-27zM1113 366l-2 -8h-484v-26h-128v26h-341v-26h-128v34h1083zM30 483h1099q0 -7 -1 -10h-1098v10zM30 190v43h128v-43h-128zM30 261v38h128v-38h-128z" />
    <glyph glyph-name="FL017Eh" horiz-adv-x="646" 
d="M30 49v50h586v-50h-586zM616 0h-586v33h586v-33zM30 403v30h586v-30h-586zM251 125h365v-6h-567l68 47h193zM357 332l38 26h-365v8h570l-49 -34h-194zM151 190l63 43h193l-62 -43h-194zM254 261l55 38h194l-55 -38h-194zM30 473v10h586v-10h-586zM322 615l7 18h124
l-8 -18h-123zM189 615l-8 18h122l7 -18h-121zM421 559h-208l-3 7h214z" />
    <glyph glyph-name="FL017Eh" unicode="&#x17e;" horiz-adv-x="646" 
d="M30 49v50h586v-50h-586zM616 0h-586v33h586v-33zM30 403v30h586v-30h-586zM251 125h365v-6h-567l68 47h193zM357 332l38 26h-365v8h570l-49 -34h-194zM151 190l63 43h193l-62 -43h-194zM254 261l55 38h194l-55 -38h-194zM30 473v10h586v-10h-586zM322 615l7 18h124
l-8 -18h-123zM189 615l-8 18h122l7 -18h-121zM421 559h-208l-3 7h214z" />
    <glyph glyph-name="FL0178h" unicode="&#x178;" horiz-adv-x="654" 
d="M198 261l-31 38h317l-32 -38h-254zM256 190l-35 43h207l-36 -43h-136zM264 49v50h122v-50h-122zM264 119v47h122v-47h-122zM350 332l28 34h162l-29 -34h-161zM140 332l-28 34h160l29 -34h-161zM408 403l25 30h163l-25 -30h-163zM81 403l-24 30h157l26 -30h-159zM386 0
h-122v33h122v-33zM166 615v18h126v-18h-126zM356 615v18h126v-18h-126zM638 483l-9 -10h-163l8 10h164zM16 483h155l8 -10h-155zM482 561h-126v5h126v-5zM292 561h-126v5h126v-5z" />
    <glyph glyph-name="space" unicode="&#xa0;" horiz-adv-x="247" 
 />
    <glyph glyph-name="FL00A1h" unicode="&#xa1;" horiz-adv-x="188" 
d="M30 49v50h128v-50h-128zM30 119v47h128v-47h-128zM30 190v43h128v-43h-128zM30 261v38h128v-38h-128zM158 0h-128v33h128v-33zM30 403v30h128v-30h-128zM30 473v10h128v-10h-128zM158 358h-128v8h128v-8z" />
    <glyph glyph-name="FL00A2h" unicode="&#xa2;" horiz-adv-x="690" 
d="M649 99q2 -11 3.5 -24t3.5 -26h-600q-9 11 -15.5 23.5t-8.5 26.5h617zM657 33q3 -21 3 -33h-223v-22h-128v22h-162q-20 0 -39.5 9t-36.5 24h586zM655 433q-2 -8 -2.5 -15t-1.5 -15h-621v30h625zM158 139l8 -14h143v41h128v-41h205l2 -6h-614v47h128v-27zM644 366l-2 -8
h-205v-26h-128v26h-151v-26h-128v34h614zM30 483h279v17h128v-17h223q0 -7 -1 -10h-629v10zM309 -93v59h128v-59h-128zM30 190v43h128v-43h-128zM309 190v43h128v-43h-128zM309 261v38h128v-38h-128zM30 261v38h128v-38h-128zM309 544v22h128v-22h-128zM437 -114h-128v13
h128v-13z" />
    <glyph glyph-name="FL00A3h" unicode="&#xa3;" horiz-adv-x="715" 
d="M674 99q2 -11 3.5 -24t3.5 -26h-651v50h644zM550 233q-2 -13 -3 -24t-3 -19h-514v43h520zM682 33q3 -21 3 -33h-655v33h652zM558 299q-1 -7 -1.5 -16.5t-2.5 -21.5h-524v38h528zM312 139l8 -14h347l2 -6h-639v6h154v41h128v-27zM446 433q-2 -8 -2.5 -15t-1.5 -15h-258v30
h262zM435 366l-2 -8h-121v-26h-128v34h251zM184 473v10h267q0 -7 -1 -10h-266z" />
    <glyph glyph-name="FL00A4h" unicode="&#xa4;" horiz-adv-x="655" 
d="M275 120l-1 -1h-161l39 47h347l39 -47h-161l-1 1h-101zM277 361h98l4 5h163l-29 -34h-373l-28 34h160zM480 292v-31h-96v15h-119l-4 -4v-11h-95v38h320zM261 202h123v31h96v-43h-314v43h95v-31zM434 49l-41 50h162l42 -50h-163zM56 49l41 50h160l-44 -50h-157zM474 0
l-27 33h163l28 -33h-164zM171 0h-155l27 33h156zM409 403l25 30h163l-25 -30h-163zM82 403l-25 30h158l26 -30h-159zM639 483l-9 -10h-163l8 10h164zM17 483h155l8 -10h-155z" />
    <glyph glyph-name="FL00A5h" unicode="&#xa5;" horiz-adv-x="654" 
d="M561 99l-8 -28t-6 -22h-449v50h463zM97 225h130l-7 8h208l-6 -8h142q0 -5 -2 -14.5t-5 -20.5h-460v35zM551 166q-2 -10 -4.5 -17t-3.5 -7h-157v-17h179q0 -5 -1 -6h-466v6h166v17h-167v24h454zM197 261l-31 38h318l-32 -38h-255zM139 332l-28 34h161l29 -34h-162z
M350 332l28 34h162l-29 -34h-161zM408 403l25 30h163l-25 -30h-163zM81 403l-25 30h158l26 -30h-159zM386 0h-122v33h122v-33zM466 473l8 10h164l-9 -10h-163zM16 483h155l8 -10h-155z" />
    <glyph glyph-name="FL00A6h" unicode="&#xa6;" horiz-adv-x="188" 
d="M30 49v50h128v-50h-128zM30 119v47h128v-47h-128zM30 261v38h128v-38h-128zM30 332v34h128v-34h-128zM158 0h-128v33h128v-33zM30 403v30h128v-30h-128zM30 211h128v-21h-128v21zM30 483h128v-10h-128v10z" />
    <glyph glyph-name="FL00A7h" unicode="&#xa7;" horiz-adv-x="655" 
d="M275 120l-1 -1h-161l39 47h328v-46h-205zM166 360h209l5 6h162l-29 -34h-347v28zM480 292v-31h-96v15h-119l-4 -4v-11h-95v38h320zM261 202h123v31h96v-43h-314v43h95v-31zM56 49l41 50h160l-44 -50h-157zM171 0h-155l27 33h156zM410 403l24 30h163l-25 -30h-162z
M639 483l-9 -10h-163l8 10h164z" />
    <glyph glyph-name="FL00A8h" unicode="&#xa8;" horiz-adv-x="376" 
d="M30 403v30h126v-30h-126zM220 403v30h126v-30h-126zM346 483v-10h-126v10h126zM156 483v-10h-126v10h126zM346 358h-126v8h126v-8zM156 358h-126v8h126v-8z" />
    <glyph glyph-name="copyright" unicode="&#xa9;" horiz-adv-x="260" 
d="M131 489q-23 0 -30 -16h-19q8 20 26 27h44q17 -8 23 -27h-17q-10 16 -27 16zM80 361l-4.5 3t-2.5 2h47q3 -1 10 -1q10 0 13 1h43q-4 -4 -7 -5q-23 -9 -35.5 -11t-13.5 -2q-25 0 -50 13zM162 432l16 -5q-4 -15 -13 -24h-71q-12 10 -15 30h18q5 -26 32 -26t33 25zM40 403
q-8 13 -9 30h17q2 -14 10 -26l1.5 -3l0.5 -1h-20zM228 433q-2 -15 -10 -30h-19q1 1 1.5 2t1.5 2q3 6 5.5 12.5t3.5 13.5h17zM43 497q0 1 0.5 1.5t0.5 1.5h21q-6 -8 -7 -11q-2 -4 -3.5 -8t-3.5 -8h-18q4 10 10 24zM216 497q3 -6 5.5 -12t4.5 -12h-17q-5 16 -15 27h20
q1 -1 1 -2zM130 547q13 0 25 -3h-49q12 3 24 3z" />
    <glyph glyph-name="FL00AEh" unicode="&#xaa;" horiz-adv-x="394" 
d="M297 332v15h-147l-11 -15h-81l22 34h284v-34h-67zM203 433q-4 -5 -6.5 -10t-4.5 -8h105v18h67v-30h-260l20 30h79zM149 473l11 16q1 3 8 11h196v-27h-215zM30 288l7 11h79l-7 -11h-79zM364 288h-67v11h67v-11z" />
    <glyph glyph-name="FL00ABh" unicode="&#xab;" horiz-adv-x="347" 
d="M192 137v29h125v-47h-84zM30 137v29h125v-47h-84zM254 233l63 -24v-19h-125v43h62zM92 233l63 -24v-19h-125v43h62zM155 273l-34 -12h-91v38h125v-26zM317 273l-34 -12h-91v38h125v-26zM30 332v13l48 21h77v-34h-125zM192 332v13l48 21h77v-34h-125zM317 83l-37 16h37
v-16zM155 83l-37 16h37v-16z" />
    <glyph glyph-name="FL00ACh" unicode="&#xac;" horiz-adv-x="416" 
d="M30 190v43h356v-43h-356zM30 261v38h356v-38h-356zM261 119v47h125v-47h-125zM386 61h-125v38h125v-38z" />
    <glyph glyph-name="FL00ADh" unicode="&#xad;" horiz-adv-x="349" 
d="M311 233q-2 -13 -3 -24t-3 -19h-275v43h281zM319 299q-1 -7 -1.5 -17t-2.5 -21h-285v38h289z" />
    <glyph glyph-name="registered" unicode="&#xae;" horiz-adv-x="260" 
d="M169 474v-1h-18q0 11 -10 15q-1 1 -18 1h-19v-16h-17v27h64q7 -3 12 -9q6 -8 6 -17zM80 365q-1 0 -2 1h103q0 -1 -2 -1q-20 -10 -34 -11.5t-15 -1.5q-28 0 -50 13zM146 413q-4 7 -7 12t-6 8h19q2 -3 4.5 -6.5t6.5 -8.5l10 -15h-22zM42 403q-8 17 -11 30h19q2 -5 4 -10.5
t4 -12.5q2 -6 4 -7h-20zM228 433q-3 -15 -12 -30h-20q5 5 6 7q2 7 3.5 12.5t3.5 10.5h19zM87 403v30h17v-30h-17zM32 473q2 7 4.5 13t5.5 14h20q-3 -3 -4 -7q-5 -9 -8 -20h-18zM216 500q8 -17 11 -27h-17q-2 7 -5 14t-8 13h19zM130 551q9 0 18.5 -1.5t17.5 -5.5h-73
q17 7 37 7z" />
    <glyph glyph-name="FL00AFh" unicode="&#xaf;" horiz-adv-x="536" 
d="M30 403v30h476v-30h-476zM506 483v-10h-476v10h476zM506 358h-476v8h476v-8z" />
    <glyph glyph-name="FL00B1h" unicode="&#xb0;" horiz-adv-x="186" 
d="M30 403v30h126v-30h-126zM156 483v-10h-126v10h126zM156 358h-126v8h126v-8z" />
    <glyph glyph-name="FL00B9h" unicode="&#xb1;" horiz-adv-x="416" 
d="M30 49v50h356v-50h-356zM386 267h-115v-6h-125v6h-116v32h356v-32zM30 332v34h356v-34h-356zM386 0h-356v33h356v-33zM146 190v43h125v-43h-125zM146 403v30h125v-30h-125zM30 125h356v-6h-356v6zM271 483v-10h-125v10h125z" />
    <glyph glyph-name="FL00B2h" unicode="&#xb2;" horiz-adv-x="374" 
d="M344 427q-2 -9 -11 -24h-300q9 16 29 30h282v-6zM332 500q4 -6 6 -13l4 -14h-306q-2 16 -3 27h299zM323 354l1.5 -6.5t3.5 -15.5h-298v34h68v-12h225zM334 288h-304v11h303q0 -4 0.5 -6.5t0.5 -4.5z" />
    <glyph glyph-name="FL00B3h" unicode="&#xb3;" horiz-adv-x="374" 
d="M344 433q-1 -4 -5.5 -12t-7.5 -13q1 -2 1.5 -2.5t1.5 -2.5h-304v30h314zM335 500q7 -15 8 -27h-313v27h305zM30 354h242l4 2v10h68v-26q0 -7 -1 -8h-313v22zM326 299q-14 -11 -34 -11h-262v11h296z" />
    <glyph glyph-name="FL00B4h" unicode="&#xb4;" horiz-adv-x="248" 
d="M49 403l13 30h131l-15 -30h-129zM218 483l-5 -10h-134l5 10h134zM156 358h-126l3 8h127z" />
    <glyph glyph-name="FL00B6h" unicode="&#xb5;" horiz-adv-x="878" 
d="M149 73v22l3 4h31l-17 -13l150 -7l-12 -30h-17l2 11zM728 410v-7h-17l1 1h-146l7 29h17l-2 -11h129zM668 95l-38 -46h-21l36 50h59l24 -9v9h18l-1 -13q-6 -14 -21 -14q-13 0 -23.5 5.5t-26.5 14.5zM506 190q2 11 4 21.5t6 21.5h70v-43h-14q-9 24 -22 24q-11 0 -23 -24
h-21zM418 233l13 -15l1 15h18v-43h-22q-15 12 -36 42v-42h-17v43h43zM78 134q-16 0 -16 23l10 9h34l-28 -14l131 -33h-58zM751 157l-4 -38h-18l3 47h51l22 -4v4h16q-1 -16 -16 -22zM279 196q0 20 3 37h16v-1v-7q0 -26 15 -26q9 0 25 10q7 12 8 24h14q-6 -33 -16 -43h-62z
M817 336v-4h-21l-3 5l-117 29h64l77 -23v-7zM35 218l-3 15h20l73 -43h-35zM646 233l10 -12v12h19v-43h-16q-15 10 -39 43h26zM586 264v-3h-26l-4 12l-6 -12h-23q4 8 9 17t10 17q1 3 13 3q17 0 27 -34zM325 290q29 0 37 -29h-25q-5 5 -11 5q-7 0 -12 -5h-23q5 9 10.5 16.5
t13.5 12.5h10zM555 60l-19 -11h-35l54 30l39 -30h-29zM452 1l-17 6v26h15l-3 -14l25 14h36zM784 299q55 -25 62 -38h-24l-68 38h30zM272 294l-2 -27q-2 2 -3.5 2.5l-1.5 0.5q0 1 -5 1q-11 0 -22 -10h-29q16 24 63 33zM491 191l-4 -1h-19l4 43h21zM836 229h-48l25 -39h-15
q-7 14 -30 43h70zM353 49l82 17l12 -17h-94zM167 190l3 43h18l-2 -43h-19zM202 226v6v1h21q-3 -11 -3 -21q0 -21 20 -21q15 0 18 3v-4h-46q-6 10 -9 28q-1 1 -1 8zM322 433l6 -4l7 4h29l-42 -23l-28 23h28zM126 332v18v8t1 8h23l-4 -34h-20zM221 403q12 18 21 30h26l-25 -30
h-22zM300 19l-17 12v2h99zM725 290l-4 -29h-21l2 35zM602 190v43h16v-43h-16zM497 296l-2 -35h-20l3 29zM77 299l1 -4l24 -34h-15l-27 38h17zM675 290v-29h-18l2 35zM192 290l-2 -29h-17l2 26zM450 286v-25h-17l2 29zM151 416h3l32 -13h-51q6 13 16 13zM435 422l-1 11h66z
M715 212l-16 2v19h18zM602 261v29l22 -29h-22zM375 261v25l20 -25h-20zM588 24l-9 9h38l-1 -2zM408 473l18 10l10 -10h-28zM61 332l1 5l53 -5h-54zM702 162l-4 4h7z" />
    <glyph glyph-name="FL0072h" unicode="&#xb6;" 
d="M158 121v-2h-128v47h607q-11 -19 -30 -32t-50 -13h-5l1 -2h-161l-1 2h-233zM658 224q-3 -19 -10 -34h-618v43h628v-9zM632 433q5 -8 8.5 -15.5t5.5 -14.5h-616v30h602zM158 358v-26h-128v34h625q3 -18 3 -34h-126v19l-12 7h-362zM449 49l-41 50h162l42 -50h-163zM30 49
v50h128v-50h-128zM30 483h513q25 0 46 -10h-559v10zM489 0l-27 33h164l28 -33h-165zM30 261v38h128v-38h-128zM532 261v38h126v-38h-126zM158 0h-128v33h128v-33z" />
    <glyph glyph-name="FL00B7h" unicode="&#xb7;" horiz-adv-x="186" 
d="M29 190v43h126v-43h-126zM29 261v38h126v-38h-126z" />
    <glyph glyph-name="FL00B8h" unicode="&#xb8;" horiz-adv-x="163" 
d="M-62 -93v43h94v16h101v-59h-195zM133 -142h-195v41h195v-41zM32 0h101v-22h-101v22z" />
    <glyph glyph-name="FL00BAh" unicode="&#xb9;" horiz-adv-x="166" 
d="M30 473v27h106v-27h-106zM70 332v34h66v-34h-66zM70 403v30h66v-30h-66zM136 287h-66v12h66v-12z" />
    <glyph glyph-name="FL00B0h" unicode="&#xba;" horiz-adv-x="374" 
d="M344 335v-3h-314v34h314v-31zM344 479v-6h-314v3q0 14 7 24h300q7 -11 7 -21zM30 288v11h291q-14 -11 -27 -11h-264zM248 403v30h96v-30h-96zM30 403v30h95v-30h-95z" />
    <glyph glyph-name="FL00BCh" unicode="&#xbb;" horiz-adv-x="347" 
d="M154 137l-42 -18h-83v47h125v-29zM316 137l-42 -18h-83v47h125v-29zM29 190v19l62 24h63v-43h-125zM191 190v19l62 24h63v-43h-125zM191 273v26h125v-38h-92zM62 261l-33 12v26h125v-38h-92zM316 345v-13h-125v34h76zM154 345v-13h-125v34h76zM29 83v16h37zM191 83v16h37
z" />
    <glyph glyph-name="FL00AAh" unicode="&#xbc;" horiz-adv-x="844" 
d="M192 119l-131 33l28 14h592l4 -4l3 4h27l-3 -47h-520zM659 366l117 -29l3 -5h-650l4 34h526zM175 290l-17 -3l-2 -26h-71l-24 34l-1 4h677l68 -38h-101l4 29l-23 6l-2 -35h-25v29l-16 6l-2 -35h-33l-22 29v-29h-16v3q-10 34 -27 34q-12 0 -13 -3q-5 -8 -10 -17t-9 -17
h-32l2 35l-19 -6l-3 -29h-25v25l-15 4l-2 -29h-38l-20 25v-25h-13q-8 29 -37 29h-10q-8 -5 -13.5 -12.5t-10.5 -16.5h-53q11 10 22 10q5 0 5 -1l1.5 -0.5t3.5 -2.5l2 27q-47 -9 -63 -33h-19zM538 79l-54 -30h-54l-12 17l-82 -17h-49l12 30l-150 7l17 13h462l-36 -50h-15z
M277 433l28 -23l42 23h70l1 -11l65 11h73l-7 -29h146l-1 -1h-468l25 30h26zM751 233q23 -29 30 -43h-123v43h24v-19l16 -2l2 21h51zM108 190l-73 43h118l-3 -43h-42zM265 233q-3 -17 -3 -37l3 -6h-24v4q-3 -3 -18 -3q-20 0 -20 21q0 10 3 21h59zM329 233q-1 -12 -8 -24
q-16 -10 -25 -10q-15 0 -15 26v7v1h48zM327 190q10 10 16 43h15v-43h-31zM433 190v43h22l-4 -43h-18zM603 233q24 -33 39 -43h-41v43h2zM499 233q-4 -11 -6 -21.5t-4 -21.5h-19l4 1l2 42h23zM185 232v-6q0 -7 1 -8q3 -18 9 -28h-26l2 43h14v-1zM510 190q12 24 23 24
q13 0 22 -24h-45zM375 190v42q21 -30 36 -42h-36zM569 190v43h16v-43h-16zM433 33h22l-25 -14zM711 90l-24 9h24v-9zM414 218l-13 15h14zM297 261q5 5 12 5q6 0 11 -5h-23zM533 261l6 12l4 -12h-10zM639 221l-10 12h10v-12zM788 166v-4l-22 4h22z" />
    <glyph glyph-name="FL00BDh" unicode="&#xbd;" horiz-adv-x="769" 
d="M431 190q-2 17 -3.5 23.5t-2.5 17.5v2h283q11 -7 17.5 -18.5t10.5 -24.5h-305zM430 119q8 14 25 24.5t31 10.5h184v12h69v-2v-25q-2 -9 -9 -20h-300zM725 33q2 -11 3 -20t1 -13h-304v33h300zM686 87h-191l-2 -2v-19h225l1 -4.5t3 -12.5h-297v50h289q-14 -12 -28 -12z
M62 49l47 50h154l-47 -50h-154zM128 119l44 47h154l-44 -47h-154zM195 190l40 43h154l-40 -43h-154zM262 261l36 38h154l-36 -38h-154zM329 332l32 34h154l-32 -34h-154zM16 0l31 33h154l-31 -33h-154zM396 403l28 30h154l-28 -30h-154zM124 403v13h-40v17h114v-30h-74z
M124 261v38h74v-38h-74zM124 332v34h74v-34h-74zM462 473l10 10h154l-10 -10h-154zM84 473v9h114v-9h-114z" />
    <glyph glyph-name="FL00BEh" unicode="&#xbe;" horiz-adv-x="619" 
d="M370 190q2 11 4 21.5t6 21.5h70v-43h-14q-9 24 -22 24q-11 0 -23 -24h-21zM282 233l13 -15l1 15h18v-43h-22q-15 12 -36 42v-42h-17v43h43zM143 196q0 20 3 37h16v-1v-7q0 -26 15 -26q9 0 25 10q7 12 8 24h14q-6 -33 -16 -43h-62zM510 233l10 -12v12h19v-43h-16
q-15 10 -39 43h26zM450 264v-3h-26l-4 12l-6 -12h-23q4 8 9 17t10 17q1 3 13 3q17 0 27 -34zM189 290q29 0 37 -29h-25q-5 5 -11 5q-7 0 -12 -5h-23q5 9 10.5 16.5t13.5 12.5h10zM136 294l-2 -27q-2 2 -3.5 2.5l-1.5 0.5q0 1 -5 1q-11 0 -22 -10h-29q16 24 63 33zM355 191
l-4 -1h-19l4 43h21zM31 190l3 43h18l-2 -43h-19zM66 226v6v1h21q-3 -11 -3 -21q0 -21 20 -21q15 0 18 3v-4h-46q-6 10 -9 28q-1 1 -1 8zM589 290l-4 -29h-21l2 35zM466 190v43h16v-43h-16zM361 296l-2 -35h-20l3 29zM539 290v-29h-18l2 35zM56 290l-2 -29h-17l2 26zM314 286
v-25h-17l2 29zM579 212l-16 2v19h18zM466 261v29l22 -29h-22zM239 261v25l20 -25h-20zM566 162l-4 4h7z" />
    <glyph glyph-name="FL00BFh" unicode="&#xbf;" horiz-adv-x="689" 
d="M646 99q2 -11 3.5 -24t3.5 -26h-596q-14 23 -21 50h610zM579 233q-21 -27 -55 -43h-494v12q2 7 4.5 14.5t6.5 16.5h538zM600 281q0 -11 -4 -20h-537q10 12 21.5 22t25.5 16h494v-18zM655 33q1 -11 3 -18l1 -15h-512q-26 0 -45 9t-33 24h586zM158 132l11 -7h473l0.5 -2
t0.5 -4h-611q-1 8 -1.5 16.5t-0.5 16.5v14h128v-34zM472 403v30h128v-30h-128zM472 473v10h128v-10h-128zM600 358h-128v8h128v-8z" />
    <glyph glyph-name="FL00C0h" unicode="&#xc0;" horiz-adv-x="708" 
d="M155 121v-2h-125v47h555l30 -47h-152l-1 2h-307zM30 190v43h512l28 -43h-540zM410 433q7 -8 12.5 -15t10.5 -14v-1h-403v30h380zM155 356v-24h-125v34h427l22 -34h-151q-18 24 -22 24h-151zM511 49l-34 50h151l32 -50h-149zM30 49v50h125v-50h-125zM376 261
q-5 8 -11 17.5t-14 20.5h149l24 -38h-148zM692 0h-148l-22 33h149zM30 261v38h125v-38h-125zM155 0h-125v33h125v-33zM317 483q20 0 41 -10h-328v10h287zM133 615l-9 18h131l8 -18h-130zM161 559l-4 7h127l3 -7h-126z" />
    <glyph glyph-name="FL00C1h" unicode="&#xc1;" horiz-adv-x="708" 
d="M462 121h-307v-2h-125v47h555l30 -47h-152zM30 190v43h512l28 -43h-540zM433 404v-1h-403v30h380q7 -8 12.5 -15t10.5 -14zM306 356h-151v-24h-125v34h427l22 -34h-151q-18 24 -22 24zM511 49l-34 50h151l32 -50h-149zM30 49v50h125v-50h-125zM376 261q-5 8 -11 17.5
t-14 20.5h149l24 -38h-148zM671 33l21 -33h-148l-22 33h149zM30 261v38h125v-38h-125zM155 0h-125v33h125v-33zM30 473v10h287q20 0 41 -10h-328zM174 615l8 18h131l-9 -18h-130zM276 559h-126l3 7h126z" />
    <glyph glyph-name="FL00C2h" unicode="&#xc2;" horiz-adv-x="708" 
d="M462 121h-307v-2h-125v47h555l30 -47h-152zM30 190v43h512l28 -43h-540zM433 404v-1h-403v30h380q7 -8 12.5 -15t10.5 -14zM306 356h-151v-24h-125v34h427l22 -34h-151q-18 24 -22 24zM511 49l-34 50h151l32 -50h-149zM30 49v50h125v-50h-125zM376 261q-5 8 -11 17.5
t-14 20.5h149l24 -38h-148zM671 33l21 -33h-148l-22 33h149zM30 261v38h125v-38h-125zM155 0h-125v33h125v-33zM30 473v10h287q20 0 41 -10h-328zM243 615l-7 18h123l8 -18h-124zM99 615l8 18h120l-6 -18h-122zM265 559l-3 7h126l3 -7h-126zM201 559h-126l3 7h125z" />
    <glyph glyph-name="FL00C3h" unicode="&#xc3;" horiz-adv-x="708" 
d="M462 121h-307v-2h-125v47h555l30 -47h-152zM30 190v43h512l28 -43h-540zM433 404v-1h-403v30h380q7 -8 12.5 -15t10.5 -14zM306 356h-151v-24h-125v34h427l22 -34h-151q-18 24 -22 24zM511 49l-34 50h151l32 -50h-149zM30 49v50h125v-50h-125zM376 261q-5 8 -11 17.5
t-14 20.5h149l24 -38h-148zM671 33l21 -33h-148l-22 33h149zM30 261v38h125v-38h-125zM155 0h-125v33h125v-33zM30 473v10h287q20 0 41 -10h-328zM183 615l-6 18h112l7 -18h-113zM305 615l7 18h112l-7 -18h-112zM52 615l7 18h112l-7 -18h-112zM396 560h-192l-2 6h196z
M144 559h-114l3 7h113z" />
    <glyph glyph-name="FL00C4h" unicode="&#xc4;" horiz-adv-x="708" 
d="M462 121h-307v-2h-125v47h555l30 -47h-152zM30 190v43h512l28 -43h-540zM433 404v-1h-403v30h380q7 -8 12.5 -15t10.5 -14zM306 356h-151v-24h-125v34h427l22 -34h-151q-18 24 -22 24zM511 49l-34 50h151l32 -50h-149zM30 49v50h125v-50h-125zM376 261q-5 8 -11 17.5
t-14 20.5h149l24 -38h-148zM671 33l21 -33h-148l-22 33h149zM30 261v38h125v-38h-125zM155 0h-125v33h125v-33zM30 473v10h287q20 0 41 -10h-328zM281 615v18h126v-18h-126zM91 615v18h126v-18h-126zM407 559h-126v7h126v-7zM217 559h-126v7h126v-7z" />
    <glyph glyph-name="FL00C5h" unicode="&#xc5;" horiz-adv-x="708" 
d="M462 121h-307v-2h-125v47h555l30 -47h-152zM30 190v43h512l28 -43h-540zM433 404v-1h-403v30h380q7 -8 12.5 -15t10.5 -14zM306 356h-151v-24h-125v34h427l22 -34h-151q-18 24 -22 24zM511 49l-34 50h151l32 -50h-149zM30 49v50h125v-50h-125zM376 261q-5 8 -11 17.5
t-14 20.5h149l24 -38h-148zM671 33l21 -33h-148l-22 33h149zM30 261v38h125v-38h-125zM155 0h-125v33h125v-33zM30 473v10h287q20 0 41 -10h-328zM168 615v18h126v-18h-126zM294 559h-126v7h126v-7z" />
    <glyph glyph-name="FL00C6h" unicode="&#xc6;" horiz-adv-x="1211" 
d="M1134 233q-2 -13 -3 -24t-3 -19h-990l27 43h969zM1170 99q2 -11 3.5 -24t3.5 -26h-624v48l-0.5 0.5t-0.5 1.5h618zM679 139l8 -14h476l2 -6h-614v2h-305l-2 -2h-152l30 47h557v-27zM274 403l1 1l9 13.5t13 15.5h879q-2 -8 -2.5 -15t-1.5 -15h-898zM1142 299
q-1 -7 -1.5 -16.5t-2.5 -21.5h-587v38h591zM1178 33q3 -21 3 -33h-628v33h625zM402 356q-5 0 -23 -24h-150l21 34h915l-2 -8h-484v-26h-128v24h-149zM349 473q21 10 42 10h790q0 -7 -1 -10h-831zM47 49l32 50h152l-34 -50h-150zM356 299q-7 -11 -13 -20.5t-11 -17.5h-149
l25 38h148zM16 0l21 33h149l-22 -33h-148z" />
    <glyph glyph-name="FL00C7h" unicode="&#xc7;" horiz-adv-x="690" 
d="M649 99q2 -11 3.5 -24t3.5 -26h-600q-9 11 -15.5 23.5t-8.5 26.5h617zM657 33q3 -21 3 -33h-226v-22h-101v22h-186q-20 0 -39.5 9t-36.5 24h586zM655 433q-2 -8 -2.5 -15t-1.5 -15h-621v30h625zM239 -93v43h94v16h101v-59h-195zM158 139l8 -14h476l2 -6h-614v47h128v-27z
M644 366l-2 -8h-484v-26h-128v34h614zM434 -142h-195v41h195v-41zM30 483h630q0 -7 -1 -10h-629v10zM30 190v43h128v-43h-128zM30 261v38h128v-38h-128z" />
    <glyph glyph-name="FL00C8h" unicode="&#xc8;" horiz-adv-x="690" 
d="M56 49q-9 11 -15.5 23.5t-8.5 26.5h617q2 -11 3.5 -24t3.5 -26h-600zM613 233q-2 -13 -3 -24t-3 -19h-577v43h583zM621 299q-1 -7 -1.5 -17t-2.5 -21h-587v38h591zM655 433q-2 -8 -2.5 -15t-1.5 -15h-621v30h625zM147 0q-20 0 -39.5 9t-36.5 24h586q3 -21 3 -33h-513z
M642 125l2 -6h-614v47h128v-27l8 -14h476zM158 358v-26h-128v34h614l-1.5 -6l-0.5 -2h-484zM30 483h630q0 -7 -1 -10h-629v10zM270 615l-9 18h131l7 -18h-129zM297 561l-3 5h127l2 -5h-126z" />
    <glyph glyph-name="FL00C9h" unicode="&#xc9;" horiz-adv-x="690" 
d="M56 49q-9 11 -15.5 23.5t-8.5 26.5h617q2 -11 3.5 -24t3.5 -26h-600zM613 233q-2 -13 -3 -24t-3 -19h-577v43h583zM621 299q-1 -7 -1.5 -17t-2.5 -21h-587v38h591zM655 433q-2 -8 -2.5 -15t-1.5 -15h-621v30h625zM147 0q-20 0 -39.5 9t-36.5 24h586q3 -21 3 -33h-513z
M642 125l2 -6h-614v47h128v-27l8 -14h476zM158 358v-26h-128v34h614l-1.5 -6l-0.5 -2h-484zM30 483h630q0 -7 -1 -10h-629v10zM288 615l8 18h131l-9 -18h-130zM391 561h-126l2 5h126z" />
    <glyph glyph-name="FL00CAh" unicode="&#xca;" horiz-adv-x="690" 
d="M56 49q-9 11 -15.5 23.5t-8.5 26.5h617q2 -11 3.5 -24t3.5 -26h-600zM613 233q-2 -13 -3 -24t-3 -19h-577v43h583zM621 299q-1 -7 -1.5 -17t-2.5 -21h-587v38h591zM655 433q-2 -8 -2.5 -15t-1.5 -15h-621v30h625zM147 0q-20 0 -39.5 9t-36.5 24h586q3 -21 3 -33h-513z
M642 125l2 -6h-614v47h128v-27l8 -14h476zM158 358v-26h-128v34h614l-1.5 -6l-0.5 -2h-484zM30 483h630q0 -7 -1 -10h-629v10zM209 615l8 18h123l-7 -18h-124zM356 615l-7 18h121l8 -18h-122zM312 560h-126l2 6h126zM376 560l-2 6h125l3 -6h-126z" />
    <glyph glyph-name="FL00CBh" unicode="&#xcb;" horiz-adv-x="690" 
d="M56 49q-9 11 -15.5 23.5t-8.5 26.5h617q2 -11 3.5 -24t3.5 -26h-600zM613 233q-2 -13 -3 -24t-3 -19h-577v43h583zM621 299q-1 -7 -1.5 -17t-2.5 -21h-587v38h591zM655 433q-2 -8 -2.5 -15t-1.5 -15h-621v30h625zM147 0q-20 0 -39.5 9t-36.5 24h586q3 -21 3 -33h-513z
M642 125l2 -6h-614v47h128v-27l8 -14h476zM158 358v-26h-128v34h614l-1.5 -6l-0.5 -2h-484zM30 483h630q0 -7 -1 -10h-629v10zM186 615v18h126v-18h-126zM376 615v18h126v-18h-126zM502 560h-126v6h126v-6zM312 560h-126v6h126v-6z" />
    <glyph glyph-name="FL00CCh" unicode="&#xcc;" horiz-adv-x="644" 
d="M30 49v50h584v-50h-584zM614 0h-584v33h584v-33zM30 403v30h584v-30h-584zM30 125h228v41h128v-41h228v-6h-584v6zM386 358v-26h-128v26h-228v8h584v-8h-228zM614 483v-10h-584v10h584zM258 190v43h128v-43h-128zM258 261v38h128v-38h-128zM240 615l-9 18h130l8 -18h-129
zM267 560l-3 6h126l3 -6h-126z" />
    <glyph glyph-name="FL00CDh" unicode="&#xcd;" horiz-adv-x="644" 
d="M30 49v50h584v-50h-584zM614 0h-584v33h584v-33zM30 403v30h584v-30h-584zM614 125v-6h-584v6h228v41h128v-41h228zM258 332v26h-228v8h584v-8h-228v-26h-128zM30 473v10h584v-10h-584zM258 190v43h128v-43h-128zM258 261v38h128v-38h-128zM274 615l8 18h131l-9 -18h-130
zM377 560h-126l2 6h127z" />
    <glyph glyph-name="FL00CEh" unicode="&#xce;" horiz-adv-x="644" 
d="M30 49v50h584v-50h-584zM614 0h-584v33h584v-33zM30 403v30h584v-30h-584zM614 125v-6h-584v6h228v41h128v-41h228zM386 358v-26h-128v26h-228v8h584v-8h-228zM614 483v-10h-584v10h584zM258 190v43h128v-43h-128zM258 261v38h128v-38h-128zM187 615l8 18h123l-7 -18
h-124zM334 615l-7 18h121l8 -18h-122zM290 560h-126l2 6h126zM354 560l-2 6h125l3 -6h-126z" />
    <glyph glyph-name="FL00CFh" unicode="&#xcf;" horiz-adv-x="644" 
d="M30 49v50h584v-50h-584zM614 0h-584v33h584v-33zM30 403v30h584v-30h-584zM614 125v-6h-584v6h228v41h128v-41h228zM258 332v26h-228v8h584v-8h-228v-26h-128zM30 473v10h584v-10h-584zM258 190v43h128v-43h-128zM258 261v38h128v-38h-128zM164 615v18h126v-18h-126z
M354 615v18h126v-18h-126zM290 560h-126v6h126v-6zM480 560h-126v6h126v-6z" />
    <glyph glyph-name="FL00D0h" unicode="&#xd0;" horiz-adv-x="797" 
d="M767 99q-2 -26 -21 -50h-607v50h628zM730 33q-17 -15 -39 -24t-41 -9h-511v33h591zM748 433q7 -8 11 -15.5t6 -14.5h-626v30h609zM415 233q-2 -13 -3 -24t-3 -19h-379v43h385zM423 299q-1 -7 -1.5 -16.5t-2.5 -21.5h-389v38h393zM639 125v41h128v-47h-628v47h128v-41h372
zM639 332v23h-372v-23h-128v34h628v-34h-128zM639 190v43h128v-43h-128zM139 473v10h527q16 0 35 -10h-562zM639 261v38h128v-38h-128z" />
    <glyph glyph-name="FL00D1h" unicode="&#xd1;" 
d="M388 119l-56 47h326v-47h-270zM472 49l-60 50h246v-50h-186zM30 332v34h267l41 -34h-308zM304 190l-51 43h205l52 -43h-206zM219 261l-45 38h204l46 -38h-205zM30 49v50h128v-50h-128zM30 403v30h186l36 -30h-222zM30 119v47h128v-47h-128zM30 190v43h128v-43h-128z
M534 190v43h124v-43h-124zM658 0h-128l-39 33h167v-33zM30 261v38h128v-38h-128zM534 261v38h124v-38h-124zM158 0h-128v33h128v-33zM534 332v34h124v-34h-124zM534 403v30h124v-30h-124zM413 615l7 18h113l-7 -18h-113zM291 615l-6 18h112l7 -18h-113zM160 615l7 18h112
l-7 -18h-112zM30 483h126l12 -10h-138v10zM534 473v10h124v-10h-124zM505 560h-193l-2 6h197zM252 559h-114l3 7h113z" />
    <glyph glyph-name="FL00D2h" unicode="&#xd2;" 
d="M658 99q-2 -26 -21 -50h-585q-19 23 -22 50h628zM639 433q7 -8 11 -15.5t6 -14.5h-626v30h609zM621 33q-17 -15 -39 -24t-41 -9h-394q-20 0 -41 9t-38 24h553zM158 136l11 -11h361v41h128v-47h-628v47h128v-30zM530 332v23h-372v-23h-128v34h628v-34h-128zM30 190v43h128
v-43h-128zM530 190v43h128v-43h-128zM30 483h527q16 0 35 -10h-562v10zM30 261v38h128v-38h-128zM530 261v38h128v-38h-128zM270 615l-9 18h131l7 -18h-129zM421 566l2 -5h-126l-3 5h127z" />
    <glyph glyph-name="FL00D3h" unicode="&#xd3;" 
d="M658 99q-2 -26 -21 -50h-585q-19 23 -22 50h628zM639 433q7 -8 11 -15.5t6 -14.5h-626v30h609zM621 33q-17 -15 -39 -24t-41 -9h-394q-20 0 -41 9t-38 24h553zM158 136l11 -11h361v41h128v-47h-628v47h128v-30zM530 332v23h-372v-23h-128v34h628v-34h-128zM30 190v43h128
v-43h-128zM530 190v43h128v-43h-128zM30 483h527q16 0 35 -10h-562v10zM30 261v38h128v-38h-128zM530 261v38h128v-38h-128zM288 615l8 18h131l-9 -18h-130zM391 561h-126l2 5h126z" />
    <glyph glyph-name="FL00D4h" unicode="&#xd4;" 
d="M658 99q-2 -26 -21 -50h-585q-19 23 -22 50h628zM639 433q7 -8 11 -15.5t6 -14.5h-626v30h609zM621 33q-17 -15 -39 -24t-41 -9h-394q-20 0 -41 9t-38 24h553zM158 136l11 -11h361v41h128v-47h-628v47h128v-30zM530 332v23h-372v-23h-128v34h628v-34h-128zM30 190v43h128
v-43h-128zM530 190v43h128v-43h-128zM30 483h527q16 0 35 -10h-562v10zM530 261v38h128v-38h-128zM30 261v38h128v-38h-128zM209 615l8 18h123l-7 -18h-124zM356 615l-7 18h121l8 -18h-122zM312 560h-126l2 6h126zM499 566l3 -6h-126l-2 6h125z" />
    <glyph glyph-name="FL00D5h" unicode="&#xd5;" 
d="M658 99q-2 -26 -21 -50h-585q-19 23 -22 50h628zM639 433q7 -8 11 -15.5t6 -14.5h-626v30h609zM621 33q-17 -15 -39 -24t-41 -9h-394q-20 0 -41 9t-38 24h553zM158 136l11 -11h361v41h128v-47h-628v47h128v-30zM530 332v23h-372v-23h-128v34h628v-34h-128zM30 190v43h128
v-43h-128zM530 190v43h128v-43h-128zM30 483h527q16 0 35 -10h-562v10zM30 261v38h128v-38h-128zM530 261v38h128v-38h-128zM291 615l-6 18h112l7 -18h-113zM413 615l7 18h112l-7 -18h-112zM160 615l7 18h112l-7 -18h-112zM504 560h-192l-2 6h196zM252 559h-114l3 7h113z
" />
    <glyph glyph-name="FL00D6h" unicode="&#xd6;" 
d="M658 99q-2 -26 -21 -50h-585q-19 23 -22 50h628zM639 433q7 -8 11 -15.5t6 -14.5h-626v30h609zM621 33q-17 -15 -39 -24t-41 -9h-394q-20 0 -41 9t-38 24h553zM158 136l11 -11h361v41h128v-47h-628v47h128v-30zM530 332v23h-372v-23h-128v34h628v-34h-128zM30 190v43h128
v-43h-128zM530 190v43h128v-43h-128zM30 483h527q16 0 35 -10h-562v10zM30 261v38h128v-38h-128zM530 261v38h128v-38h-128zM376 615v18h126v-18h-126zM186 615v18h126v-18h-126zM312 560h-126v6h126v-6zM502 560h-126v6h126v-6z" />
    <glyph glyph-name="FL00D7h" unicode="&#xd7;" horiz-adv-x="372" 
d="M349 166l7 -7l-40 -40h-97l-32 33l-33 -33h-99l-39 39l8 8h325zM48 190l43 43h191l43 -43h-277zM77 261l-38 38h295l-38 -38h-219zM26 332l34 34h89l34 -34h-157zM191 332l33 34h87l34 -34h-154zM105 70l-30 29h59zM268 70l-29 29h57zM261 403l7 7l7 -7h-14zM98 403l7 7
l7 -7h-14z" />
    <glyph glyph-name="FL00D8h" unicode="&#xd8;" 
d="M658 95q0 -11 -5.5 -23t-14.5 -23h-608v50h628v-4zM304 128h226v38h128v-47h-628v47h128v-31l29 31h153zM30 0v33h594q-16 -14 -34 -23.5t-33 -9.5h-527zM34 403q6 15 18 30h586q5 -8 9.5 -15t6.5 -15h-620zM521 358l-25 -26h-153l25 26h-199l-11 -11v-15h-128v34h628
v-34h-128v26h-9zM210 190l40 43h153l-41 -43h-152zM277 261l35 38h153l-36 -38h-152zM530 190v43h128v-43h-128zM30 190v43h128v-43h-128zM530 261v38h128v-38h-128zM30 261v38h128v-38h-128zM104 473q21 10 43 10h394q22 0 43 -10h-480z" />
    <glyph glyph-name="FL00D9h" unicode="&#xd9;" 
d="M657 99q-3 -27 -22 -50h-584q-21 24 -21 50h627zM619 33q-17 -15 -37.5 -24t-40.5 -9h-394q-20 0 -41.5 9t-39.5 24h553zM530 136v30h128v-47h-628v47h128v-41h361zM30 190v43h128v-43h-128zM530 190v43h128v-43h-128zM30 261v38h128v-38h-128zM530 261v38h128v-38h-128z
M30 332v34h128v-34h-128zM530 332v34h128v-34h-128zM30 403v30h128v-30h-128zM530 403v30h128v-30h-128zM270 615l-9 18h131l7 -18h-129zM30 473v10h128v-10h-128zM530 473v10h128v-10h-128zM421 566l2 -5h-126l-3 5h127z" />
    <glyph glyph-name="FL00DAh" unicode="&#xda;" 
d="M658 99q-2 -26 -21 -50h-585q-19 23 -22 50h628zM621 33q-17 -15 -39 -24t-41 -9h-394q-20 0 -41 9t-38 24h553zM158 136l11 -11h361v41h128v-47h-628v47h128v-30zM30 190v43h128v-43h-128zM530 190v43h128v-43h-128zM30 261v38h128v-38h-128zM530 261v38h128v-38h-128z
M30 332v34h128v-34h-128zM530 332v34h128v-34h-128zM30 403v30h128v-30h-128zM530 403v30h128v-30h-128zM288 615l8 18h131l-9 -18h-130zM158 483v-10h-128v10h128zM530 473v10h128v-10h-128zM391 561h-126l2 5h126z" />
    <glyph glyph-name="FL00DBh" unicode="&#xdb;" 
d="M658 99q-2 -26 -21 -50h-585q-19 23 -22 50h628zM621 33q-17 -15 -39 -24t-41 -9h-394q-20 0 -41 9t-38 24h553zM158 136l11 -11h361v41h128v-47h-628v47h128v-30zM30 190v43h128v-43h-128zM530 190v43h128v-43h-128zM30 261v38h128v-38h-128zM530 261v38h128v-38h-128z
M30 332v34h128v-34h-128zM530 332v34h128v-34h-128zM30 403v30h128v-30h-128zM530 403v30h128v-30h-128zM209 615l8 18h123l-7 -18h-124zM356 615l-7 18h121l8 -18h-122zM158 483v-10h-128v10h128zM530 473v10h128v-10h-128zM312 560h-126l2 6h126zM499 566l3 -6h-126l-2 6
h125z" />
    <glyph glyph-name="FL00DCh" unicode="&#xdc;" 
d="M658 99q-2 -26 -21 -50h-585q-19 23 -22 50h628zM621 33q-17 -15 -39 -24t-41 -9h-394q-20 0 -41 9t-38 24h553zM158 136l11 -11h361v41h128v-47h-628v47h128v-30zM30 190v43h128v-43h-128zM530 190v43h128v-43h-128zM30 261v38h128v-38h-128zM530 261v38h128v-38h-128z
M30 332v34h128v-34h-128zM530 332v34h128v-34h-128zM30 403v30h128v-30h-128zM530 403v30h128v-30h-128zM186 615v18h126v-18h-126zM376 615v18h126v-18h-126zM158 483v-10h-128v10h128zM530 473v10h128v-10h-128zM312 560h-126v6h126v-6zM502 560h-126v6h126v-6z" />
    <glyph glyph-name="FL00DDh" unicode="&#xdd;" horiz-adv-x="654" 
d="M198 261l-31 38h317l-32 -38h-254zM256 190l-35 43h207l-36 -43h-136zM264 49v50h122v-50h-122zM264 119v47h122v-47h-122zM350 332l28 34h162l-29 -34h-161zM140 332l-28 34h160l29 -34h-161zM408 403l25 30h163l-25 -30h-163zM81 403l-24 30h157l26 -30h-159zM386 0
h-122v33h122v-33zM267 615l8 18h131l-9 -18h-130zM638 483l-9 -10h-163l8 10h164zM16 483h155l8 -10h-155zM370 560h-126l2 6h127z" />
    <glyph glyph-name="FL00DEh" unicode="&#xde;" 
d="M651 166q-5 -12 -14 -24.5t-20 -22.5h-587v47h621zM658 195q0 -2 -0.5 -3t-0.5 -2h-627v43h128v-16h360l14 12v4h126v-38zM622 366q14 -16 22 -34h-614v34h592zM520 272h-362v-11h-128v38h623q2 -10 3 -19.5t1 -18.5h-125v4zM588 99q-13 -7 -31 -7h-399v-43h-128v50h558z
M158 0h-128v33h128v-33zM30 403v30h128v-30h-128zM30 483h128v-10h-128v10z" />
    <glyph glyph-name="FL00DFh" unicode="&#xdf;" 
d="M658 99q-1 -13 -3.5 -25.5t-8.5 -24.5h-435v50h447zM637 233q6 -10 12.5 -21.5t8.5 -21.5h-447v43h426zM637 433q4 -7 7.5 -14.5t5.5 -15.5h-620v30h607zM658 295q0 -4 -4 -14t-9 -20h-434v38h447v-4zM635 33q-12 -15 -31 -24t-47 -9h-346v33h424zM657 366q1 -5 1 -15
v-13v-6h-126v19l-12 7h-362v-26h-128v34h627zM30 -164v63h128v-63h-128zM211 119v6h309l12 7v34h126v-47h-447zM30 -93v59h128v-59h-128zM30 -22v55h128v-55h-128zM30 49v50h128v-50h-128zM30 119v47h128v-47h-128zM30 190v43h128v-43h-128zM30 483h513q30 0 51 -10h-564v10
zM30 261v38h128v-38h-128zM158 -170h-128v2h128v-2z" />
    <glyph glyph-name="FL00E0h" unicode="&#xe0;" horiz-adv-x="708" 
d="M246 121l-2 -2h-152l30 47h556v-47h-125v2h-307zM138 190l27 43h513v-43h-540zM275 404l9 13.5t13 15.5h381v-30h-404zM402 356q-5 0 -23 -24h-150l21 34h428v-34h-125v24h-151zM47 49l32 50h152l-34 -50h-150zM553 49v50h125v-50h-125zM356 299q-7 -11 -13 -20.5
t-11 -17.5h-149l25 38h148zM164 0h-148l21 33h149zM553 261v38h125v-38h-125zM678 0h-125v33h125v-33zM678 483v-10h-329q21 10 42 10h287zM404 615l-9 18h131l8 -18h-130zM432 559l-4 7h127l3 -7h-126z" />
    <glyph glyph-name="FL00E1h" unicode="&#xe1;" horiz-adv-x="708" 
d="M553 119v2h-307l-2 -2h-152l30 47h556v-47h-125zM138 190l27 43h513v-43h-540zM274 403l1 1l9 13.5t13 15.5h381v-30h-404zM553 356h-151q-5 0 -23 -24h-150l21 34h428v-34h-125v24zM47 49l32 50h152l-34 -50h-150zM553 49v50h125v-50h-125zM356 299q-7 -11 -13 -20.5
t-11 -17.5h-149l25 38h148zM16 0l21 33h149l-22 -33h-148zM553 261v38h125v-38h-125zM678 0h-125v33h125v-33zM349 473q21 10 42 10h287v-10h-329zM445 615l8 18h131l-9 -18h-130zM547 559h-126l3 7h126z" />
    <glyph glyph-name="FL00E2h" unicode="&#xe2;" horiz-adv-x="708" 
d="M246 121l-2 -2h-152l30 47h556v-47h-125v2h-307zM138 190l27 43h513v-43h-540zM275 404l9 13.5t13 15.5h381v-30h-404zM402 356q-5 0 -23 -24h-150l21 34h428v-34h-125v24h-151zM47 49l32 50h152l-34 -50h-150zM553 49v50h125v-50h-125zM356 299q-7 -11 -13 -20.5
t-11 -17.5h-149l25 38h148zM164 0h-148l21 33h149zM553 261v38h125v-38h-125zM678 0h-125v33h125v-33zM678 483v-10h-329q21 10 42 10h287zM341 615l8 18h122l-7 -18h-123zM487 615l-7 18h121l8 -18h-122zM630 566l3 -7h-126l-3 7h126zM443 559h-126l3 7h125z" />
    <glyph glyph-name="FL00E3h" unicode="&#xe3;" horiz-adv-x="708" 
d="M553 119v2h-307l-2 -2h-152l30 47h556v-47h-125zM138 190l27 43h513v-43h-540zM274 403l1 1l9 13.5t13 15.5h381v-30h-404zM553 356h-151q-5 0 -23 -24h-150l21 34h428v-34h-125v24zM47 49l32 50h152l-34 -50h-150zM553 49v50h125v-50h-125zM356 299q-7 -11 -13 -20.5
t-11 -17.5h-149l25 38h148zM16 0l21 33h149l-22 -33h-148zM553 261v38h125v-38h-125zM678 0h-125v33h125v-33zM349 473q21 10 42 10h287v-10h-329zM415 615l-7 18h113l6 -18h-112zM538 615l6 18h113l-7 -18h-112zM284 615l7 18h112l-6 -18h-113zM628 559h-192l-3 7h197z
M376 558h-114l3 8h114z" />
    <glyph glyph-name="FL00E4h" unicode="&#xe4;" horiz-adv-x="708" 
d="M246 121l-2 -2h-152l30 47h556v-47h-125v2h-307zM138 190l27 43h513v-43h-540zM275 404l9 13.5t13 15.5h381v-30h-404zM402 356q-5 0 -23 -24h-150l21 34h428v-34h-125v24h-151zM47 49l32 50h152l-34 -50h-150zM553 49v50h125v-50h-125zM356 299q-7 -11 -13 -20.5
t-11 -17.5h-149l25 38h148zM164 0h-148l21 33h149zM553 261v38h125v-38h-125zM678 0h-125v33h125v-33zM678 483v-10h-329q21 10 42 10h287zM491 615v18h126v-18h-126zM301 615v18h126v-18h-126zM427 559h-126v7h126v-7zM617 559h-126v7h126v-7z" />
    <glyph glyph-name="FL00E5h" unicode="&#xe5;" horiz-adv-x="708" 
d="M246 121l-2 -2h-152l30 47h556v-47h-125v2h-307zM138 190l27 43h513v-43h-540zM275 404l9 13.5t13 15.5h381v-30h-404zM402 356q-5 0 -23 -24h-150l21 34h428v-34h-125v24h-151zM47 49l32 50h152l-34 -50h-150zM553 49v50h125v-50h-125zM356 299q-7 -11 -13 -20.5
t-11 -17.5h-149l25 38h148zM164 0h-148l21 33h149zM553 261v38h125v-38h-125zM678 0h-125v33h125v-33zM678 483v-10h-329q21 10 42 10h287zM414 615v18h126v-18h-126zM540 559h-126v7h126v-7z" />
    <glyph glyph-name="FL00E6h" unicode="&#xe6;" horiz-adv-x="1211" 
d="M1134 233q-2 -13 -3 -24t-3 -19h-990l27 43h969zM1170 99q2 -11 3.5 -24t3.5 -26h-624v48l-0.5 0.5t-0.5 1.5h618zM679 139l8 -14h476l2 -6h-614v2h-305l-2 -2h-152l30 47h557v-27zM274 403l1 1l9 13.5t13 15.5h879q-2 -8 -2.5 -15t-1.5 -15h-898zM1142 299
q-1 -7 -1.5 -16.5t-2.5 -21.5h-587v38h591zM1178 33q3 -21 3 -33h-628v33h625zM402 356q-5 0 -23 -24h-150l21 34h915l-2 -8h-484v-26h-128v24h-149zM349 473q21 10 42 10h790q0 -7 -1 -10h-831zM47 49l32 50h152l-34 -50h-150zM356 299q-7 -11 -13 -20.5t-11 -17.5h-149
l25 38h148zM16 0l21 33h149l-22 -33h-148z" />
    <glyph glyph-name="FL00E7h" unicode="&#xe7;" horiz-adv-x="690" 
d="M649 99q2 -11 3.5 -24t3.5 -26h-600q-9 11 -15.5 23.5t-8.5 26.5h617zM657 33q3 -21 3 -33h-226v-22h-101v22h-186q-20 0 -39.5 9t-36.5 24h586zM655 433q-2 -8 -2.5 -15t-1.5 -15h-621v30h625zM239 -93v43h94v16h101v-59h-195zM158 139l8 -14h476l2 -6h-614v47h128v-27z
M644 366l-2 -8h-484v-26h-128v34h614zM434 -142h-195v41h195v-41zM30 483h630q0 -7 -1 -10h-629v10zM30 190v43h128v-43h-128zM30 261v38h128v-38h-128z" />
    <glyph glyph-name="FL00E8h" unicode="&#xe8;" horiz-adv-x="690" 
d="M56 49q-9 11 -15.5 23.5t-8.5 26.5h617q2 -11 3.5 -24t3.5 -26h-600zM613 233q-2 -13 -3 -24t-3 -19h-577v43h583zM621 299q-1 -7 -1.5 -17t-2.5 -21h-587v38h591zM655 433q-2 -8 -2.5 -15t-1.5 -15h-621v30h625zM147 0q-20 0 -39.5 9t-36.5 24h586q3 -21 3 -33h-513z
M642 125l2 -6h-614v47h128v-27l8 -14h476zM158 358v-26h-128v34h614l-1.5 -6l-0.5 -2h-484zM30 483h630q0 -7 -1 -10h-629v10zM270 615l-9 18h131l7 -18h-129zM297 561l-3 5h127l2 -5h-126z" />
    <glyph glyph-name="FL00E9h" unicode="&#xe9;" horiz-adv-x="690" 
d="M56 49q-9 11 -15.5 23.5t-8.5 26.5h617q2 -11 3.5 -24t3.5 -26h-600zM613 233q-2 -13 -3 -24t-3 -19h-577v43h583zM621 299q-1 -7 -1.5 -17t-2.5 -21h-587v38h591zM655 433q-2 -8 -2.5 -15t-1.5 -15h-621v30h625zM147 0q-20 0 -39.5 9t-36.5 24h586q3 -21 3 -33h-513z
M642 125l2 -6h-614v47h128v-27l8 -14h476zM158 358v-26h-128v34h614l-1.5 -6l-0.5 -2h-484zM30 483h630q0 -7 -1 -10h-629v10zM288 615l8 18h131l-9 -18h-130zM391 561h-126l2 5h126z" />
    <glyph glyph-name="FL00EAh" unicode="&#xea;" horiz-adv-x="690" 
d="M56 49q-9 11 -15.5 23.5t-8.5 26.5h617q2 -11 3.5 -24t3.5 -26h-600zM613 233q-2 -13 -3 -24t-3 -19h-577v43h583zM621 299q-1 -7 -1.5 -17t-2.5 -21h-587v38h591zM655 433q-2 -8 -2.5 -15t-1.5 -15h-621v30h625zM147 0q-20 0 -39.5 9t-36.5 24h586q3 -21 3 -33h-513z
M642 125l2 -6h-614v47h128v-27l8 -14h476zM158 358v-26h-128v34h614l-1.5 -6l-0.5 -2h-484zM30 483h630q0 -7 -1 -10h-629v10zM209 615l8 18h123l-7 -18h-124zM356 615l-7 18h121l8 -18h-122zM312 560h-126l2 6h126zM376 560l-2 6h125l3 -6h-126z" />
    <glyph glyph-name="FL00EBh" unicode="&#xeb;" horiz-adv-x="690" 
d="M56 49q-9 11 -15.5 23.5t-8.5 26.5h617q2 -11 3.5 -24t3.5 -26h-600zM613 233q-2 -13 -3 -24t-3 -19h-577v43h583zM621 299q-1 -7 -1.5 -17t-2.5 -21h-587v38h591zM655 433q-2 -8 -2.5 -15t-1.5 -15h-621v30h625zM147 0q-20 0 -39.5 9t-36.5 24h586q3 -21 3 -33h-513z
M642 125l2 -6h-614v47h128v-27l8 -14h476zM158 358v-26h-128v34h614l-1.5 -6l-0.5 -2h-484zM30 483h630q0 -7 -1 -10h-629v10zM186 615v18h126v-18h-126zM376 615v18h126v-18h-126zM502 560h-126v6h126v-6zM312 560h-126v6h126v-6z" />
    <glyph glyph-name="FL00ECh" unicode="&#xec;" horiz-adv-x="188" 
d="M30 49v50h128v-50h-128zM30 119v47h128v-47h-128zM30 190v43h128v-43h-128zM30 261v38h128v-38h-128zM30 332v34h128v-34h-128zM158 0h-128v33h128v-33zM30 403v30h128v-30h-128zM30 615l-9 18h131l8 -18h-130zM158 483v-10h-128v10h128zM58 559l-4 7h127l3 -7h-126z" />
    <glyph glyph-name="FL00EDh" unicode="&#xed;" horiz-adv-x="188" 
d="M30 49v50h128v-50h-128zM30 119v47h128v-47h-128zM30 190v43h128v-43h-128zM30 261v38h128v-38h-128zM30 332v34h128v-34h-128zM158 0h-128v33h128v-33zM30 403v30h128v-30h-128zM29 615l8 18h131l-9 -18h-130zM158 483v-10h-128v10h128zM131 559h-126l3 7h126z" />
    <glyph glyph-name="FL00EEh" unicode="&#xee;" horiz-adv-x="188" 
d="M30 49v50h128v-50h-128zM30 119v47h128v-47h-128zM30 190v43h128v-43h-128zM30 261v38h128v-38h-128zM30 332v34h128v-34h-128zM158 0h-128v33h128v-33zM30 403v30h128v-30h-128zM-39 615l8 18h122l-7 -18h-123zM107 615l-7 18h121l8 -18h-122zM30 483h128v-10h-128v10z
M250 566l3 -7h-126l-3 7h126zM63 559h-126l3 7h125z" />
    <glyph glyph-name="FL00EFh" unicode="&#xef;" horiz-adv-x="188" 
d="M30 49v50h128v-50h-128zM30 119v47h128v-47h-128zM30 190v43h128v-43h-128zM30 261v38h128v-38h-128zM30 332v34h128v-34h-128zM158 0h-128v33h128v-33zM30 403v30h128v-30h-128zM-63 615v18h126v-18h-126zM127 615v18h126v-18h-126zM30 483h128v-10h-128v10zM63 559
h-126v7h126v-7zM253 559h-126v7h126v-7z" />
    <glyph glyph-name="FL00F0h" unicode="&#xf0;" horiz-adv-x="690" 
d="M658 99q-6 -27 -24 -50h-604v50h628zM30 190v43h630v-43h-630zM30 283l14 16h616v-38h-630v22zM39 403q-2 8 -2.5 15t-1.5 15h625v-30h-621zM543 0h-513v33h589q-17 -15 -36.5 -24t-39.5 -9zM524 125l8 14v27h128v-47h-630v47h128v-41h366zM48 358q-1 0 -3 8h615v-34
h-128v26h-484zM660 483v-10h-630v10h630z" />
    <glyph glyph-name="FL00F1h" unicode="&#xf1;" 
d="M388 119l-56 47h326v-47h-270zM472 49l-60 50h246v-50h-186zM30 332v34h267l41 -34h-308zM304 190l-51 43h205l52 -43h-206zM219 261l-45 38h204l46 -38h-205zM30 49v50h128v-50h-128zM30 403v30h186l36 -30h-222zM30 119v47h128v-47h-128zM30 190v43h128v-43h-128z
M534 190v43h124v-43h-124zM658 0h-128l-39 33h167v-33zM30 261v38h128v-38h-128zM534 261v38h124v-38h-124zM158 0h-128v33h128v-33zM534 332v34h124v-34h-124zM534 403v30h124v-30h-124zM291 615l-6 18h112l7 -18h-113zM413 615l7 18h112l-7 -18h-112zM160 615l7 18h112
l-7 -18h-112zM30 483h126l12 -10h-138v10zM534 473v10h124v-10h-124zM504 560h-192l-2 6h196zM252 559h-114l3 7h113z" />
    <glyph glyph-name="FL00F2h" unicode="&#xf2;" 
d="M658 99q-2 -26 -21 -50h-585q-19 23 -22 50h628zM639 433q7 -8 11 -15.5t6 -14.5h-626v30h609zM621 33q-17 -15 -39 -24t-41 -9h-394q-20 0 -41 9t-38 24h553zM158 136l11 -11h361v41h128v-47h-628v47h128v-30zM530 332v23h-372v-23h-128v34h628v-34h-128zM30 190v43h128
v-43h-128zM530 190v43h128v-43h-128zM30 483h527q16 0 35 -10h-562v10zM30 261v38h128v-38h-128zM530 261v38h128v-38h-128zM270 615l-9 18h131l7 -18h-129zM421 566l2 -5h-126l-3 5h127z" />
    <glyph glyph-name="FL00F3h" unicode="&#xf3;" 
d="M658 99q-2 -26 -21 -50h-585q-19 23 -22 50h628zM639 433q7 -8 11 -15.5t6 -14.5h-626v30h609zM621 33q-17 -15 -39 -24t-41 -9h-394q-20 0 -41 9t-38 24h553zM158 136l11 -11h361v41h128v-47h-628v47h128v-30zM530 332v23h-372v-23h-128v34h628v-34h-128zM30 190v43h128
v-43h-128zM530 190v43h128v-43h-128zM30 483h527q16 0 35 -10h-562v10zM30 261v38h128v-38h-128zM530 261v38h128v-38h-128zM288 615l8 18h131l-9 -18h-130zM391 561h-126l2 5h126z" />
    <glyph glyph-name="FL00F4h" unicode="&#xf4;" 
d="M658 99q-2 -26 -21 -50h-585q-19 23 -22 50h628zM639 433q7 -8 11 -15.5t6 -14.5h-626v30h609zM621 33q-17 -15 -39 -24t-41 -9h-394q-20 0 -41 9t-38 24h553zM158 136l11 -11h361v41h128v-47h-628v47h128v-30zM530 332v23h-372v-23h-128v34h628v-34h-128zM30 190v43h128
v-43h-128zM530 190v43h128v-43h-128zM30 483h527q16 0 35 -10h-562v10zM530 261v38h128v-38h-128zM30 261v38h128v-38h-128zM209 615l8 18h123l-7 -18h-124zM356 615l-7 18h121l8 -18h-122zM312 560h-126l2 6h126zM499 566l3 -6h-126l-2 6h125z" />
    <glyph glyph-name="FL00F5h" unicode="&#xf5;" 
d="M658 99q-2 -26 -21 -50h-585q-19 23 -22 50h628zM639 433q7 -8 11 -15.5t6 -14.5h-626v30h609zM621 33q-17 -15 -39 -24t-41 -9h-394q-20 0 -41 9t-38 24h553zM158 136l11 -11h361v41h128v-47h-628v47h128v-30zM530 332v23h-372v-23h-128v34h628v-34h-128zM30 190v43h128
v-43h-128zM530 190v43h128v-43h-128zM30 483h527q16 0 35 -10h-562v10zM30 261v38h128v-38h-128zM530 261v38h128v-38h-128zM413 615l7 18h113l-7 -18h-113zM291 615l-6 18h112l7 -18h-113zM160 615l7 18h112l-7 -18h-112zM505 560h-193l-2 6h197zM252 559h-114l3 7h113z
" />
    <glyph glyph-name="FL00F6h" unicode="&#xf6;" 
d="M658 99q-2 -26 -21 -50h-585q-19 23 -22 50h628zM639 433q7 -8 11 -15.5t6 -14.5h-626v30h609zM621 33q-17 -15 -39 -24t-41 -9h-394q-20 0 -41 9t-38 24h553zM158 136l11 -11h361v41h128v-47h-628v47h128v-30zM530 332v23h-372v-23h-128v34h628v-34h-128zM30 190v43h128
v-43h-128zM530 190v43h128v-43h-128zM30 483h527q16 0 35 -10h-562v10zM30 261v38h128v-38h-128zM530 261v38h128v-38h-128zM376 615v18h126v-18h-126zM186 615v18h126v-18h-126zM312 560h-126v6h126v-6zM502 560h-126v6h126v-6z" />
    <glyph glyph-name="FL00F7h" unicode="&#xf7;" horiz-adv-x="578" 
d="M540 233q-2 -13 -3 -24t-3 -19h-504v43h510zM548 299q-1 -7 -1.5 -16.5t-2.5 -21.5h-514v38h518zM214 49v50h126v-50h-126zM214 403v30h126v-30h-126zM340 344h-126v22h126v-22zM340 12h-126v21h126v-21zM214 137h126v-18h-126v18z" />
    <glyph glyph-name="FL00F8h" unicode="&#xf8;" 
d="M658 99q-2 -26 -21 -50h-585q-19 23 -22 50h628zM303 125h227v41h128v-47h-628v47h128v-30l1 -2l30 32h153zM639 433q7 -8 11 -15.5t6 -14.5h-626v30h609zM621 33q-17 -15 -39 -24t-41 -9h-394q-20 0 -41 9t-38 24h553zM522 355l-22 -23h-156l22 23h-208v-23h-128v34h628
v-34h-128v23h-8zM211 190l41 43h154l-41 -43h-154zM278 261l35 38h155l-36 -38h-154zM530 190v43h128v-43h-128zM30 190v43h128v-43h-128zM557 483q16 0 35 -10h-562v10h527zM530 261v38h128v-38h-128zM30 261v38h128v-38h-128z" />
    <glyph glyph-name="FL00F9h" unicode="&#xf9;" 
d="M52 49q-19 23 -22 50h628v-50h-606zM147 0q-20 0 -41 9t-38 24h590v-33h-511zM158 136l11 -11h361v41h128v-47h-628v47h128v-30zM30 190v43h128v-43h-128zM530 190v43h128v-43h-128zM30 261v38h128v-38h-128zM530 261v38h128v-38h-128zM30 332v34h128v-34h-128zM530 332
v34h128v-34h-128zM530 403v30h128v-30h-128zM30 403v30h128v-30h-128zM270 615l-9 18h131l7 -18h-129zM158 483v-10h-128v10h128zM658 483v-10h-128v10h128zM297 561l-3 5h127l2 -5h-126z" />
    <glyph glyph-name="FL00FAh" unicode="&#xfa;" 
d="M52 49q-19 23 -22 50h628v-50h-606zM147 0q-20 0 -41 9t-38 24h590v-33h-511zM158 136l11 -11h361v41h128v-47h-628v47h128v-30zM30 190v43h128v-43h-128zM530 190v43h128v-43h-128zM30 261v38h128v-38h-128zM530 261v38h128v-38h-128zM30 332v34h128v-34h-128zM530 332
v34h128v-34h-128zM30 403v30h128v-30h-128zM530 403v30h128v-30h-128zM288 615l8 18h131l-9 -18h-130zM158 483v-10h-128v10h128zM658 483v-10h-128v10h128zM391 561h-126l2 5h126z" />
    <glyph glyph-name="FL00FBh" unicode="&#xfb;" 
d="M52 49q-19 23 -22 50h628v-50h-606zM147 0q-20 0 -41 9t-38 24h590v-33h-511zM158 136l11 -11h361v41h128v-47h-628v47h128v-30zM30 190v43h128v-43h-128zM530 190v43h128v-43h-128zM30 261v38h128v-38h-128zM530 261v38h128v-38h-128zM30 332v34h128v-34h-128zM530 332
v34h128v-34h-128zM30 403v30h128v-30h-128zM530 403v30h128v-30h-128zM209 615l8 18h123l-7 -18h-124zM356 615l-7 18h121l8 -18h-122zM158 483v-10h-128v10h128zM658 483v-10h-128v10h128zM312 560h-126l2 6h126zM376 560l-2 6h125l3 -6h-126z" />
    <glyph glyph-name="FL00FCh" unicode="&#xfc;" 
d="M52 49q-19 23 -22 50h628v-50h-606zM147 0q-20 0 -41 9t-38 24h590v-33h-511zM158 136l11 -11h361v41h128v-47h-628v47h128v-30zM30 190v43h128v-43h-128zM530 190v43h128v-43h-128zM30 261v38h128v-38h-128zM530 261v38h128v-38h-128zM30 332v34h128v-34h-128zM530 332
v34h128v-34h-128zM30 403v30h128v-30h-128zM530 403v30h128v-30h-128zM186 615v18h126v-18h-126zM376 615v18h126v-18h-126zM158 483v-10h-128v10h128zM658 483v-10h-128v10h128zM502 560h-126v6h126v-6zM312 560h-126v6h126v-6z" />
    <glyph glyph-name="FL00FDh" unicode="&#xfd;" horiz-adv-x="654" 
d="M198 261l-31 38h317l-32 -38h-254zM256 190l-35 43h207l-36 -43h-136zM264 49v50h122v-50h-122zM264 119v47h122v-47h-122zM350 332l28 34h162l-29 -34h-161zM140 332l-28 34h160l29 -34h-161zM408 403l25 30h163l-25 -30h-163zM81 403l-24 30h157l26 -30h-159zM386 0
h-122v33h122v-33zM267 615l8 18h131l-9 -18h-130zM638 483l-9 -10h-163l8 10h164zM16 483h155l8 -10h-155zM370 560h-126l2 6h127z" />
    <glyph glyph-name="FL00FEh" unicode="&#xfe;" 
d="M651 166q-5 -12 -14 -24.5t-20 -22.5h-587v47h621zM658 195q0 -2 -0.5 -3t-0.5 -2h-627v43h128v-16h360l14 12v4h126v-38zM622 366q14 -16 22 -34h-614v34h592zM520 272h-362v-11h-128v38h623q2 -10 3 -19.5t1 -18.5h-125v4zM588 99q-13 -7 -31 -7h-399v-43h-128v50h558z
M158 0h-128v33h128v-33zM30 403v30h128v-30h-128zM30 483h128v-10h-128v10z" />
    <glyph glyph-name="FL00FFh" unicode="&#xff;" horiz-adv-x="654" 
d="M198 261l-31 38h317l-32 -38h-254zM256 190l-35 43h207l-36 -43h-136zM264 49v50h122v-50h-122zM264 119v47h122v-47h-122zM350 332l28 34h162l-29 -34h-161zM140 332l-28 34h160l29 -34h-161zM408 403l25 30h163l-25 -30h-163zM81 403l-24 30h157l26 -30h-159zM386 0
h-122v33h122v-33zM166 615v18h126v-18h-126zM356 615v18h126v-18h-126zM638 483l-9 -10h-163l8 10h164zM16 483h155l8 -10h-155zM482 561h-126v5h126v-5zM292 561h-126v5h126v-5z" />
    </font>
</defs>
</svg>
