<?xml version="1.0" standalone="no"?>
<!DOCTYPE svg PUBLIC "-//W3C//DTD SVG 1.1//EN" "http://www.w3.org/Graphics/SVG/1.1/DTD/svg11.dtd" >
<svg xmlns="http://www.w3.org/2000/svg" xmlns:xlink="http://www.w3.org/1999/xlink" version="1.1">
<metadata>
Created by FontForge 20190801 at Wed Jun 11 13:38:56 2014
 By Jimmy Wärting
2013 Iconian Fonts - www.iconian.com
</metadata>
<defs>
<font id="GhostClan" horiz-adv-x="688" >
  <font-face 
    font-family="Ghost Clan"
    font-weight="400"
    font-stretch="normal"
    units-per-em="1000"
    panose-1="0 0 0 0 0 0 0 0 0 0"
    ascent="800"
    descent="-200"
    x-height="483"
    cap-height="483"
    bbox="-63 -170 1181 686"
    underline-thickness="50"
    underline-position="-125"
    unicode-range="U+0020-2122"
  />
<missing-glyph horiz-adv-x="500" 
 />
    <glyph glyph-name=".notdef" horiz-adv-x="500" 
 />
    <glyph glyph-name=".null" horiz-adv-x="0" 
 />
    <glyph glyph-name="nonmarkingreturn" horiz-adv-x="500" 
 />
    <glyph glyph-name="space" unicode=" " horiz-adv-x="490" 
 />
    <glyph glyph-name="space" unicode="&#xa0;" horiz-adv-x="490" 
 />
    <glyph glyph-name="FL0021h" unicode="!" horiz-adv-x="188" 
d="M30 483h128v-326h-128v326zM30 125h128v-125h-128v125z" />
    <glyph glyph-name="FL0022h" unicode="&#x22;" horiz-adv-x="454" 
d="M244 483l-117 -139h-97v75l54 64h160zM438 483l-117 -139h-97v75l54 64h160z" />
    <glyph glyph-name="FL0023h" unicode="#" horiz-adv-x="689" 
d="M142 483h128v-90h145v90h128v-90h116q0 -9 -2.5 -29.5t-5.5 -42t-5.5 -37.5t-3.5 -16h-99v-52h116q0 -9 -2.5 -29.5t-5.5 -42t-5.5 -37.5t-3.5 -16h-99v-91h-128v91h-145v-91h-128v91h-112v125h112v52h-112v125h112v90zM415 268h-145v-52h145v52z" />
    <glyph glyph-name="FL0024h" unicode="$" horiz-adv-x="689" 
d="M282 597h128v-114h249l-1 -15q-2 -13 -4.5 -31.5t-5 -36t-4.5 -30l-2 -12.5h-232v-54h131q18 0 38.5 -9t38 -24t29 -33t11.5 -36v-101q0 -17 -10 -35t-25 -32.5t-32.5 -24t-33.5 -9.5h-147v-114h-128v114h-232q0 9 2.5 29.5t5.5 41.5t5.5 37.5t3.5 16.5h215v53h-150
q-18 0 -35 10.5t-31 26t-23.5 33.5t-12.5 33v50q0 27 6.5 54t20.5 48.5t36 35.5t54 14h135v114zM158 351v-47h124v54h-113zM530 125v45l-10 8h-110v-53h120z" />
    <glyph glyph-name="FL0025h" unicode="%" horiz-adv-x="794" 
d="M450 0h264q7 0 16 4.5t16.5 11t12.5 15t5 16.5v144q0 10 -5.5 19t-14.5 16t-19 11t-19 4h-197q-10 0 -20.5 -4.5t-19 -11.5t-14 -17t-5.5 -20v-188zM545 152l4 4h119v-74h-123v70zM550 483l-456 -483h154l456 483h-154zM30 241h264q7 0 16 4.5t16.5 11t12.5 15t5 16.5
v144q0 10 -5.5 19t-14.5 16t-19 11t-19 4h-197q-10 0 -20.5 -4.5t-19 -11.5t-14 -17t-5.5 -20v-188zM125 393l4 4h119v-74h-123v70z" />
    <glyph glyph-name="FL002Ah" unicode="&#x26;" horiz-adv-x="738" 
d="M156 304h552q0 -9 -2.5 -29.5t-5.5 -42t-5.5 -37.5t-3.5 -16h-70v-78q0 -17 -5 -35t-17 -32.5t-31.5 -24t-47.5 -9.5h-389q-29 0 -48 9.5t-31 24t-17 32.5t-5 35v85q0 11 9 27t16 26l2 3q-5 3 -10 11t-9 16.5t-6 16t-2 9.5v188h528q0 -9 -2.5 -29.5t-5.5 -42t-5.5 -37.5
t-3.5 -16h-385v-54zM483 125l12 7v46h-339v-46l12 -7h315z" />
    <glyph glyph-name="quotesingle" unicode="'" horiz-adv-x="260" 
d="M244 483l-117 -139h-97v75q0 2 54 64h160z" />
    <glyph glyph-name="FL0028h" unicode="(" horiz-adv-x="405" 
d="M30 -26h345q0 9 -2.5 30t-5.5 42t-6 37t-4 16h-199v269l8 14h191q2 0 5 16t6 37t5 41.5t2 30.5h-228q-21 0 -42 -10t-37.5 -26.5t-27 -37.5t-10.5 -43v-416z" />
    <glyph glyph-name="FL0029h" unicode=")" horiz-adv-x="405" 
d="M374 -26h-345q0 9 2.5 30t5.5 42t6 37t4 16h199v269l-8 14h-191q-2 0 -5 16t-6 37t-5 41.5t-2 30.5h228q21 0 42 -10t37.5 -26.5t27 -37.5t10.5 -43v-416z" />
    <glyph glyph-name="FL0F98h" unicode="*" horiz-adv-x="238" 
d="M136 369l-20 30l-20 -30l-59 42l27 28l-34 9l22 63l30 -16l-3 34h72v-34l30 16l27 -64l-36 -9l20 -26z" />
    <glyph glyph-name="FL002Bh" unicode="+" horiz-adv-x="416" 
d="M271 418v-115h115v-125h-115v-116h-125v116h-116v125h116v115h125z" />
    <glyph glyph-name="FL002Ch" unicode="," horiz-adv-x="186" 
d="M156 125v-125l-53 -54h-73v179h126z" />
    <glyph glyph-name="FL002Dh" unicode="-" horiz-adv-x="416" 
d="M30 303v-125h339q1 0 3.5 16t5.5 37.5t5.5 42t2.5 29.5h-356z" />
    <glyph glyph-name="FL002Eh" unicode="." horiz-adv-x="186" 
d="M30 125h126v-125h-126v125z" />
    <glyph glyph-name="FL002Fh" unicode="/" horiz-adv-x="642" 
d="M472 483l-456 -483h154l456 483h-154z" />
    <glyph glyph-name="FL0030h" unicode="0" 
d="M30 0h527q15 0 32.5 9t33 23t25.5 30.5t10 32.5v287q0 20 -11.5 38.5t-28.5 32.5t-38 22t-39 8h-394q-20 0 -40.5 -9t-37.5 -23.5t-28 -33.5t-11 -40v-377zM158 347l11 11h361v-230h-372v219z" />
    <glyph glyph-name="FL0031h" unicode="1" horiz-adv-x="272" 
d="M114 358h-84v125h212v-483h-128v358z" />
    <glyph glyph-name="FL0032h" unicode="2" horiz-adv-x="689" 
d="M158 125v45l10 8h388q18 0 35 10.5t31 26t23.5 33.5t12.5 33v50q0 27 -6.5 54t-20.5 48.5t-36.5 35.5t-53.5 14h-512l1 -15q1 -13 4 -31.5t5.5 -36t4.5 -30l2 -12.5h473l11 -7v-47h-383q-18 0 -38.5 -9t-38 -24t-29 -33t-11.5 -36v-202h608q0 9 -2.5 29.5t-5.5 41.5
t-5.5 37.5t-3.5 16.5h-463z" />
    <glyph glyph-name="FL0033h" unicode="3" 
d="M30 125h490l12 7v46h-502v126h502v47l-12 7h-490v125h513q35 0 57.5 -13t35 -34t17.5 -47t5 -51v-43q0 -3 -2.5 -10t-6.5 -15.5t-9 -16.5t-9 -11l2 -3q7 -10 16 -26t9 -27v-85q0 -17 -5 -35t-17 -32.5t-31.5 -24t-47.5 -9.5h-527v125z" />
    <glyph glyph-name="FL0034h" unicode="4" horiz-adv-x="736" 
d="M248 404q8 13 20.5 27.5t28 25.5t32.5 18.5t35 7.5h235v-235h107q0 -9 -2.5 -30t-5.5 -43t-5.5 -38.5t-3.5 -16.5h-90v-120h-125v121h-458zM474 356h-99l-90 -108h189v108z" />
    <glyph glyph-name="FL0035h" unicode="5" horiz-adv-x="689" 
d="M530 125v45l-10 8h-388q-18 0 -35 10.5t-31 26t-23.5 33.5t-12.5 33v202h629l-1 -15q-2 -13 -4.5 -31.5t-5 -36t-4.5 -30l-2 -12.5h-484v-54h383q18 0 38.5 -9t38 -24t29 -33t11.5 -36v-101q0 -17 -10 -35t-25 -32.5t-32.5 -24t-33.5 -9.5h-507q0 9 2.5 29.5t5.5 41.5
t5.5 37.5t3.5 16.5h463z" />
    <glyph glyph-name="FL0037h" unicode="6" horiz-adv-x="690" 
d="M660 283v-283h-513q-21 0 -42 10t-37.5 26.5t-27 37.5t-10.5 43v366h630q0 -9 -2.5 -30t-5.5 -42t-6 -37t-4 -16h-484v-55h484zM158 178v-39l8 -14h366v53h-374z" />
    <glyph glyph-name="FL0038h" unicode="7" horiz-adv-x="646" 
d="M251 0v125l365 252v106h-586v-125h365l-270 -186v-172h126z" />
    <glyph glyph-name="FL0039h" unicode="8" 
d="M30 295v188h513q35 0 57.5 -13t35 -34t17.5 -47t5 -51v-43q0 -3 -2.5 -10t-6.5 -15.5t-9 -16.5t-9 -11l2 -3q7 -10 16 -26t9 -27v-85q0 -17 -5 -35t-17 -32.5t-31.5 -24t-47.5 -9.5h-426q-29 0 -48 9.5t-31 24t-17 32.5t-5 35v85q0 11 9 27t16 26l2 3q-5 3 -10 11
t-9 16.5t-6 16t-2 9.5zM156 358v-54h376v47l-12 7h-364zM168 125h352l12 7v46h-376v-46z" />
    <glyph glyph-name="FL003Ah" unicode="9" horiz-adv-x="690" 
d="M30 200v283h513q21 0 42 -10t37.5 -26.5t27 -37.5t10.5 -43v-366h-630q0 9 2.5 30t5.5 42t6 37t4 16h484v55h-484zM532 305v39l-8 14h-366v-53h374z" />
    <glyph glyph-name="FL003Bh" unicode=":" horiz-adv-x="186" 
d="M30 125h126v-125h-126v125zM30 359h126v-125h-126v125z" />
    <glyph glyph-name="FL003Dh" unicode=";" horiz-adv-x="186" 
d="M30 359h126v-125h-126v125zM156 125v-125l-53 -54h-73v179h126z" />
    <glyph glyph-name="FL003Ch" unicode="&#x3c;" horiz-adv-x="414" 
d="M244 0l-228 241l228 242h154l-228 -242l228 -241h-154z" />
    <glyph glyph-name="FL003Fh" unicode="=" horiz-adv-x="416" 
d="M31 393v-125h339q1 0 3.5 16t5.5 37.5t5.5 42t2.5 29.5h-356zM31 216v-125h339q1 0 3.5 16t5.5 37.5t5.5 42t2.5 29.5h-356z" />
    <glyph glyph-name="FL003Eh" unicode="&#x3e;" horiz-adv-x="414" 
d="M170 0l228 241l-228 242h-154l228 -242l-228 -241h154z" />
    <glyph glyph-name="FL0040h" unicode="?" horiz-adv-x="689" 
d="M216 170v-14h-128v46q0 18 12 36t29.5 33t38 24t37.5 9h325v47l-11 7h-473l-2 12.5t-4.5 30t-5.5 36t-4 31.5l-1 15h512q31 0 53.5 -14t36.5 -35.5t20.5 -48.5t6.5 -54v-50q-3 -15 -12.5 -33t-23.5 -33.5t-31 -26t-35 -10.5h-330zM88 125h128v-125h-128v125z" />
    <glyph glyph-name="FL0CA8h" unicode="@" horiz-adv-x="750" 
d="M720 120h-539v188q0 10 5.5 20t14 17t19 11.5t20.5 4.5h271q9 0 19 -4t19 -11t14.5 -16t5.5 -19v-66h23v123l-8 14h-418l-8 -14v-269h393q1 0 4 -16t6 -37t5.5 -42t2.5 -30h-539v416q0 22 10.5 43t27 37.5t37.5 26.5t42 10h456q21 0 42 -10t37.5 -26.5t27 -37.5t10.5 -43
v-270zM280 276l-4 -4v-70h197v74h-193z" />
    <glyph glyph-name="FL0041h" unicode="A" horiz-adv-x="708" 
d="M16 0l259 404q8 13 20.5 27.5t28 25.5t32.5 18.5t35 7.5h287v-483h-125v121h-307l-82 -121h-148zM553 356h-151q-3 0 -14.5 -14.5t-24.5 -33t-24 -36t-14 -24.5h228v108z" />
    <glyph glyph-name="FL0042h" unicode="B" 
d="M158 304h374v47l-12 7h-362v-54zM543 483q35 0 57.5 -13t35 -34t17.5 -47t5 -51v-43q0 -3 -2.5 -10t-6.5 -15.5t-9 -16.5t-9 -11l2 -3q7 -10 16 -26t9 -27v-85q0 -17 -5 -35t-17 -32.5t-31.5 -24t-47.5 -9.5h-527v483h513zM158 125h362l12 7v46h-374v-53z" />
    <glyph glyph-name="FL0043h" unicode="C" horiz-adv-x="690" 
d="M30 483h630q0 -9 -2.5 -30t-5.5 -42t-6 -37t-4 -16h-484v-219l8 -14h476q2 0 5 -16t6 -37t5 -41.5t2 -30.5h-513q-21 0 -42 10t-37.5 26.5t-27 37.5t-10.5 43v366z" />
    <glyph glyph-name="FL0044h" unicode="D" 
d="M30 483h527q15 0 32.5 -9t33 -23t25.5 -30.5t10 -32.5v-287q0 -20 -11.5 -38.5t-28.5 -32.5t-38 -22t-39 -8h-511v483zM158 125h372v230h-372v-230z" />
    <glyph glyph-name="FL0045h" unicode="E" horiz-adv-x="690" 
d="M30 483v-366q0 -22 10.5 -43t27 -37.5t37.5 -26.5t42 -10h513q0 10 -2 30.5t-5 41.5t-6 37t-5 16h-476l-8 14v39h446q1 0 3.5 16t5.5 37.5t5.5 42t2.5 29.5h-463v55h484q1 0 4 16t6 37t5.5 42t2.5 30h-630z" />
    <glyph glyph-name="FL0046h" unicode="F" horiz-adv-x="690" 
d="M30 483v-483h128v178h446q1 0 3.5 16t5.5 37.5t5.5 42t2.5 29.5h-463v55h484q1 0 4 16t6 37t5.5 42t2.5 30h-630z" />
    <glyph glyph-name="FL0047h" unicode="G" horiz-adv-x="690" 
d="M660 283l-18 20h-306v-125h196v-53h-366l-8 14v219h484q1 0 4 16t6 37t5.5 42t2.5 30h-630v-366q0 -22 10.5 -43t27 -37.5t37.5 -26.5t42 -10h513v283z" />
    <glyph glyph-name="FL0048h" unicode="H" horiz-adv-x="684" 
d="M526 483v-180h-368v180h-128v-483h128v178h368v-178h128v483h-128z" />
    <glyph glyph-name="FL0049h" unicode="I" horiz-adv-x="644" 
d="M614 125v-125h-584v125h228v233h-228v125h584v-125h-228v-233h228z" />
    <glyph glyph-name="FL006Ah" unicode="J" horiz-adv-x="528" 
d="M93 0h288q18 0 39 8t38 22t28.5 32.5t11.5 38.5v382h-128v-358h-354q13 -38 32.5 -68.5t44.5 -56.5z" />
    <glyph glyph-name="FL004Bh" unicode="K" horiz-adv-x="667" 
d="M496 483l-173 -180h-165v180h-128v-483h128v178h160l170 -178h163l-231 238l230 245h-154z" />
    <glyph glyph-name="l" unicode="L" horiz-adv-x="562" 
d="M30 483h126v-358h390q-10 -35 -29 -68t-47 -57h-440v483z" />
    <glyph glyph-name="FL004Dh" unicode="M" horiz-adv-x="794" 
d="M30 483h136l232 -363l230 363h136v-483h-125v260l-168 -260h-147l-168 260v-260h-126v483z" />
    <glyph glyph-name="FL004Eh" unicode="N" 
d="M30 483h126l378 -313v313h124v-483h-128l-372 313v-313h-128v483z" />
    <glyph glyph-name="FL004Fh" unicode="O" 
d="M30 483h527q15 0 32.5 -9t33 -23t25.5 -30.5t10 -32.5v-287q0 -20 -11.5 -38.5t-28.5 -32.5t-38 -22t-39 -8h-394q-20 0 -40.5 9t-37.5 23.5t-28 33.5t-11 40v377zM158 136l11 -11h361v230h-372v-219z" />
    <glyph glyph-name="FL0050h" unicode="P" 
d="M30 483v-483h128v121h399q24 0 43 10.5t32 26t19.5 33.5t6.5 33v107q0 27 -6 54t-20 48.5t-36 35.5t-53 14h-513zM158 358h362l12 -7v-93l-12 -11h-362v111z" />
    <glyph glyph-name="FL0071h" unicode="Q" 
d="M30 106q0 -21 11 -40t28 -33.5t37.5 -23.5t40.5 -9h511v388q0 16 -10 32.5t-25.5 30.5t-33 23t-32.5 9h-527v-377zM268 238l107 -113h-206l-11 11v219h372v-222l-103 105h-159z" />
    <glyph glyph-name="FL0052h" unicode="R" 
d="M30 483h513q36 0 58 -14t35 -35.5t17.5 -48.5t4.5 -54v-50q0 -14 -8 -32t-22 -33.5t-32.5 -26.5t-38.5 -11h-72l173 -178h-165l-170 178h-165v-178h-128v483zM158 358v-55h360l14 12v36l-12 7h-362z" />
    <glyph glyph-name="FL0053h" unicode="S" horiz-adv-x="689" 
d="M530 125v45l-10 8h-388q-18 0 -35 10.5t-31 26t-23.5 33.5t-12.5 33v50q0 27 6.5 54t20.5 48.5t36 35.5t54 14h512l-1 -15q-2 -13 -4.5 -31.5t-5 -36t-4.5 -30l-2 -12.5h-473l-11 -7v-47h383q18 0 38.5 -9t38 -24t29 -33t11.5 -36v-101q0 -17 -10 -35t-25 -32.5
t-32.5 -24t-33.5 -9.5h-507q0 9 2.5 29.5t5.5 41.5t5.5 37.5t3.5 16.5h463z" />
    <glyph glyph-name="T" unicode="T" 
d="M278 358h-248v125h628v-125h-252v-358h-128v358z" />
    <glyph glyph-name="FL0075h" unicode="U" 
d="M158 136v347h-128v-377q0 -21 11 -40t28 -33.5t37.5 -23.5t40.5 -9h394q18 0 39 8t38 22t28.5 32.5t11.5 38.5v382h-128v-358h-361z" />
    <glyph glyph-name="FL0036h" unicode="V" horiz-adv-x="653" 
d="M482 483l-154 -316l-157 316h-155l260 -483h105l256 483h-155z" />
    <glyph glyph-name="FL0057h" unicode="W" horiz-adv-x="794" 
d="M764 0h-136l-230 364l-231 -364h-137v483h126v-261l167 261h148l168 -261v261h125v-483z" />
    <glyph glyph-name="FL0079h" unicode="X" horiz-adv-x="654" 
d="M483 483l-156 -161l-155 161h-155l230 -245l-231 -238h165l146 155l147 -155h164l-231 238l230 245h-154z" />
    <glyph glyph-name="FL0059h" unicode="Y" horiz-adv-x="654" 
d="M264 180l-248 303h155l156 -180l147 180h164l-252 -301v-182h-122v180z" />
    <glyph glyph-name="FL005Ah" unicode="Z" horiz-adv-x="646" 
d="M616 125h-365l365 252v106h-586v-125h365l-365 -252v-106h586v125z" />
    <glyph glyph-name="FL005Bh" unicode="[" horiz-adv-x="405" 
d="M30 -26h345q0 9 -2.5 30t-5.5 42t-6 37t-4 16h-199v269l8 14h191q2 0 5 16t6 37t5 41.5t2 30.5h-345v-533z" />
    <glyph glyph-name="FL005Ch" unicode="\" horiz-adv-x="642" 
d="M170 483l456 -483h-154l-456 483h154z" />
    <glyph glyph-name="FL005Dh" unicode="]" horiz-adv-x="405" 
d="M374 -26h-345q0 9 2.5 30t5.5 42t6 37t4 16h199v269l-8 14h-191q-2 0 -5 16t-6 37t-5 41.5t-2 30.5h345v-533z" />
    <glyph glyph-name="FL005Eh" unicode="^" horiz-adv-x="708" 
d="M692 0l-259 404q-8 13 -20.5 27.5t-28 25.5t-32.5 18.5t-35 7.5h-287v-483h125v121h307l82 -121h148zM155 356h151q3 0 14.5 -14.5t24.5 -33t24 -36t14 -24.5h-228v108z" />
    <glyph glyph-name="FL005Fh" unicode="_" horiz-adv-x="536" 
d="M506 125v-125h-476v125h476z" />
    <glyph glyph-name="FL0060h" unicode="`" horiz-adv-x="220" 
d="M16 483h134l54 -125h-126z" />
    <glyph glyph-name="a" unicode="a" horiz-adv-x="708" 
d="M16 0l259 404q9 13 21.5 27.5t27.5 25.5t32 18.5t35 7.5h287v-483h-125v121h-307l-82 -121h-148zM553 356h-151q-3 0 -14.5 -14.5t-24.5 -33t-24 -36t-14 -24.5h228v108z" />
    <glyph glyph-name="FL00B5h" unicode="b" 
d="M158 304h374v47l-12 7h-362v-54zM543 483q35 0 57.5 -13t35 -34t17.5 -47t5 -51v-43q0 -3 -2.5 -10t-6.5 -15.5t-9 -16.5t-9 -11l2 -3q7 -10 16 -26t9 -27v-85q0 -17 -5 -35t-17 -32.5t-31.5 -24t-47.5 -9.5h-527v483h513zM158 125h362l12 7v46h-374v-53z" />
    <glyph glyph-name="c" unicode="c" horiz-adv-x="690" 
d="M30 483h630q0 -9 -2.5 -30t-5.5 -42t-6 -37t-4 -16h-484v-219l8 -14h476q2 0 5 -16t6 -37t5 -41.5t2 -30.5h-513q-21 0 -42 10t-37.5 26.5t-27 37.5t-10.5 43v366z" />
    <glyph glyph-name="FL0064h" unicode="d" 
d="M30 483h527q15 0 32.5 -9t33 -23t25.5 -30.5t10 -32.5v-287q0 -20 -11.5 -38.5t-28.5 -32.5t-38 -22t-39 -8h-511v483zM158 125h372v230h-372v-230z" />
    <glyph glyph-name="FL0065h" unicode="e" horiz-adv-x="690" 
d="M30 483v-366q0 -22 10.5 -43t27 -37.5t37.5 -26.5t42 -10h513q0 10 -2 30.5t-5 41.5t-6 37t-5 16h-476l-8 14v39h446q1 0 3.5 16t5.5 37.5t5.5 42t2.5 29.5h-463v55h484q1 0 4 16t6 37t5.5 42t2.5 30h-630z" />
    <glyph glyph-name="FL0066h" unicode="f" horiz-adv-x="690" 
d="M30 483v-483h128v121h446q1 0 3.5 16t5.5 37.5t5.5 42.5t2.5 30h-463v111h484q1 0 4 16t6 37t5.5 42t2.5 30h-630z" />
    <glyph glyph-name="FL0067h" unicode="g" horiz-adv-x="690" 
d="M660 283l-18 20h-306v-125h196v-53h-366l-8 14v219h484q1 0 4 16t6 37t5.5 42t2.5 30h-630v-366q0 -22 10.5 -43t27 -37.5t37.5 -26.5t42 -10h513v283z" />
    <glyph glyph-name="FL0068h" unicode="h" horiz-adv-x="684" 
d="M526 483v-180h-368v180h-128v-483h128v178h368v-178h128v483h-128z" />
    <glyph glyph-name="FL0069h" unicode="i" horiz-adv-x="188" 
d="M30 483h128v-483h-128v483z" />
    <glyph glyph-name="FL004Ah" unicode="j" horiz-adv-x="587" 
d="M440 0h-347q-29 26 -47.5 57.5t-29.5 67.5h413v233h-203v125h331v-382q0 -20 -11.5 -38.5t-28.5 -32.5t-38 -22t-39 -8z" />
    <glyph glyph-name="FL006Bh" unicode="k" horiz-adv-x="667" 
d="M651 483h-156l-153 -180h-184v180h-128v-483h128v178h184l153 -178h156l-196 240z" />
    <glyph glyph-name="FL004Ch" unicode="l" horiz-adv-x="562" 
d="M30 483v-483h515q0 10 -2 30.5t-5 41.5t-6 37t-5 16h-371v358h-126z" />
    <glyph glyph-name="m" unicode="m" horiz-adv-x="794" 
d="M30 483h136l232 -363l230 363h136v-483h-125v260l-168 -260h-147l-168 260v-260h-126v483z" />
    <glyph glyph-name="n" unicode="n" 
d="M30 483h126l378 -313v313h124v-483h-128l-372 313v-313h-128v483z" />
    <glyph glyph-name="o" unicode="o" 
d="M30 483h527q15 0 32.5 -9t33 -23t25.5 -30.5t10 -32.5v-287q0 -20 -11.5 -38.5t-28.5 -32.5t-38 -22t-39 -8h-394q-20 0 -40.5 9t-37.5 23.5t-28 33.5t-11 40v377zM158 136l11 -11h361v230h-372v-219z" />
    <glyph glyph-name="FL0070h" unicode="p" 
d="M30 483v-483h128v178h399q20 0 38.5 11t32.5 26.5t22 33.5t8 32v50q0 27 -4.5 54t-17.5 48.5t-35 35.5t-58 14h-513zM158 358h362l12 -7v-36l-14 -12h-360v55z" />
    <glyph glyph-name="FL0051h" unicode="q" 
d="M30 106v377h527q15 0 32.5 -9t33 -23t25.5 -30.5t10 -32.5v-388h-2l57 -59h-159l-58 59h-349q-20 0 -40.5 9t-37.5 23.5t-28 33.5t-11 40zM375 125l-107 113h159l103 -105v222h-372v-219l11 -11h206z" />
    <glyph glyph-name="FL0073h" unicode="r" 
d="M30 483h513q36 0 58 -14t35 -35.5t17.5 -48.5t4.5 -54v-50q0 -14 -8 -32t-22 -33.5t-32.5 -26.5t-38.5 -11h-72l173 -178h-165l-170 178h-165v-178h-128v483zM158 358v-55h360l14 12v36l-12 7h-362z" />
    <glyph glyph-name="s" unicode="s" horiz-adv-x="689" 
d="M530 125v45l-10 8h-388q-18 0 -35 10.5t-31 26t-23.5 33.5t-12.5 33v50q0 27 6.5 54t20.5 48.5t36 35.5t54 14h512l-1 -15q-2 -13 -4.5 -31.5t-5 -36t-4.5 -30l-2 -12.5h-473l-11 -7v-47h383q18 0 38.5 -9t38 -24t29 -33t11.5 -36v-101q0 -17 -10 -35t-25 -32.5
t-32.5 -24t-33.5 -9.5h-507q0 9 2.5 29.5t5.5 41.5t5.5 37.5t3.5 16.5h463z" />
    <glyph glyph-name="t" unicode="t" 
d="M278 358h-248v125h628v-125h-252v-358h-128v358z" />
    <glyph glyph-name="FL0055h" unicode="u" 
d="M158 136v347h-128v-377q0 -21 11 -40t28 -33.5t37.5 -23.5t40.5 -9h511v483h-128v-358h-361z" />
    <glyph glyph-name="FL0076h" unicode="v" horiz-adv-x="708" 
d="M553 127h-137l-252 356h-148l273 -404q9 -13 22 -27t28 -25.5t32 -19t34 -7.5h273v483h-125v-356z" />
    <glyph glyph-name="FL007Ch" unicode="w" horiz-adv-x="833" 
d="M669 483l-95 -257l-98 257h-114l-106 -258l-91 258h-149l183 -483h109l107 269l102 -269h110l190 483h-148z" />
    <glyph glyph-name="FL007Ah" unicode="x" horiz-adv-x="655" 
d="M639 483h-164l-147 -180l-156 180h-155l197 -241l-198 -242h155l156 180l147 -180h164l-201 241z" />
    <glyph glyph-name="y" unicode="y" horiz-adv-x="654" 
d="M264 180l-248 303h155l156 -180l147 180h164l-252 -301v-182h-122v180z" />
    <glyph glyph-name="FL007Bh" unicode="z" horiz-adv-x="646" 
d="M616 125h-365l365 252v106h-586v-125h365l-365 -252v-106h586v125z" />
    <glyph glyph-name="braceleft" unicode="{" horiz-adv-x="642" 
d="M420 -43l4 38q0 6 -1 7t-3 1q-1 0 -3 1.5t-3 7.5v22l-6 13v6q0 5 1.5 11t1.5 12v5q-2 2 -8 7.5t-7 7.5q-2 3 -2.5 12t-1.5 10q-2 5 -11.5 11t-14.5 9l-17 19q-2 1 -8 5.5t-12.5 9.5t-12.5 9.5t-8 6.5q0 1 -4 1h-3q-4 0 -10 -5t-12.5 -11t-12.5 -12t-9 -8q-25 -19 -48 -37
t-49 -35q-5 -4 -6 -7t-7 -8q0 -2 -3 -5t-7 -6.5t-7.5 -6.5t-4.5 -4q0 -2 -1 -12l-1 -10q-2 -9 -7 -11.5t-13 -7.5q-8 -6 -10 -11t-4.5 -8.5t-8.5 -6t-20 -2.5h-8q-7 0 -14.5 1.5t-7.5 6.5q0 4 2.5 10.5t5.5 9.5l40 41q4 2 4.5 5.5t0.5 5.5v11v4q0 5 1 6q1 0 8.5 8.5t7.5 9.5
q2 0 2.5 9.5t0.5 12.5q0 5 8 5q0 1 3.5 3t8 4.5t8 5t4.5 4.5l7 15q1 2 5.5 8t9.5 13t9.5 12.5t6.5 7.5q-1 0 -2.5 3l-1.5 3v4q2 7 7 12q1 2 4 7t6.5 11t6.5 10.5t5 6.5l48 66q0 4 -1.5 14.5t-4.5 21.5t-6 19t-6 8l-45 -4h-23q-5 5 -9 11.5t-4 13.5q0 1 1.5 4.5l1.5 3.5
q16 23 32 36.5t40 27.5q3 1 14 4.5t23 8t21 9.5t9 10v1q-1 4 -7.5 8.5t-6.5 21.5l1 10q9 3 14 9.5t10 12.5t12 11t21 5q29 0 43 -17t14 -43v-17q-5 -6 -13.5 -7t-14.5 -1h-2q-11 0 -20 3t-19 3q0 -10 8 -16t16 -6h4l13 9q7 0 12.5 -6t7.5 -6t5.5 3.5t4.5 3.5l1 7q0 2 2 2
q3 0 7.5 -3.5t10 -7.5t10.5 -7.5t9 -4.5h17q5 0 13 -2q-1 -1 -1 -7v-5q0 -7 2 -9.5t5.5 -4t9 -3t11.5 -6.5q3 -1 10.5 -2.5t15.5 -2.5t15.5 -2.5t9.5 -2.5h1q2 0 6 0.5t5 0.5v7q0 5 1.5 6.5t7.5 1.5q8 0 8 -8l-5 -8v-2q1 -2 2.5 -3t2.5 -2l-1 -19q0 -2 7 -3t15 -3t15 -4.5
t7 -6.5l-3 -7h-2q-11 0 -16.5 4t-16.5 6q-17 1 -35 3.5t-35 2.5q-12 0 -21 -5t-24 -5l-6 -6v-38q0 -2 -10.5 -4t-11.5 -2h-5v4q-2 10 -6 18q-9 -5 -19.5 -15t-10.5 -22v-52l2 -6q8 -11 15.5 -23t16.5 -24q15 -17 32.5 -35.5t23.5 -42.5q0 -3 0.5 -13t1 -21t1 -20.5
t0.5 -13.5v-41q-8 -5 -10 -13.5t-2 -16.5q0 -17 8.5 -26.5t18.5 -17.5t18.5 -17.5t8.5 -25.5q0 -10 -9 -11.5t-16 -1.5q-11 0 -18 4t-12 10t-10.5 12.5t-13.5 11.5q-8 6 -17 9t-9 15zM559 439v-6h3v6h-3z" />
    <glyph glyph-name="FL007Eh" unicode="|" horiz-adv-x="188" 
d="M30 597h128v-711h-128v711z" />
    <glyph glyph-name="FL007Dh" unicode="}" horiz-adv-x="642" 
d="M222 -43l-4 38q0 6 1 7t2 1q2 0 4 1.5t3 7.5v22l6 13v6q0 5 -1.5 11t-1.5 12v5q2 2 8 7.5t7 7.5q2 3 2.5 12t1.5 10q2 5 11.5 11t14.5 9l17 19q2 1 8 5.5t12.5 9.5t12.5 9.5t8 6.5q0 1 4 1h3q4 0 10 -5t12.5 -11t12.5 -12t9 -8q25 -19 48 -37t49 -35q5 -4 6 -7t7 -8
q0 -2 3 -5t7 -6.5t7.5 -6.5t4.5 -4q0 -2 1 -12l1 -10q2 -9 7 -11.5t13 -7.5q7 -6 9 -11t5 -9t9 -6t20 -2h8q7 0 14.5 1.5t7.5 6.5q0 4 -2.5 10.5t-5.5 9.5l-40 41q-4 2 -4.5 5.5t-0.5 5.5v11v4q0 5 -1 6q-1 0 -8.5 8.5t-7.5 9.5q-2 0 -2.5 9.5t-0.5 12.5q0 5 -8 5
q0 1 -3.5 3t-8 4.5t-8 5t-4.5 4.5l-7 15q-1 2 -5.5 8t-10 12.5t-10 12.5t-5.5 8q1 0 2.5 3l1.5 3v4l-3 6t-4 6q-1 2 -4 7t-7 10.5t-7 10.5t-4 7l-48 66q0 4 1.5 14.5t4.5 21.5t6 19t6 8l45 -4h23q5 5 9 11.5t4 13.5q0 1 -1.5 4.5l-1.5 3.5q-16 23 -32 36.5t-40 27.5
q-3 1 -14 4.5t-23 8t-21 9.5t-9 10v1q1 4 7.5 8.5t6.5 21.5l-1 10q-9 3 -14 9.5t-10 12.5t-12.5 11t-20.5 5q-29 0 -43 -17t-14 -43v-17q5 -6 13.5 -7t14.5 -1h2q11 0 20 3t19 3q0 -10 -8 -16t-16 -6h-4l-13 9q-7 0 -12.5 -6t-7.5 -6t-5.5 3.5t-4.5 3.5l-1 7q0 2 -2 2
q-3 0 -7.5 -3.5t-10 -7.5t-10.5 -7.5t-9 -4.5h-17q-5 0 -13 -2q1 -1 1 -7v-5q0 -7 -2 -9.5t-5.5 -4t-9 -3t-11.5 -6.5q-3 -1 -10.5 -2.5t-16 -2.5t-15.5 -2.5t-9 -2.5h-1q-2 0 -6 0.5t-5 0.5v7q0 5 -1.5 6.5t-7.5 1.5q-8 0 -8 -8l5 -8v-2q-1 -2 -2.5 -3t-2.5 -2l1 -19
q0 -2 -7 -3t-15 -3t-15 -4.5t-7 -6.5l3 -7h2q11 0 16.5 4t16.5 6q17 1 35 3.5t35 2.5q12 0 21 -5t24 -5l6 -6v-38q0 -2 10.5 -4t11.5 -2h5v4q1 10 6 18q9 -5 19.5 -15t10.5 -22v-52l-2 -6q-8 -11 -15.5 -23t-16.5 -24q-15 -17 -32.5 -35.5t-23.5 -42.5q0 -3 -0.5 -13t-1 -21
t-1 -20.5t-0.5 -13.5v-41q8 -5 10 -13.5t2 -16.5q0 -17 -8.5 -26.5t-18.5 -17.5t-18.5 -17.5t-8.5 -25.5q0 -10 9 -11.5t16 -1.5q11 0 18 4t12 10t10.5 12.5t13.5 11.5q8 6 17 9t9 15zM83 439v-6h-3v6h3z" />
    <glyph glyph-name="FL00BBh" unicode="~" horiz-adv-x="707" 
d="M156 127h151l237 356h147l-257 -404q-9 -13 -22 -27t-28 -25.5t-32 -19t-34 -7.5h-288v483h126v-356z" />
    <glyph glyph-name="FL007Fh" horiz-adv-x="146" 
 />
    <glyph glyph-name="FL20ACh" horiz-adv-x="771" 
d="M30 332h112v151h599q0 -9 -2.5 -30t-5.5 -42t-6 -37t-4 -16h-453v-26h227q0 -6 -3 -19.5t-7 -28t-7 -25t-4 -10.5h-206v-17h228q0 -6 -3 -20t-7 -28l-7 -24.5t-4 -10.5h-207v-10l8 -14h445q2 0 5 -16t6 -37t5 -41.5t2 -30.5h-482q-21 0 -42 10t-37.5 26.5t-27 37.5
t-10.5 43v32h-111v83h111v17h-112v83z" />
    <glyph glyph-name="FL20ACh" unicode="&#x20ac;" horiz-adv-x="771" 
d="M30 332h112v151h599q0 -9 -2.5 -30t-5.5 -42t-6 -37t-4 -16h-453v-26h227q0 -6 -3 -19.5t-7 -28t-7 -25t-4 -10.5h-206v-17h228q0 -6 -3 -20t-7 -28l-7 -24.5t-4 -10.5h-207v-10l8 -14h445q2 0 5 -16t6 -37t5 -41.5t2 -30.5h-482q-21 0 -42 10t-37.5 26.5t-27 37.5
t-10.5 43v32h-111v83h111v17h-112v83z" />
    <glyph glyph-name="FL201Ah" unicode="&#x201a;" horiz-adv-x="186" 
d="M156 125v-125l-53 -54h-73v179h126z" />
    <glyph glyph-name="FL0077h" unicode="&#x192;" horiz-adv-x="794" 
d="M764 0h-136l-230 364l-231 -364h-137v483h126v-261l167 261h148l168 -261v261h125v-483z" />
    <glyph glyph-name="FL201Eh" unicode="&#x201e;" horiz-adv-x="344" 
d="M156 125v-125l-53 -54h-73v179h126zM314 125v-125l-53 -54h-73v179h126z" />
    <glyph glyph-name="FL2026h" unicode="&#x2026;" horiz-adv-x="488" 
d="M332 125h126v-125h-126v125zM181 125h126v-125h-126v125zM30 125h126v-125h-126v125z" />
    <glyph glyph-name="FL2020h" unicode="&#x2020;" horiz-adv-x="416" 
d="M143 483h128v-90h116q0 -9 -2.5 -29.5t-5.5 -42t-5.5 -37.5t-3.5 -16h-99v-268h-128v268h-112v125h112v90z" />
    <glyph glyph-name="FL2021h" unicode="&#x2021;" horiz-adv-x="416" 
d="M143 483h128v-90h116q0 -9 -2.5 -29.5t-5.5 -42t-5.5 -37.5t-3.5 -16h-99v-52h116q0 -9 -2.5 -29.5t-5.5 -42t-5.5 -37.5t-3.5 -16h-99v-91h-128v91h-112v125h112v52h-112v125h112v90z" />
    <glyph glyph-name="FL02C6h" unicode="&#x2c6;" horiz-adv-x="348" 
d="M278 483h-208l-54 -125h126l33 86l31 -86h126z" />
    <glyph glyph-name="FL2030h" unicode="&#x2030;" horiz-adv-x="1125" 
d="M450 0h264q7 0 16 4.5t16.5 11t12.5 15t5 16.5v144q0 10 -5.5 19t-14.5 16t-19 11t-19 4h-197q-10 0 -20.5 -4.5t-19 -11.5t-14 -17t-5.5 -20v-188zM545 152l4 4h119v-74h-123v70zM550 483l-456 -483h154l456 483h-154zM781 0h264q7 0 16 4.5t16.5 11t12.5 15t5 16.5v144
q0 10 -5.5 19t-14.5 16t-19 11t-19 4h-197q-10 0 -20.5 -4.5t-19 -11.5t-14 -17t-5.5 -20v-188zM876 152l4 4h119v-74h-123v70zM30 241h264q7 0 16 4.5t16.5 11t12.5 15t5 16.5v144q0 10 -5.5 19t-14.5 16t-19 11t-19 4h-197q-10 0 -20.5 -4.5t-19 -11.5t-14 -17t-5.5 -20
v-188zM125 393l4 4h119v-74h-123v70z" />
    <glyph glyph-name="FL0160h" unicode="&#x160;" horiz-adv-x="689" 
d="M530 125v45l-10 8h-388q-18 0 -35 10.5t-31 26t-23.5 33.5t-12.5 33v50q0 27 6.5 54t20.5 48.5t36 35.5t54 14h512l-1 -15q-2 -13 -4.5 -31.5t-5 -36t-4.5 -30l-2 -12.5h-473l-11 -7v-47h383q18 0 38.5 -9t38 -24t29 -33t11.5 -36v-101q0 -17 -10 -35t-25 -32.5
t-32.5 -24t-33.5 -9.5h-507q0 9 2.5 29.5t5.5 41.5t5.5 37.5t3.5 16.5h463zM448 559h-208l-54 125h126l31 -86l33 86h126z" />
    <glyph glyph-name="FL2039h" unicode="&#x2039;" horiz-adv-x="185" 
d="M30 137v208l125 54v-126l-86 -31l86 -33v-126z" />
    <glyph glyph-name="FL0152h" unicode="&#x152;" horiz-adv-x="1159" 
d="M30 483h1099q0 -9 -2.5 -30t-5.5 -42t-6 -37t-4 -16h-484v-55h463q0 -9 -2.5 -29.5t-5.5 -42t-5.5 -37.5t-3.5 -16h-446v-39l8 -14h476q2 0 5 -16t6 -37t5 -41.5t2 -30.5h-982q-21 0 -42 10t-37.5 26.5t-27 37.5t-10.5 43v366zM158 139l8 -14h333v233h-341v-219z" />
    <glyph glyph-name="FL017Dh" horiz-adv-x="646" 
d="M251 125h365v-125h-586v106l365 252h-365v125h586v-106zM421 559h-208l-54 125h126l31 -86l33 86h126z" />
    <glyph glyph-name="FL017Dh" unicode="&#x17d;" horiz-adv-x="646" 
d="M251 125h365v-125h-586v106l365 252h-365v125h586v-106zM421 559h-208l-54 125h126l31 -86l33 86h126z" />
    <glyph glyph-name="FL2018h" unicode="&#x2018;" horiz-adv-x="260" 
d="M16 483l117 -139h97v75q0 2 -54 64h-160z" />
    <glyph glyph-name="FL2019h" unicode="&#x2019;" horiz-adv-x="260" 
d="M244 483l-117 -139h-97v75q0 2 54 64h160z" />
    <glyph glyph-name="FL201Ch" unicode="&#x201c;" horiz-adv-x="454" 
d="M210 483l117 -139h97v75l-54 64h-160zM16 483l117 -139h97v75l-54 64h-160z" />
    <glyph glyph-name="FL201Dh" unicode="&#x201d;" horiz-adv-x="454" 
d="M244 483l-117 -139h-97v75l54 64h160zM438 483l-117 -139h-97v75l54 64h160z" />
    <glyph glyph-name="FL2022h" unicode="&#x2022;" horiz-adv-x="432" 
d="M30 136l11 -11h361v230h-372v-219z" />
    <glyph glyph-name="FL2013h" unicode="&#x2013;" horiz-adv-x="416" 
d="M30 303v-125h339q1 0 3.5 16t5.5 37.5t5.5 42t2.5 29.5h-356z" />
    <glyph glyph-name="FL2014h" unicode="&#x2014;" horiz-adv-x="482" 
d="M30 303v-125h405q1 0 3.5 16t5.5 37.5t5.5 42t2.5 29.5h-422z" />
    <glyph glyph-name="FL02DCh" unicode="&#x2dc;" horiz-adv-x="447" 
d="M382 357h-192l-30 81l-30 -82h-114l50 126h190l31 -83l30 83h114z" />
    <glyph glyph-name="FL2122h" unicode="&#x2122;" horiz-adv-x="638" 
d="M129 479h-99v50h251v-50h-101v-143h-51v143zM314 529h54l93 -145l92 145h55v-193h-50v104l-68 -104h-58l-68 104v-104h-50v193z" />
    <glyph glyph-name="FL0161h" unicode="&#x161;" horiz-adv-x="689" 
d="M530 125v45l-10 8h-388q-18 0 -35 10.5t-31 26t-23.5 33.5t-12.5 33v50q0 27 6.5 54t20.5 48.5t36 35.5t54 14h512l-1 -15q-2 -13 -4.5 -31.5t-5 -36t-4.5 -30l-2 -12.5h-473l-11 -7v-47h383q18 0 38.5 -9t38 -24t29 -33t11.5 -36v-101q0 -17 -10 -35t-25 -32.5
t-32.5 -24t-33.5 -9.5h-507q0 9 2.5 29.5t5.5 41.5t5.5 37.5t3.5 16.5h463zM448 559h-208l-54 125h126l31 -86l33 86h126z" />
    <glyph glyph-name="FL203Ah" unicode="&#x203a;" horiz-adv-x="185" 
d="M154 137v208l-125 54v-126l86 -31l-86 -33v-126z" />
    <glyph glyph-name="FL0153h" unicode="&#x153;" horiz-adv-x="1159" 
d="M30 483h1099q0 -9 -2.5 -30t-5.5 -42t-6 -37t-4 -16h-484v-55h463q0 -9 -2.5 -29.5t-5.5 -42t-5.5 -37.5t-3.5 -16h-446v-39l8 -14h476q2 0 5 -16t6 -37t5 -41.5t2 -30.5h-982q-21 0 -42 10t-37.5 26.5t-27 37.5t-10.5 43v366zM158 139l8 -14h333v233h-341v-219z" />
    <glyph glyph-name="FL017Eh" horiz-adv-x="646" 
d="M251 125h365v-125h-586v106l365 252h-365v125h586v-106zM421 559h-208l-54 125h126l31 -86l33 86h126z" />
    <glyph glyph-name="FL017Eh" unicode="&#x17e;" horiz-adv-x="646" 
d="M251 125h365v-125h-586v106l365 252h-365v125h586v-106zM421 559h-208l-54 125h126l31 -86l33 86h126z" />
    <glyph glyph-name="FL0178h" unicode="&#x178;" horiz-adv-x="654" 
d="M16 483l248 -303v-180h122v182l252 301h-164l-147 -180l-156 180h-155zM482 686h-126v-125h126v125zM292 686h-126v-125h126v125z" />
    <glyph glyph-name="FL00A1h" unicode="&#xa1;" horiz-adv-x="188" 
d="M158 0h-128v326h128v-326zM158 358h-128v125h128v-125z" />
    <glyph glyph-name="FL00A2h" unicode="&#xa2;" horiz-adv-x="690" 
d="M30 483h279v114h128v-114h223q0 -9 -2.5 -30t-5.5 -42t-6 -37t-4 -16h-205v-233h205q2 0 5 -16t6 -37t5 -41.5t2 -30.5h-223v-114h-128v114h-162q-21 0 -42 10t-37.5 26.5t-27 37.5t-10.5 43v366zM158 139l8 -14h143v233h-151v-219z" />
    <glyph glyph-name="FL00A3h" unicode="&#xa3;" horiz-adv-x="715" 
d="M30 302h154v181h267q0 -9 -2.5 -30t-5.5 -42t-6 -37t-4 -16h-121v-55h246q0 -9 -2.5 -29.5t-5.5 -42t-5.5 -37.5t-3.5 -16h-198v-1h-31v-38l8 -14h347q2 0 5 -16t6 -37t5 -41.5t2 -30.5h-655v125h154v52h-154v125z" />
    <glyph glyph-name="FL00A4h" unicode="&#xa4;" horiz-adv-x="655" 
d="M480 292l159 191h-164l-100 -122h-98l-105 122h-155l149 -183v-117l-150 -183h155l104 120h101l98 -120h164l-158 189v103zM261 272l4 4h119v-74h-123v70z" />
    <glyph glyph-name="FL00A5h" unicode="&#xa5;" horiz-adv-x="654" 
d="M97 225h130l-211 258h155l156 -180l147 180h164l-216 -258h142q0 -6 -3 -19.5t-7 -28t-7 -25t-4 -10.5h-157v-17h179q0 -6 -3 -20t-7 -28l-7 -24.5t-4 -10.5h-158v-42h-122v42h-166v83h166v17h-167v83z" />
    <glyph glyph-name="FL00A6h" unicode="&#xa6;" horiz-adv-x="188" 
d="M30 483h128v-240h-128v240zM30 211h128v-211h-128v211z" />
    <glyph glyph-name="FL00A7h" unicode="&#xa7;" horiz-adv-x="655" 
d="M480 292l159 191h-164l-100 -123h-209v-177l-150 -183h155l104 120h205v172zM261 272l4 4h119v-74h-123v70z" />
    <glyph glyph-name="FL00A8h" unicode="&#xa8;" horiz-adv-x="376" 
d="M346 483h-126v-125h126v125zM156 483h-126v-125h126v125z" />
    <glyph glyph-name="copyright" unicode="&#xa9;" horiz-adv-x="260" 
d="M130 547q-24 0 -49 -13q-13 -7 -22 -16.5t-16 -20.5q-6 -13 -9.5 -24.5t-3.5 -25.5q0 -27 13 -49q8 -13 17 -21t20 -16q25 -13 50 -13q1 0 13.5 2t35.5 11q13 8 22 16t15 21q14 26 14 49q0 27 -14 50q-11 23 -38 37q-22 13 -48 13zM130 531q20 0 40 -11q21 -11 32 -31
t11 -42q0 -20 -11 -40q-13 -22 -31 -31q-20 -11 -41 -11q-11 0 -42 11q-19 14 -30 31q-11 20 -11 40q0 22 11 42q11 21 31 31.5t41 10.5zM162 432q-6 -25 -33 -25q-33 0 -33 40q0 42 35 42q20 0 29 -20l16 3q-11 32 -45 32q-25 0 -39 -14.5t-14 -42.5q0 -27 14 -42t38 -15
q38 0 48 37z" />
    <glyph glyph-name="FL00AEh" unicode="&#xaa;" horiz-adv-x="394" 
d="M30 288l130 201q8 14 25.5 27t34.5 13h144v-241h-67v59h-147l-41 -59h-79zM225 462q-2 0 -6 -5.5t-9 -13t-10 -15.5t-8 -13h105v47h-72z" />
    <glyph glyph-name="FL00ABh" unicode="&#xab;" horiz-adv-x="347" 
d="M30 137v208l125 54v-126l-86 -31l86 -33v-126zM192 137v208l125 54v-126l-86 -31l86 -33v-126z" />
    <glyph glyph-name="FL00ACh" unicode="&#xac;" horiz-adv-x="416" 
d="M30 303h356v-242h-125v117h-231v125z" />
    <glyph glyph-name="FL00ADh" unicode="&#xad;" horiz-adv-x="349" 
d="M30 303v-125h272q1 0 3.5 16t5.5 37.5t5.5 42t2.5 29.5h-289z" />
    <glyph glyph-name="registered" unicode="&#xae;" horiz-adv-x="260" 
d="M130 551q-24 0 -49 -13q-13 -7 -22 -16.5t-16 -20.5q-6 -13 -9.5 -24.5t-3.5 -25.5q0 -27 13 -49q16 -24 37 -37q22 -13 50 -13q1 0 15 1.5t34 11.5q26 14 37 37q14 26 14 49q0 27 -14 50q-11 23 -38 37q-22 13 -48 13zM130 535q20 0 40 -11q21 -11 32 -31t11 -42
q0 -10 -11 -41q-14 -19 -31 -30q-20 -11 -41 -11q-11 0 -42 11q-21 13 -30 30q-11 31 -11 41q0 22 11 42q11 21 31 31.5t41 10.5zM87 397h17v45h10q9 0 13 -4q7 -3 19 -25l9 -16h22l-14 21q-8 11 -12.5 17t-12.5 10q14 1 22.5 9.5t8.5 19.5q0 9 -6 17q-5 6 -12 9q-7 4 -28 4
h-36v-107zM104 456v33h19q17 0 18 -1q10 -4 10 -15q0 -8 -5.5 -12.5t-21.5 -4.5h-20z" />
    <glyph glyph-name="FL00AFh" unicode="&#xaf;" horiz-adv-x="536" 
d="M506 483v-125h-476v125h476z" />
    <glyph glyph-name="FL00B1h" unicode="&#xb0;" horiz-adv-x="186" 
d="M156 483h-126v-125h126v125z" />
    <glyph glyph-name="FL00B9h" unicode="&#xb1;" horiz-adv-x="416" 
d="M271 483v-91h115v-125h-115v-99h-125v99h-116v125h116v91h125zM30 125h356v-125h-356v125z" />
    <glyph glyph-name="FL00B2h" unicode="&#xb2;" horiz-adv-x="374" 
d="M100 375h191q19 0 34 18t19 34v25q0 13 -3.5 27t-10.5 25t-18.5 18t-27.5 7h-254v-10q1 -6 1.5 -10.5t1.5 -10t2 -13.5t3 -22h234l3 -3v-18h-184q-9 0 -20 -5t-20 -12.5t-15 -17t-6 -18.5v-101h304q0 4 -1.5 15t-3.5 22.5t-4 20l-2 8.5h-225v19z" />
    <glyph glyph-name="FL00B3h" unicode="&#xb3;" horiz-adv-x="374" 
d="M30 354h242l4 2v19h-246v67h246v18l-4 3h-242v66h255q18 0 29 -6.5t18 -17t9.5 -23.5t2.5 -26v-22q0 -2 -4.5 -11.5t-8.5 -14.5q3 -5 8 -13t5 -13v-42q0 -17 -11.5 -34.5t-40.5 -17.5h-262v66z" />
    <glyph glyph-name="FL00B4h" unicode="&#xb4;" horiz-adv-x="248" 
d="M218 483h-134l-54 -125h126z" />
    <glyph glyph-name="FL00B6h" unicode="&#xb5;" horiz-adv-x="878" 
d="M848 256q0 16 -71 46q40 6 40 34v7l-110 33q21 1 21 34l-11 12h-129l6 37l-39 4l-108 -24l-4 7l4 17l-21 20l-98 -54l-49 34q-15 -6 -29.5 -22.5t-35.5 -48.5l-60 24h-3q-25 0 -25 -85l-64 6l-4 -35l31 -43l-59 -12l5 -29l61 -31l-34 -30q0 -23 16 -23l88 -18l-17 -21
v-22l140 -13l-6 -29l17 -12l135 23v-35l17 -6l103 59l33 -36l28 7l52 64l6 -3q16 -9 26.5 -14.5t23.5 -5.5q15 0 21 14l6 71l54 -13q16 7 16 26v5q0 5 -2 7l-31 47h48l11 25zM831 247l-69 -6q45 -57 45 -72l-0.5 -1t-1.5 -6l-72 13l-5 -85l-70 26l-54 -74l-49 37l-108 -60
l5 23l-17 24l-135 -28l16 41l-150 7l43 33l-131 33l61 30l-92 54l69 5l-38 54l-4 25l70 -7l10 85q35 -26 53 -26q7 0 14 4l58 70l43 -36l98 53l11 -4l4 -37l142 24l-11 -42h146l-44 -36l125 -31l7 -12h-7l-55 -17l88 -49zM725 290l-23 6l-3 -82l16 -2zM717 179l-15 7
l-12 -11l12 -13zM675 185v105l-16 6l-3 -75l-54 69v-106l16 2v51q34 -52 57 -52zM586 186v78q-10 34 -27 34q-12 0 -13 -3q-33 -51 -40 -106h21q12 25 23 25q14 0 23 -25zM497 296l-19 -6l-10 -106l23 7zM450 181v105l-15 4l-4 -72l-56 68v-107l17 3v50q36 -51 58 -51z
M364 256q-7 34 -39 34h-10q-36 -24 -36 -94q8 -17 33 -17q3 0 7 0.5t9 1.5q27 0 36 75zM272 294q-70 -12 -70 -62v-6q0 -7 1 -8q9 -47 37 -47q5 0 8.5 1.5t11.5 3.5l-2 18q-3 -3 -18 -3q-20 0 -20 21q0 24 14 44q13 15 26 15q5 0 5 -1l1.5 -0.5t3.5 -2.5zM192 290l-17 -3
l-9 -108l20 8zM568 237h-30l18 36zM346 240q0 -9 -1.5 -16t-6.5 -15q-16 -10 -25 -10q-15 0 -15 26v7q12 34 28 34q10 0 18 -14q2 -2 2 -12z" />
    <glyph glyph-name="FL0072h" unicode="&#xb6;" 
d="M30 483v-483h128v121h233l98 -121h165l-102 121h5q27 0 45 10.5t29.5 26t17.5 33.5t9 33v107q0 27 -6 54t-20 48.5t-36 35.5t-53 14h-513zM158 358h362l12 -7v-93l-12 -11h-362v111z" />
    <glyph glyph-name="FL00B7h" unicode="&#xb7;" horiz-adv-x="186" 
d="M29 304h126v-125h-126v125z" />
    <glyph glyph-name="FL00B8h" unicode="&#xb8;" horiz-adv-x="163" 
d="M32 0h101v-142h-195v92h94v50z" />
    <glyph glyph-name="FL00BAh" unicode="&#xb9;" horiz-adv-x="166" 
d="M136 287h-66v175h-40v66h106v-241z" />
    <glyph glyph-name="FL00B0h" unicode="&#xba;" horiz-adv-x="374" 
d="M30 288h264q7 0 16 4.5t16.5 11t12.5 15t5 16.5v144q0 10 -5.5 19t-14.5 16t-19 11t-19 4h-197q-10 0 -20.5 -4.5t-19 -11.5t-14 -17t-5.5 -20v-188zM125 440l4 4h119v-74h-123v70z" />
    <glyph glyph-name="FL00BCh" unicode="&#xbb;" horiz-adv-x="347" 
d="M316 137v208l-125 54v-126l86 -31l-86 -33v-126zM154 137v208l-125 54v-126l86 -31l-86 -33v-126z" />
    <glyph glyph-name="FL00AAh" unicode="&#xbc;" horiz-adv-x="844" 
d="M814 247l-69 -6q45 -57 45 -72l-0.5 -1t-1.5 -6l-72 13l-5 -85l-70 26l-54 -74l-49 37l-108 -60l5 23l-17 24l-135 -28l16 41l-150 7l43 33l-131 33l61 30l-92 54l69 5l-38 54l-4 25l70 -7l10 85q35 -26 53 -26q7 0 14 4l58 70l43 -36l98 53l11 -4l4 -37l142 24l-11 -42
h146l-44 -36l125 -31l7 -12h-7l-55 -17l88 -49zM708 290l-23 6l-3 -82l16 -2zM700 179l-15 7l-12 -11l12 -13zM658 185v105l-16 6l-3 -75l-54 69v-106l16 2v51q34 -52 57 -52zM569 186v78q-10 34 -27 34q-12 0 -13 -3q-33 -51 -40 -106h21q12 25 23 25q14 0 23 -25zM480 296
l-19 -6l-10 -106l23 7zM433 181v105l-15 4l-4 -72l-56 68v-107l17 3v50q36 -51 58 -51zM347 256q-7 34 -39 34h-10q-36 -24 -36 -94q8 -17 33 -17q3 0 7 0.5t9 1.5q27 0 36 75zM255 294q-70 -12 -70 -62v-6q0 -7 1 -8q9 -47 37 -47q5 0 8.5 1.5t11.5 3.5l-2 18q-3 -3 -18 -3
q-20 0 -20 21q0 24 14 44q13 15 26 15q5 0 5 -1l1.5 -0.5t3.5 -2.5zM175 290l-17 -3l-9 -108l20 8zM551 237h-30l18 36zM329 240q0 -9 -1.5 -16t-6.5 -15q-16 -10 -25 -10q-15 0 -15 26v7q12 34 28 34q10 0 18 -14q2 -2 2 -12z" />
    <glyph glyph-name="FL00BDh" unicode="&#xbd;" horiz-adv-x="769" 
d="M686 87h-191l-2 -2v-19h225l2 -8.5t4 -20t3.5 -22.5t1.5 -15h-304v101q0 9 6 18.5t15 17t20 12.5t20 5h184v18l-3 3h-234q-2 14 -3 22t-2 13.5t-1.5 10t-1.5 10.5v10h254q16 0 27.5 -7t18.5 -18t10.5 -25t3.5 -27v-25q-4 -16 -19 -34t-34 -18zM16 0l456 483h154
l-456 -483h-154zM198 241h-74v175h-40v66h114v-241z" />
    <glyph glyph-name="FL00BEh" unicode="&#xbe;" horiz-adv-x="619" 
d="M589 290l-23 6l-3 -82l16 -2zM581 179l-15 7l-12 -11l12 -13zM539 185v105l-16 6l-3 -75l-54 69v-106l16 2v51q34 -52 57 -52zM450 186v78q-10 34 -27 34q-12 0 -13 -3q-33 -51 -40 -106h21q12 25 23 25q14 0 23 -25zM361 296l-19 -6l-10 -106l23 7zM314 181v105l-15 4
l-4 -72l-56 68v-107l17 3v50q36 -51 58 -51zM228 256q-7 34 -39 34h-10q-36 -24 -36 -94q8 -17 33 -17q3 0 7 0.5t9 1.5q27 0 36 75zM136 294q-70 -12 -70 -62v-6q0 -7 1 -8q9 -47 37 -47q5 0 8.5 1.5t11.5 3.5l-2 18q-3 -3 -18 -3q-20 0 -20 21q0 24 14 44q13 15 26 15
q5 0 5 -1l1.5 -0.5t3.5 -2.5zM56 290l-17 -3l-9 -108l20 8zM432 237h-30l18 36zM210 240q0 -9 -1.5 -16t-6.5 -15q-16 -10 -25 -10q-15 0 -15 26v7q12 34 28 34q10 0 18 -14q2 -2 2 -12z" />
    <glyph glyph-name="FL00BFh" unicode="&#xbf;" horiz-adv-x="689" 
d="M472 313v14h128v-46q0 -18 -12 -36t-29.5 -33t-38 -24t-37.5 -9h-325v-47l11 -7h473l2 -12.5t4.5 -30t5 -36t4.5 -31.5l1 -15h-512q-32 0 -54 14t-36 35.5t-20.5 48.5t-6.5 54v50q3 15 12.5 33t23.5 33.5t31 26t35 10.5h330zM600 358h-128v125h128v-125z" />
    <glyph glyph-name="FL00C0h" unicode="&#xc0;" horiz-adv-x="708" 
d="M692 0l-259 404q-8 13 -20.5 27.5t-28 25.5t-32.5 18.5t-35 7.5h-287v-483h125v121h307l82 -121h148zM155 356h151q3 0 14.5 -14.5t24.5 -33t24 -36t14 -24.5h-228v108zM233 684h-134l62 -125h126z" />
    <glyph glyph-name="FL00C1h" unicode="&#xc1;" horiz-adv-x="708" 
d="M306 356h-151v-108h228q-3 7 -14 24.5t-24 36t-24.5 33t-14.5 14.5zM433 404l259 -404h-148l-82 121h-307v-121h-125v483h287q18 0 35 -7.5t32.5 -18.5t28 -25.5t20.5 -27.5zM204 684h134l-62 -125h-126z" />
    <glyph glyph-name="FL00C2h" unicode="&#xc2;" horiz-adv-x="708" 
d="M306 356h-151v-108h228q-3 7 -14 24.5t-24 36t-24.5 33t-14.5 14.5zM433 404l259 -404h-148l-82 121h-307v-121h-125v483h287q18 0 35 -7.5t32.5 -18.5t28 -25.5t20.5 -27.5zM337 684h-208l-54 -125h126l31 86l33 -86h126z" />
    <glyph glyph-name="FL00C3h" unicode="&#xc3;" horiz-adv-x="708" 
d="M306 356h-151v-108h228q-3 7 -14 24.5t-24 36t-24.5 33t-14.5 14.5zM433 404l259 -404h-148l-82 121h-307v-121h-125v483h287q18 0 35 -7.5t32.5 -18.5t28 -25.5t20.5 -27.5zM396 560h-192l-30 81l-30 -82h-114l50 126h190l31 -83l30 83h114z" />
    <glyph glyph-name="FL00C4h" unicode="&#xc4;" horiz-adv-x="708" 
d="M306 356h-151v-108h228q-3 7 -14 24.5t-24 36t-24.5 33t-14.5 14.5zM433 404l259 -404h-148l-82 121h-307v-121h-125v483h287q18 0 35 -7.5t32.5 -18.5t28 -25.5t20.5 -27.5zM91 684h126v-125h-126v125zM281 684h126v-125h-126v125z" />
    <glyph glyph-name="FL00C5h" unicode="&#xc5;" horiz-adv-x="708" 
d="M306 356h-151v-108h228q-3 7 -14 24.5t-24 36t-24.5 33t-14.5 14.5zM433 404l259 -404h-148l-82 121h-307v-121h-125v483h287q18 0 35 -7.5t32.5 -18.5t28 -25.5t20.5 -27.5zM168 684h126v-125h-126v125z" />
    <glyph glyph-name="FL00C6h" unicode="&#xc6;" horiz-adv-x="1211" 
d="M16 0l259 404q8 13 20.5 27.5t28 25.5t32.5 18.5t35 7.5h790q0 -9 -2.5 -30t-5.5 -42t-6 -37t-4 -16h-484v-55h463q0 -9 -2.5 -29.5t-5.5 -42t-5.5 -37.5t-3.5 -16h-446v-39l8 -14h476q2 0 5 -16t6 -37t5 -41.5t2 -30.5h-628v97l-2 10v10v4h-305l-82 -121h-148zM402 356
q-3 0 -14.5 -14.5t-24.5 -33t-24 -36t-14 -24.5h226v108h-149z" />
    <glyph glyph-name="FL00C7h" unicode="&#xc7;" horiz-adv-x="690" 
d="M30 483h630q0 -9 -2.5 -30t-5.5 -42t-6 -37t-4 -16h-484v-219l8 -14h476q2 0 5 -16t6 -37t5 -41.5t2 -30.5h-226v-142h-195v92h94v50h-186q-21 0 -42 10t-37.5 26.5t-27 37.5t-10.5 43v366z" />
    <glyph glyph-name="FL00C8h" unicode="&#xc8;" horiz-adv-x="690" 
d="M30 483v-366q0 -22 10.5 -43t27 -37.5t37.5 -26.5t42 -10h513q0 10 -2 30.5t-5 41.5t-6 37t-5 16h-476l-8 14v39h446q1 0 3.5 16t5.5 37.5t5.5 42t2.5 29.5h-463v55h484q1 0 4 16t6 37t5.5 42t2.5 30h-630zM369 686h-134l62 -125h126z" />
    <glyph glyph-name="FL00C9h" unicode="&#xc9;" horiz-adv-x="690" 
d="M30 483v-366q0 -22 10.5 -43t27 -37.5t37.5 -26.5t42 -10h513q0 10 -2 30.5t-5 41.5t-6 37t-5 16h-476l-8 14v39h446q1 0 3.5 16t5.5 37.5t5.5 42t2.5 29.5h-463v55h484q1 0 4 16t6 37t5.5 42t2.5 30h-630zM453 686h-134l-54 -125h126z" />
    <glyph glyph-name="FL00CAh" unicode="&#xca;" horiz-adv-x="690" 
d="M30 483v-366q0 -22 10.5 -43t27 -37.5t37.5 -26.5t42 -10h513q0 10 -2 30.5t-5 41.5t-6 37t-5 16h-476l-8 14v39h446q1 0 3.5 16t5.5 37.5t5.5 42t2.5 29.5h-463v55h484q1 0 4 16t6 37t5.5 42t2.5 30h-630zM448 685h-208l-54 -125h126l33 86l31 -86h126z" />
    <glyph glyph-name="FL00CBh" unicode="&#xcb;" horiz-adv-x="690" 
d="M30 483v-366q0 -22 10.5 -43t27 -37.5t37.5 -26.5t42 -10h513q0 10 -2 30.5t-5 41.5t-6 37t-5 16h-476l-8 14v39h446q1 0 3.5 16t5.5 37.5t5.5 42t2.5 29.5h-463v55h484q1 0 4 16t6 37t5.5 42t2.5 30h-630zM502 685h-126v-125h126v125zM312 685h-126v-125h126v125z" />
    <glyph glyph-name="FL00CCh" unicode="&#xcc;" horiz-adv-x="644" 
d="M30 125v-125h584v125h-228v233h228v125h-584v-125h228v-233h-228zM339 685h-134l62 -125h126z" />
    <glyph glyph-name="FL00CDh" unicode="&#xcd;" horiz-adv-x="644" 
d="M614 125v-125h-584v125h228v233h-228v125h584v-125h-228v-233h228zM305 685h134l-62 -125h-126z" />
    <glyph glyph-name="FL00CEh" unicode="&#xce;" horiz-adv-x="644" 
d="M614 0v125h-228v233h228v125h-584v-125h228v-233h-228v-125h584zM426 685h-208l-54 -125h126l33 86l31 -86h126z" />
    <glyph glyph-name="FL00CFh" unicode="&#xcf;" horiz-adv-x="644" 
d="M614 125v-125h-584v125h228v233h-228v125h584v-125h-228v-233h228zM164 685h126v-125h-126v125zM354 685h126v-125h-126v125z" />
    <glyph glyph-name="FL00D0h" unicode="&#xd0;" horiz-adv-x="797" 
d="M30 303h109v180h527q15 0 32.5 -9t33 -23t25.5 -30.5t10 -32.5v-287q0 -20 -11.5 -38.5t-28.5 -32.5t-38 -22t-39 -8h-511v178h-109v125zM639 125v230h-372v-52h156q0 -9 -2.5 -29.5t-5.5 -42t-5.5 -37.5t-3.5 -16h-139v-53h372z" />
    <glyph glyph-name="FL00D1h" unicode="&#xd1;" 
d="M30 483h126l378 -313v313h124v-483h-128l-372 313v-313h-128v483zM505 560h-193l-30 81l-30 -82h-114l50 126h190l31 -83l30 83h114z" />
    <glyph glyph-name="FL00D2h" unicode="&#xd2;" 
d="M30 483h527q15 0 32.5 -9t33 -23t25.5 -30.5t10 -32.5v-287q0 -20 -11.5 -38.5t-28.5 -32.5t-38 -22t-39 -8h-394q-20 0 -40.5 9t-37.5 23.5t-28 33.5t-11 40v377zM158 136l11 -11h361v230h-372v-219zM235 686h134l54 -125h-126z" />
    <glyph glyph-name="FL00D3h" unicode="&#xd3;" 
d="M30 483h527q15 0 32.5 -9t33 -23t25.5 -30.5t10 -32.5v-287q0 -20 -11.5 -38.5t-28.5 -32.5t-38 -22t-39 -8h-394q-20 0 -40.5 9t-37.5 23.5t-28 33.5t-11 40v377zM158 136l11 -11h361v230h-372v-219zM319 686h134l-62 -125h-126z" />
    <glyph glyph-name="FL00D4h" unicode="&#xd4;" 
d="M30 483h527q15 0 32.5 -9t33 -23t25.5 -30.5t10 -32.5v-287q0 -20 -11.5 -38.5t-28.5 -32.5t-38 -22t-39 -8h-394q-20 0 -40.5 9t-37.5 23.5t-28 33.5t-11 40v377zM158 136l11 -11h361v230h-372v-219zM240 685h208l54 -125h-126l-31 86l-33 -86h-126z" />
    <glyph glyph-name="FL00D5h" unicode="&#xd5;" 
d="M30 483h527q15 0 32.5 -9t33 -23t25.5 -30.5t10 -32.5v-287q0 -20 -11.5 -38.5t-28.5 -32.5t-38 -22t-39 -8h-394q-20 0 -40.5 9t-37.5 23.5t-28 33.5t-11 40v377zM158 136l11 -11h361v230h-372v-219zM504 560h-192l-30 81l-30 -82h-114l50 126h190l31 -83l30 83h114z
" />
    <glyph glyph-name="FL00D6h" unicode="&#xd6;" 
d="M30 483h527q15 0 32.5 -9t33 -23t25.5 -30.5t10 -32.5v-287q0 -20 -11.5 -38.5t-28.5 -32.5t-38 -22t-39 -8h-394q-20 0 -40.5 9t-37.5 23.5t-28 33.5t-11 40v377zM158 136l11 -11h361v230h-372v-219zM186 685h126v-125h-126v125zM376 685h126v-125h-126v125z" />
    <glyph glyph-name="FL00D7h" unicode="&#xd7;" horiz-adv-x="372" 
d="M356 321l-81 -81l81 -81l-88 -89l-81 82l-82 -82l-89 88l82 82l-82 82l89 88l82 -82l81 82z" />
    <glyph glyph-name="FL00D8h" unicode="&#xd8;" 
d="M30 0v377q0 21 11 40t28 33.5t37.5 23.5t40.5 9h394q18 0 39 -8t38 -22t28.5 -32.5t11.5 -38.5v-287q0 -16 -10 -32.5t-25.5 -30.5t-33 -23t-32.5 -9h-527zM521 358l-217 -230h226v230h-9zM158 347v-212l210 223h-199z" />
    <glyph glyph-name="FL00D9h" unicode="&#xd9;" 
d="M235 686h134l54 -125h-126zM530 136v347h128v-377q0 -21 -11 -40t-28 -33.5t-38 -23.5t-40 -9h-394q-18 0 -39 8t-38 22t-28.5 32.5t-11.5 38.5v382h128v-358h361z" />
    <glyph glyph-name="FL00DAh" unicode="&#xda;" 
d="M158 483v-347l11 -11h361v358h128v-382q0 -20 -11.5 -38.5t-28.5 -32.5t-38 -22t-39 -8h-394q-20 0 -40.5 9t-37.5 23.5t-28 33.5t-11 40v377h128zM319 686h134l-62 -125h-126z" />
    <glyph glyph-name="FL00DBh" unicode="&#xdb;" 
d="M158 483v-347l11 -11h361v358h128v-382q0 -20 -11.5 -38.5t-28.5 -32.5t-38 -22t-39 -8h-394q-20 0 -40.5 9t-37.5 23.5t-28 33.5t-11 40v377h128zM240 685h208l54 -125h-126l-31 86l-33 -86h-126z" />
    <glyph glyph-name="FL00DCh" unicode="&#xdc;" 
d="M158 483v-347l11 -11h361v358h128v-382q0 -20 -11.5 -38.5t-28.5 -32.5t-38 -22t-39 -8h-394q-20 0 -40.5 9t-37.5 23.5t-28 33.5t-11 40v377h128zM186 685h126v-125h-126v125zM376 685h126v-125h-126v125z" />
    <glyph glyph-name="FL00DDh" unicode="&#xdd;" horiz-adv-x="654" 
d="M16 483l248 -303v-180h122v182l252 301h-164l-147 -180l-156 180h-155zM432 685h-134l-54 -125h126z" />
    <glyph glyph-name="FL00DEh" unicode="&#xde;" 
d="M30 483h128v-86h385q36 0 58 -14t35 -35.5t17.5 -48.5t4.5 -54v-50q0 -14 -8 -32t-22 -33.5t-32.5 -26.5t-38.5 -11h-399v-92h-128v483zM520 272h-362v-55h360l14 12v36z" />
    <glyph glyph-name="FL00DFh" unicode="&#xdf;" 
d="M30 483h513q35 0 57.5 -13t35 -34t17.5 -47t5 -51v-43q0 -3 -2.5 -10t-6.5 -15.5t-9 -16.5t-9 -11l2 -3q7 -10 16 -26t9 -27v-85q0 -17 -5 -35t-17 -32.5t-31.5 -24t-47.5 -9.5h-346v125h309l12 7v46h-321v126h321v47l-12 7h-362v-528h-128v653z" />
    <glyph glyph-name="FL00E0h" unicode="&#xe0;" horiz-adv-x="708" 
d="M402 356h151v-108h-228q3 7 14 24.5t24 36t24.5 33t14.5 14.5zM275 404l-259 -404h148l82 121h307v-121h125v483h-287q-18 0 -35 -7.5t-32.5 -18.5t-28 -25.5t-20.5 -27.5zM504 684h-134l62 -125h126z" />
    <glyph glyph-name="FL00E1h" unicode="&#xe1;" horiz-adv-x="708" 
d="M16 0l259 404q8 13 20.5 27.5t28 25.5t32.5 18.5t35 7.5h287v-483h-125v121h-307l-82 -121h-148zM553 356h-151q-3 0 -14.5 -14.5t-24.5 -33t-24 -36t-14 -24.5h228v108zM475 684h134l-62 -125h-126z" />
    <glyph glyph-name="FL00E2h" unicode="&#xe2;" horiz-adv-x="708" 
d="M402 356h151v-108h-228q3 7 14 24.5t24 36t24.5 33t14.5 14.5zM275 404l-259 -404h148l82 121h307v-121h125v483h-287q-18 0 -35 -7.5t-32.5 -18.5t-28 -25.5t-20.5 -27.5zM371 684h208l54 -125h-126l-31 86l-33 -86h-126z" />
    <glyph glyph-name="FL00E3h" unicode="&#xe3;" horiz-adv-x="708" 
d="M16 0l259 404q8 13 20.5 27.5t28 25.5t32.5 18.5t35 7.5h287v-483h-125v121h-307l-82 -121h-148zM553 356h-151q-3 0 -14.5 -14.5t-24.5 -33t-24 -36t-14 -24.5h228v108zM628 559h-192l-30 81l-30 -82h-114l50 126h190l31 -83l30 83h114z" />
    <glyph glyph-name="FL00E4h" unicode="&#xe4;" horiz-adv-x="708" 
d="M402 356h151v-108h-228q3 7 14 24.5t24 36t24.5 33t14.5 14.5zM275 404l-259 -404h148l82 121h307v-121h125v483h-287q-18 0 -35 -7.5t-32.5 -18.5t-28 -25.5t-20.5 -27.5zM617 684h-126v-125h126v125zM427 684h-126v-125h126v125z" />
    <glyph glyph-name="FL00E5h" unicode="&#xe5;" horiz-adv-x="708" 
d="M402 356h151v-108h-228q3 7 14 24.5t24 36t24.5 33t14.5 14.5zM275 404l-259 -404h148l82 121h307v-121h125v483h-287q-18 0 -35 -7.5t-32.5 -18.5t-28 -25.5t-20.5 -27.5zM540 684h-126v-125h126v125z" />
    <glyph glyph-name="FL00E6h" unicode="&#xe6;" horiz-adv-x="1211" 
d="M16 0l259 404q8 13 20.5 27.5t28 25.5t32.5 18.5t35 7.5h790q0 -9 -2.5 -30t-5.5 -42t-6 -37t-4 -16h-484v-55h463q0 -9 -2.5 -29.5t-5.5 -42t-5.5 -37.5t-3.5 -16h-446v-39l8 -14h476q2 0 5 -16t6 -37t5 -41.5t2 -30.5h-628v97l-2 10v10v4h-305l-82 -121h-148zM402 356
q-3 0 -14.5 -14.5t-24.5 -33t-24 -36t-14 -24.5h226v108h-149z" />
    <glyph glyph-name="FL00E7h" unicode="&#xe7;" horiz-adv-x="690" 
d="M30 483h630q0 -9 -2.5 -30t-5.5 -42t-6 -37t-4 -16h-484v-219l8 -14h476q2 0 5 -16t6 -37t5 -41.5t2 -30.5h-226v-142h-195v92h94v50h-186q-21 0 -42 10t-37.5 26.5t-27 37.5t-10.5 43v366z" />
    <glyph glyph-name="FL00E8h" unicode="&#xe8;" horiz-adv-x="690" 
d="M30 483v-366q0 -22 10.5 -43t27 -37.5t37.5 -26.5t42 -10h513q0 10 -2 30.5t-5 41.5t-6 37t-5 16h-476l-8 14v39h446q1 0 3.5 16t5.5 37.5t5.5 42t2.5 29.5h-463v55h484q1 0 4 16t6 37t5.5 42t2.5 30h-630zM369 686h-134l62 -125h126z" />
    <glyph glyph-name="FL00E9h" unicode="&#xe9;" horiz-adv-x="690" 
d="M30 483v-366q0 -22 10.5 -43t27 -37.5t37.5 -26.5t42 -10h513q0 10 -2 30.5t-5 41.5t-6 37t-5 16h-476l-8 14v39h446q1 0 3.5 16t5.5 37.5t5.5 42t2.5 29.5h-463v55h484q1 0 4 16t6 37t5.5 42t2.5 30h-630zM453 686h-134l-54 -125h126z" />
    <glyph glyph-name="FL00EAh" unicode="&#xea;" horiz-adv-x="690" 
d="M30 483v-366q0 -22 10.5 -43t27 -37.5t37.5 -26.5t42 -10h513q0 10 -2 30.5t-5 41.5t-6 37t-5 16h-476l-8 14v39h446q1 0 3.5 16t5.5 37.5t5.5 42t2.5 29.5h-463v55h484q1 0 4 16t6 37t5.5 42t2.5 30h-630zM448 685h-208l-54 -125h126l33 86l31 -86h126z" />
    <glyph glyph-name="FL00EBh" unicode="&#xeb;" horiz-adv-x="690" 
d="M30 483v-366q0 -22 10.5 -43t27 -37.5t37.5 -26.5t42 -10h513q0 10 -2 30.5t-5 41.5t-6 37t-5 16h-476l-8 14v39h446q1 0 3.5 16t5.5 37.5t5.5 42t2.5 29.5h-463v55h484q1 0 4 16t6 37t5.5 42t2.5 30h-630zM502 685h-126v-125h126v125zM312 685h-126v-125h126v125z" />
    <glyph glyph-name="FL00ECh" unicode="&#xec;" horiz-adv-x="188" 
d="M158 483h-128v-483h128v483zM130 684h-134l62 -125h126z" />
    <glyph glyph-name="FL00EDh" unicode="&#xed;" horiz-adv-x="188" 
d="M158 483h-128v-483h128v483zM193 684h-134l-54 -125h126z" />
    <glyph glyph-name="FL00EEh" unicode="&#xee;" horiz-adv-x="188" 
d="M30 483h128v-483h-128v483zM-9 684h208l54 -125h-126l-31 86l-33 -86h-126z" />
    <glyph glyph-name="FL00EFh" unicode="&#xef;" horiz-adv-x="188" 
d="M30 483h128v-483h-128v483zM-63 684h126v-125h-126v125zM127 684h126v-125h-126v125z" />
    <glyph glyph-name="FL00F0h" unicode="&#xf0;" horiz-adv-x="690" 
d="M30 283v-283h513q21 0 42 10t37.5 26.5t27 37.5t10.5 43v366h-630q0 -9 2.5 -30t5.5 -42t6 -37t4 -16h484v-55h-484zM532 178v-39l-8 -14h-366v53h374z" />
    <glyph glyph-name="FL00F1h" unicode="&#xf1;" 
d="M30 483h126l378 -313v313h124v-483h-128l-372 313v-313h-128v483zM504 560h-192l-30 81l-30 -82h-114l50 126h190l31 -83l30 83h114z" />
    <glyph glyph-name="FL00F2h" unicode="&#xf2;" 
d="M30 483h527q15 0 32.5 -9t33 -23t25.5 -30.5t10 -32.5v-287q0 -20 -11.5 -38.5t-28.5 -32.5t-38 -22t-39 -8h-394q-20 0 -40.5 9t-37.5 23.5t-28 33.5t-11 40v377zM158 136l11 -11h361v230h-372v-219zM235 686h134l54 -125h-126z" />
    <glyph glyph-name="FL00F3h" unicode="&#xf3;" 
d="M30 483h527q15 0 32.5 -9t33 -23t25.5 -30.5t10 -32.5v-287q0 -20 -11.5 -38.5t-28.5 -32.5t-38 -22t-39 -8h-394q-20 0 -40.5 9t-37.5 23.5t-28 33.5t-11 40v377zM158 136l11 -11h361v230h-372v-219zM319 686h134l-62 -125h-126z" />
    <glyph glyph-name="FL00F4h" unicode="&#xf4;" 
d="M30 483h527q15 0 32.5 -9t33 -23t25.5 -30.5t10 -32.5v-287q0 -20 -11.5 -38.5t-28.5 -32.5t-38 -22t-39 -8h-394q-20 0 -40.5 9t-37.5 23.5t-28 33.5t-11 40v377zM158 136l11 -11h361v230h-372v-219zM240 685h208l54 -125h-126l-31 86l-33 -86h-126z" />
    <glyph glyph-name="FL00F5h" unicode="&#xf5;" 
d="M30 483h527q15 0 32.5 -9t33 -23t25.5 -30.5t10 -32.5v-287q0 -20 -11.5 -38.5t-28.5 -32.5t-38 -22t-39 -8h-394q-20 0 -40.5 9t-37.5 23.5t-28 33.5t-11 40v377zM158 136l11 -11h361v230h-372v-219zM505 560h-193l-30 81l-30 -82h-114l50 126h190l31 -83l30 83h114z
" />
    <glyph glyph-name="FL00F6h" unicode="&#xf6;" 
d="M30 483h527q15 0 32.5 -9t33 -23t25.5 -30.5t10 -32.5v-287q0 -20 -11.5 -38.5t-28.5 -32.5t-38 -22t-39 -8h-394q-20 0 -40.5 9t-37.5 23.5t-28 33.5t-11 40v377zM158 136l11 -11h361v230h-372v-219zM186 685h126v-125h-126v125zM376 685h126v-125h-126v125z" />
    <glyph glyph-name="FL00F7h" unicode="&#xf7;" horiz-adv-x="578" 
d="M30 178v125h518q0 -9 -2.5 -29.5t-5.5 -42t-5.5 -37.5t-3.5 -16h-501zM214 137h126v-125h-126v125zM214 469h126v-125h-126v125z" />
    <glyph glyph-name="FL00F8h" unicode="&#xf8;" 
d="M557 483q15 0 32.5 -9t33 -23t25.5 -30.5t10 -32.5v-287q0 -20 -11.5 -38.5t-28.5 -32.5t-38 -22t-39 -8h-394q-20 0 -40.5 9t-37.5 23.5t-28 33.5t-11 40v377h527zM522 355l-219 -230h227v230h-8zM366 355h-208v-219l1 -2z" />
    <glyph glyph-name="FL00F9h" unicode="&#xf9;" 
d="M369 686h-134l62 -125h126zM158 136v347h-128v-377q0 -21 11 -40t28 -33.5t37.5 -23.5t40.5 -9h511v483h-128v-358h-361z" />
    <glyph glyph-name="FL00FAh" unicode="&#xfa;" 
d="M453 686h-134l-54 -125h126zM158 136v347h-128v-377q0 -21 11 -40t28 -33.5t37.5 -23.5t40.5 -9h511v483h-128v-358h-361z" />
    <glyph glyph-name="FL00FBh" unicode="&#xfb;" 
d="M448 685h-208l-54 -125h126l33 86l31 -86h126zM158 136v347h-128v-377q0 -21 11 -40t28 -33.5t37.5 -23.5t40.5 -9h511v483h-128v-358h-361z" />
    <glyph glyph-name="FL00FCh" unicode="&#xfc;" 
d="M502 685h-126v-125h126v125zM312 685h-126v-125h126v125zM158 136v347h-128v-377q0 -21 11 -40t28 -33.5t37.5 -23.5t40.5 -9h511v483h-128v-358h-361z" />
    <glyph glyph-name="FL00FDh" unicode="&#xfd;" horiz-adv-x="654" 
d="M16 483l248 -303v-180h122v182l252 301h-164l-147 -180l-156 180h-155zM432 685h-134l-54 -125h126z" />
    <glyph glyph-name="FL00FEh" unicode="&#xfe;" 
d="M30 483h128v-86h385q36 0 58 -14t35 -35.5t17.5 -48.5t4.5 -54v-50q0 -14 -8 -32t-22 -33.5t-32.5 -26.5t-38.5 -11h-399v-92h-128v483zM520 272h-362v-55h360l14 12v36z" />
    <glyph glyph-name="FL00FFh" unicode="&#xff;" horiz-adv-x="654" 
d="M16 483l248 -303v-180h122v182l252 301h-164l-147 -180l-156 180h-155zM482 686h-126v-125h126v125zM292 686h-126v-125h126v125z" />
    </font>
</defs>
</svg>
